M48
;GenerationSoftware,Autodesk,EAGLE,9.6.2*%
;CreationDate,2022-04-02T21:25:29Z*%
FMAT,2
ICI,OFF
METRIC,TZ,000.000
T3C1.016
T2C1.524
T1C3.810
%
G90
M71
T1
X12700Y49530
X12700Y21590
X12700Y121920
X12700Y35560
X12700Y135890
X12700Y107950
T2
X37648Y162003
X37600Y165664
X39713Y168653
X72076Y168744
X74266Y165811
X74314Y162150
X72201Y159161
X68734Y157984
X65238Y159070
X63048Y162003
X63000Y165664
X65113Y168653
X97476Y168744
X99666Y165811
X99714Y162150
X97601Y159161
X94134Y157984
X90638Y159070
X88448Y162003
X88400Y165664
X90513Y168653
X122876Y168744
X125066Y165811
X125114Y162150
X123001Y159161
X119534Y157984
X116038Y159070
X113848Y162003
X113800Y165664
X115913Y168653
X148276Y168744
X150466Y165811
X150514Y162150
X148401Y159161
X144934Y157984
X141438Y159070
X139248Y162003
X139200Y165664
X141313Y168653
X173676Y168744
X175866Y165811
X175914Y162150
X173801Y159161
X170334Y157984
X166838Y159070
X164648Y162003
X164600Y165664
X166713Y168653
X46676Y82384
X48866Y79451
X48914Y75790
X46801Y72801
X43334Y71624
X39838Y72710
X37648Y75643
X37600Y79304
X39713Y82293
X72076Y82384
X74266Y79451
X74314Y75790
X72201Y72801
X68734Y71624
X65238Y72710
X63048Y75643
X63000Y79304
X65113Y82293
X97476Y82384
X99666Y79451
X99714Y75790
X97601Y72801
X94134Y71624
X90638Y72710
X88448Y75643
X88400Y79304
X90513Y82293
X122876Y82384
X125066Y79451
X125114Y75790
X123001Y72801
X46676Y168744
X116038Y72710
X113848Y75643
X113800Y79304
X115913Y82293
X148276Y82384
X150466Y79451
X150514Y75790
X148401Y72801
X144934Y71624
X141438Y72710
X139248Y75643
X139200Y79304
X141313Y82293
X119534Y71624
X175866Y79451
X175914Y75790
X173801Y72801
X170334Y71624
X166838Y72710
X164648Y75643
X164600Y79304
X166713Y82293
X48866Y165811
X48914Y162150
X46801Y159161
X43334Y157984
X39838Y159070
X173676Y82384
T3
X41910Y11430
X44450Y11430
X46990Y11430
X49530Y11430
X52070Y11430
X54610Y11430
X57150Y11430
X59690Y11430
X62230Y11430
X64770Y11430
X67310Y11430
X69850Y11430
X72390Y11430
X74930Y11430
X77470Y11430
X80010Y11430
X82550Y11430
X85090Y11430
X87630Y11430
X90170Y11430
X92710Y11430
X95250Y11430
X97790Y11430
X100330Y11430
X102870Y11430
X105410Y11430
X107950Y11430
X110490Y11430
X113030Y11430
X115570Y11430
X118110Y11430
X120650Y11430
X123190Y11430
X125730Y11430
X128270Y11430
X130810Y11430
X133350Y11430
X135890Y11430
X138430Y11430
X140970Y11430
X143510Y11430
X146050Y11430
X148590Y11430
X151130Y11430
X153670Y11430
X156210Y11430
X158750Y11430
X161290Y11430
X163830Y11430
X166370Y11430
X168910Y11430
X171450Y11430
X173990Y11430
X176530Y11430
X179070Y11430
X181610Y11430
X184150Y11430
X186690Y11430
X26670Y13970
X29210Y13970
X31750Y13970
X34290Y13970
X36830Y13970
X39370Y13970
X41910Y13970
X44450Y13970
X46990Y13970
X49530Y13970
X52070Y13970
X54610Y13970
X57150Y13970
X59690Y13970
X62230Y13970
X64770Y13970
X67310Y13970
X69850Y13970
X72390Y13970
X74930Y13970
X77470Y13970
X80010Y13970
X82550Y13970
X85090Y13970
X87630Y13970
X90170Y13970
X92710Y13970
X95250Y13970
X97790Y13970
X100330Y13970
X102870Y13970
X105410Y13970
X107950Y13970
X110490Y13970
X113030Y13970
X115570Y13970
X118110Y13970
X120650Y13970
X123190Y13970
X125730Y13970
X128270Y13970
X130810Y13970
X133350Y13970
X135890Y13970
X138430Y13970
X140970Y13970
X143510Y13970
X146050Y13970
X148590Y13970
X151130Y13970
X153670Y13970
X156210Y13970
X158750Y13970
X161290Y13970
X163830Y13970
X166370Y13970
X168910Y13970
X171450Y13970
X173990Y13970
X176530Y13970
X179070Y13970
X181610Y13970
X184150Y13970
X186690Y13970
X26670Y100330
X29210Y100330
X31750Y100330
X34290Y100330
X36830Y100330
X39370Y100330
X41910Y100330
X44450Y100330
X46990Y100330
X49530Y100330
X52070Y100330
X54610Y100330
X57150Y100330
X59690Y100330
X62230Y100330
X64770Y100330
X67310Y100330
X69850Y100330
X72390Y100330
X74930Y100330
X77470Y100330
X80010Y100330
X82550Y100330
X85090Y100330
X87630Y100330
X90170Y100330
X92710Y100330
X95250Y100330
X97790Y100330
X100330Y100330
X102870Y100330
X105410Y100330
X107950Y100330
X110490Y100330
X113030Y100330
X115570Y100330
X118110Y100330
X120650Y100330
X123190Y100330
X125730Y100330
X128270Y100330
X130810Y100330
X133350Y100330
X135890Y100330
X138430Y100330
X140970Y100330
X143510Y100330
X146050Y100330
X148590Y100330
X151130Y100330
X153670Y100330
X156210Y100330
X158750Y100330
X161290Y100330
X163830Y100330
X166370Y100330
X168910Y100330
X171450Y100330
X173990Y100330
X176530Y100330
X179070Y100330
X181610Y100330
X184150Y100330
X186690Y100330
X26670Y97790
X29210Y97790
X31750Y97790
X34290Y97790
X36830Y97790
X39370Y97790
X41910Y97790
X44450Y97790
X46990Y97790
X49530Y97790
X52070Y97790
X54610Y97790
X57150Y97790
X59690Y97790
X62230Y97790
X64770Y97790
X67310Y97790
X69850Y97790
X72390Y97790
X74930Y97790
X77470Y97790
X80010Y97790
X82550Y97790
X85090Y97790
X87630Y97790
X90170Y97790
X92710Y97790
X95250Y97790
X97790Y97790
X100330Y97790
X102870Y97790
X105410Y97790
X107950Y97790
X110490Y97790
X113030Y97790
X115570Y97790
X118110Y97790
X120650Y97790
X123190Y97790
X125730Y97790
X128270Y97790
X130810Y97790
X133350Y97790
X135890Y97790
X138430Y97790
X140970Y97790
X143510Y97790
X146050Y97790
X148590Y97790
X151130Y97790
X153670Y97790
X156210Y97790
X158750Y97790
X161290Y97790
X163830Y97790
X166370Y97790
X168910Y97790
X171450Y97790
X173990Y97790
X176530Y97790
X179070Y97790
X181610Y97790
X184150Y97790
X186690Y97790
X26670Y95250
X29210Y95250
X31750Y95250
X34290Y95250
X36830Y95250
X39370Y95250
X41910Y95250
X44450Y95250
X46990Y95250
X49530Y95250
X52070Y95250
X54610Y95250
X57150Y95250
X59690Y95250
X62230Y95250
X64770Y95250
X67310Y95250
X69850Y95250
X72390Y95250
X74930Y95250
X77470Y95250
X80010Y95250
X82550Y95250
X85090Y95250
X87630Y95250
X90170Y95250
X92710Y95250
X95250Y95250
X97790Y95250
X100330Y95250
X102870Y95250
X105410Y95250
X107950Y95250
X110490Y95250
X113030Y95250
X115570Y95250
X118110Y95250
X120650Y95250
X123190Y95250
X125730Y95250
X128270Y95250
X130810Y95250
X133350Y95250
X135890Y95250
X138430Y95250
X140970Y95250
X143510Y95250
X146050Y95250
X148590Y95250
X151130Y95250
X153670Y95250
X156210Y95250
X158750Y95250
X161290Y95250
X163830Y95250
X166370Y95250
X168910Y95250
X171450Y95250
X173990Y95250
X176530Y95250
X179070Y95250
X181610Y95250
X184150Y95250
X186690Y95250
X26670Y8890
X29210Y8890
X31750Y8890
X34290Y8890
X36830Y8890
X39370Y8890
X41910Y8890
X44450Y8890
X46990Y8890
X49530Y8890
X52070Y8890
X54610Y8890
X57150Y8890
X59690Y8890
X62230Y8890
X64770Y8890
X67310Y8890
X69850Y8890
X72390Y8890
X74930Y8890
X77470Y8890
X80010Y8890
X82550Y8890
X85090Y8890
X87630Y8890
X90170Y8890
X92710Y8890
X26670Y11430
X97790Y8890
X100330Y8890
X102870Y8890
X105410Y8890
X107950Y8890
X110490Y8890
X113030Y8890
X115570Y8890
X118110Y8890
X120650Y8890
X123190Y8890
X125730Y8890
X128270Y8890
X130810Y8890
X133350Y8890
X135890Y8890
X138430Y8890
X140970Y8890
X143510Y8890
X146050Y8890
X148590Y8890
X151130Y8890
X153670Y8890
X156210Y8890
X158750Y8890
X161290Y8890
X163830Y8890
X166370Y8890
X168910Y8890
X171450Y8890
X173990Y8890
X176530Y8890
X179070Y8890
X181610Y8890
X184150Y8890
X186690Y8890
X52070Y142240
X49530Y142240
X46990Y142240
X44450Y142240
X41910Y142240
X39370Y142240
X36830Y142240
X34290Y142240
X31750Y142240
X77470Y142240
X74930Y142240
X72390Y142240
X69850Y142240
X67310Y142240
X64770Y142240
X62230Y142240
X59690Y142240
X57150Y142240
X102870Y142240
X100330Y142240
X97790Y142240
X95250Y142240
X92710Y142240
X90170Y142240
X87630Y142240
X85090Y142240
X82550Y142240
X130810Y142240
X128270Y142240
X125730Y142240
X123190Y142240
X120650Y142240
X118110Y142240
X115570Y142240
X113030Y142240
X110490Y142240
X156210Y142240
X153670Y142240
X95250Y8890
X148590Y142240
X146050Y142240
X143510Y142240
X140970Y142240
X138430Y142240
X135890Y142240
X181610Y142240
X179070Y142240
X176530Y142240
X173990Y142240
X171450Y142240
X168910Y142240
X166370Y142240
X163830Y142240
X161290Y142240
X52070Y55880
X49530Y55880
X46990Y55880
X44450Y55880
X41910Y55880
X39370Y55880
X36830Y55880
X34290Y55880
X31750Y55880
X77470Y55880
X74930Y55880
X72390Y55880
X69850Y55880
X67310Y55880
X64770Y55880
X62230Y55880
X59690Y55880
X57150Y55880
X102870Y55880
X100330Y55880
X97790Y55880
X95250Y55880
X92710Y55880
X90170Y55880
X87630Y55880
X85090Y55880
X82550Y55880
X130810Y55880
X128270Y55880
X125730Y55880
X123190Y55880
X120650Y55880
X118110Y55880
X115570Y55880
X113030Y55880
X110490Y55880
X156210Y55880
X153670Y55880
X151130Y55880
X148590Y55880
X146050Y55880
X143510Y55880
X140970Y55880
X138430Y55880
X135890Y55880
X181610Y55880
X179070Y55880
X176530Y55880
X173990Y55880
X171450Y55880
X168910Y55880
X166370Y55880
X163830Y55880
X161290Y55880
X29210Y11430
X31750Y11430
X34290Y11430
X36830Y11430
X39370Y11430
X151130Y142240
M30