G04 EAGLE Gerber RS-274X export*
G75*
%MOMM*%
%FSLAX34Y34*%
%LPD*%
%INBottom Copper*%
%IPPOS*%
%AMOC8*
5,1,8,0,0,1.08239X$1,22.5*%
G01*
%ADD10C,3.048000*%
%ADD11C,1.879600*%
%ADD12C,5.461000*%
%ADD13C,0.254000*%
%ADD14C,1.016000*%


D10*
X466761Y1687442D03*
X488664Y1658107D03*
X489141Y1621502D03*
X468010Y1591607D03*
X433343Y1579841D03*
X398382Y1590700D03*
X376480Y1620034D03*
X376003Y1656640D03*
X397133Y1686535D03*
X720761Y1687442D03*
X742664Y1658107D03*
X743141Y1621502D03*
X722010Y1591607D03*
X687343Y1579841D03*
X652382Y1590700D03*
X630480Y1620034D03*
X630003Y1656640D03*
X651133Y1686535D03*
X974761Y1687442D03*
X996664Y1658107D03*
X997141Y1621502D03*
X976010Y1591607D03*
X941343Y1579841D03*
X906382Y1590700D03*
X884480Y1620034D03*
X884003Y1656640D03*
X905133Y1686535D03*
X1228761Y1687442D03*
X1250664Y1658107D03*
X1251141Y1621502D03*
X1230010Y1591607D03*
X1195343Y1579841D03*
X1160382Y1590700D03*
X1138480Y1620034D03*
X1138003Y1656640D03*
X1159133Y1686535D03*
X1482761Y1687442D03*
X1504664Y1658107D03*
X1505141Y1621502D03*
X1484010Y1591607D03*
X1449343Y1579841D03*
X1414382Y1590700D03*
X1392480Y1620034D03*
X1392003Y1656640D03*
X1413133Y1686535D03*
X1736761Y1687442D03*
X1758664Y1658107D03*
X1759141Y1621502D03*
X1738010Y1591607D03*
X1703343Y1579841D03*
X1668382Y1590700D03*
X1646480Y1620034D03*
X1646003Y1656640D03*
X1667133Y1686535D03*
X466761Y823842D03*
X488664Y794507D03*
X489141Y757902D03*
X468010Y728007D03*
X433343Y716241D03*
X398382Y727100D03*
X376480Y756434D03*
X376003Y793040D03*
X397133Y822935D03*
X720761Y823842D03*
X742664Y794507D03*
X743141Y757902D03*
X722010Y728007D03*
X687343Y716241D03*
X652382Y727100D03*
X630480Y756434D03*
X630003Y793040D03*
X651133Y822935D03*
X974761Y823842D03*
X996664Y794507D03*
X997141Y757902D03*
X976010Y728007D03*
X941343Y716241D03*
X906382Y727100D03*
X884480Y756434D03*
X884003Y793040D03*
X905133Y822935D03*
X1228761Y823842D03*
X1250664Y794507D03*
X1251141Y757902D03*
X1230010Y728007D03*
X1195343Y716241D03*
X1160382Y727100D03*
X1138480Y756434D03*
X1138003Y793040D03*
X1159133Y822935D03*
X1482761Y823842D03*
X1504664Y794507D03*
X1505141Y757902D03*
X1484010Y728007D03*
X1449343Y716241D03*
X1414382Y727100D03*
X1392480Y756434D03*
X1392003Y793040D03*
X1413133Y822935D03*
X1736761Y823842D03*
X1758664Y794507D03*
X1759141Y757902D03*
X1738010Y728007D03*
X1703343Y716241D03*
X1668382Y727100D03*
X1646480Y756434D03*
X1646003Y793040D03*
X1667133Y822935D03*
D11*
X266700Y114300D03*
X292100Y114300D03*
X317500Y114300D03*
X342900Y114300D03*
X368300Y114300D03*
X393700Y114300D03*
X419100Y114300D03*
X444500Y114300D03*
X469900Y114300D03*
X495300Y114300D03*
X520700Y114300D03*
X546100Y114300D03*
X571500Y114300D03*
X596900Y114300D03*
X622300Y114300D03*
X647700Y114300D03*
X673100Y114300D03*
X698500Y114300D03*
X723900Y114300D03*
X749300Y114300D03*
X774700Y114300D03*
X800100Y114300D03*
X825500Y114300D03*
X850900Y114300D03*
X876300Y114300D03*
X901700Y114300D03*
X927100Y114300D03*
X952500Y114300D03*
X977900Y114300D03*
X1003300Y114300D03*
X1028700Y114300D03*
X1054100Y114300D03*
X1079500Y114300D03*
X1104900Y114300D03*
X1130300Y114300D03*
X1155700Y114300D03*
X1181100Y114300D03*
X1206500Y114300D03*
X1231900Y114300D03*
X1257300Y114300D03*
X1282700Y114300D03*
X1308100Y114300D03*
X1333500Y114300D03*
X1358900Y114300D03*
X1384300Y114300D03*
X1409700Y114300D03*
X1435100Y114300D03*
X1460500Y114300D03*
X1485900Y114300D03*
X1511300Y114300D03*
X1536700Y114300D03*
X1562100Y114300D03*
X1587500Y114300D03*
X1612900Y114300D03*
X1638300Y114300D03*
X1663700Y114300D03*
X1689100Y114300D03*
X1714500Y114300D03*
X1739900Y114300D03*
X1765300Y114300D03*
X1790700Y114300D03*
X1816100Y114300D03*
X1841500Y114300D03*
X1866900Y114300D03*
X266700Y139700D03*
X292100Y139700D03*
X317500Y139700D03*
X342900Y139700D03*
X368300Y139700D03*
X393700Y139700D03*
X419100Y139700D03*
X444500Y139700D03*
X469900Y139700D03*
X495300Y139700D03*
X520700Y139700D03*
X546100Y139700D03*
X571500Y139700D03*
X596900Y139700D03*
X622300Y139700D03*
X647700Y139700D03*
X673100Y139700D03*
X698500Y139700D03*
X723900Y139700D03*
X749300Y139700D03*
X774700Y139700D03*
X800100Y139700D03*
X825500Y139700D03*
X850900Y139700D03*
X876300Y139700D03*
X901700Y139700D03*
X927100Y139700D03*
X952500Y139700D03*
X977900Y139700D03*
X1003300Y139700D03*
X1028700Y139700D03*
X1054100Y139700D03*
X1079500Y139700D03*
X1104900Y139700D03*
X1130300Y139700D03*
X1155700Y139700D03*
X1181100Y139700D03*
X1206500Y139700D03*
X1231900Y139700D03*
X1257300Y139700D03*
X1282700Y139700D03*
X1308100Y139700D03*
X1333500Y139700D03*
X1358900Y139700D03*
X1384300Y139700D03*
X1409700Y139700D03*
X1435100Y139700D03*
X1460500Y139700D03*
X1485900Y139700D03*
X1511300Y139700D03*
X1536700Y139700D03*
X1562100Y139700D03*
X1587500Y139700D03*
X1612900Y139700D03*
X1638300Y139700D03*
X1663700Y139700D03*
X1689100Y139700D03*
X1714500Y139700D03*
X1739900Y139700D03*
X1765300Y139700D03*
X1790700Y139700D03*
X1816100Y139700D03*
X1841500Y139700D03*
X1866900Y139700D03*
X266700Y1003300D03*
X292100Y1003300D03*
X317500Y1003300D03*
X342900Y1003300D03*
X368300Y1003300D03*
X393700Y1003300D03*
X419100Y1003300D03*
X444500Y1003300D03*
X469900Y1003300D03*
X495300Y1003300D03*
X520700Y1003300D03*
X546100Y1003300D03*
X571500Y1003300D03*
X596900Y1003300D03*
X622300Y1003300D03*
X647700Y1003300D03*
X673100Y1003300D03*
X698500Y1003300D03*
X723900Y1003300D03*
X749300Y1003300D03*
X774700Y1003300D03*
X800100Y1003300D03*
X825500Y1003300D03*
X850900Y1003300D03*
X876300Y1003300D03*
X901700Y1003300D03*
X927100Y1003300D03*
X952500Y1003300D03*
X977900Y1003300D03*
X1003300Y1003300D03*
X1028700Y1003300D03*
X1054100Y1003300D03*
X1079500Y1003300D03*
X1104900Y1003300D03*
X1130300Y1003300D03*
X1155700Y1003300D03*
X1181100Y1003300D03*
X1206500Y1003300D03*
X1231900Y1003300D03*
X1257300Y1003300D03*
X1282700Y1003300D03*
X1308100Y1003300D03*
X1333500Y1003300D03*
X1358900Y1003300D03*
X1384300Y1003300D03*
X1409700Y1003300D03*
X1435100Y1003300D03*
X1460500Y1003300D03*
X1485900Y1003300D03*
X1511300Y1003300D03*
X1536700Y1003300D03*
X1562100Y1003300D03*
X1587500Y1003300D03*
X1612900Y1003300D03*
X1638300Y1003300D03*
X1663700Y1003300D03*
X1689100Y1003300D03*
X1714500Y1003300D03*
X1739900Y1003300D03*
X1765300Y1003300D03*
X1790700Y1003300D03*
X1816100Y1003300D03*
X1841500Y1003300D03*
X1866900Y1003300D03*
X266700Y977900D03*
X292100Y977900D03*
X317500Y977900D03*
X342900Y977900D03*
X368300Y977900D03*
X393700Y977900D03*
X419100Y977900D03*
X444500Y977900D03*
X469900Y977900D03*
X495300Y977900D03*
X520700Y977900D03*
X546100Y977900D03*
X571500Y977900D03*
X596900Y977900D03*
X622300Y977900D03*
X647700Y977900D03*
X673100Y977900D03*
X698500Y977900D03*
X723900Y977900D03*
X749300Y977900D03*
X774700Y977900D03*
X800100Y977900D03*
X825500Y977900D03*
X850900Y977900D03*
X876300Y977900D03*
X901700Y977900D03*
X927100Y977900D03*
X952500Y977900D03*
X977900Y977900D03*
X1003300Y977900D03*
X1028700Y977900D03*
X1054100Y977900D03*
X1079500Y977900D03*
X1104900Y977900D03*
X1130300Y977900D03*
X1155700Y977900D03*
X1181100Y977900D03*
X1206500Y977900D03*
X1231900Y977900D03*
X1257300Y977900D03*
X1282700Y977900D03*
X1308100Y977900D03*
X1333500Y977900D03*
X1358900Y977900D03*
X1384300Y977900D03*
X1409700Y977900D03*
X1435100Y977900D03*
X1460500Y977900D03*
X1485900Y977900D03*
X1511300Y977900D03*
X1536700Y977900D03*
X1562100Y977900D03*
X1587500Y977900D03*
X1612900Y977900D03*
X1638300Y977900D03*
X1663700Y977900D03*
X1689100Y977900D03*
X1714500Y977900D03*
X1739900Y977900D03*
X1765300Y977900D03*
X1790700Y977900D03*
X1816100Y977900D03*
X1841500Y977900D03*
X1866900Y977900D03*
X266700Y952500D03*
X292100Y952500D03*
X317500Y952500D03*
X342900Y952500D03*
X368300Y952500D03*
X393700Y952500D03*
X419100Y952500D03*
X444500Y952500D03*
X469900Y952500D03*
X495300Y952500D03*
X520700Y952500D03*
X546100Y952500D03*
X571500Y952500D03*
X596900Y952500D03*
X622300Y952500D03*
X647700Y952500D03*
X673100Y952500D03*
X698500Y952500D03*
X723900Y952500D03*
X749300Y952500D03*
X774700Y952500D03*
X800100Y952500D03*
X825500Y952500D03*
X850900Y952500D03*
X876300Y952500D03*
X901700Y952500D03*
X927100Y952500D03*
X952500Y952500D03*
X977900Y952500D03*
X1003300Y952500D03*
X1028700Y952500D03*
X1054100Y952500D03*
X1079500Y952500D03*
X1104900Y952500D03*
X1130300Y952500D03*
X1155700Y952500D03*
X1181100Y952500D03*
X1206500Y952500D03*
X1231900Y952500D03*
X1257300Y952500D03*
X1282700Y952500D03*
X1308100Y952500D03*
X1333500Y952500D03*
X1358900Y952500D03*
X1384300Y952500D03*
X1409700Y952500D03*
X1435100Y952500D03*
X1460500Y952500D03*
X1485900Y952500D03*
X1511300Y952500D03*
X1536700Y952500D03*
X1562100Y952500D03*
X1587500Y952500D03*
X1612900Y952500D03*
X1638300Y952500D03*
X1663700Y952500D03*
X1689100Y952500D03*
X1714500Y952500D03*
X1739900Y952500D03*
X1765300Y952500D03*
X1790700Y952500D03*
X1816100Y952500D03*
X1841500Y952500D03*
X1866900Y952500D03*
X266700Y88900D03*
X292100Y88900D03*
X317500Y88900D03*
X342900Y88900D03*
X368300Y88900D03*
X393700Y88900D03*
X419100Y88900D03*
X444500Y88900D03*
X469900Y88900D03*
X495300Y88900D03*
X520700Y88900D03*
X546100Y88900D03*
X571500Y88900D03*
X596900Y88900D03*
X622300Y88900D03*
X647700Y88900D03*
X673100Y88900D03*
X698500Y88900D03*
X723900Y88900D03*
X749300Y88900D03*
X774700Y88900D03*
X800100Y88900D03*
X825500Y88900D03*
X850900Y88900D03*
X876300Y88900D03*
X901700Y88900D03*
X927100Y88900D03*
X952500Y88900D03*
X977900Y88900D03*
X1003300Y88900D03*
X1028700Y88900D03*
X1054100Y88900D03*
X1079500Y88900D03*
X1104900Y88900D03*
X1130300Y88900D03*
X1155700Y88900D03*
X1181100Y88900D03*
X1206500Y88900D03*
X1231900Y88900D03*
X1257300Y88900D03*
X1282700Y88900D03*
X1308100Y88900D03*
X1333500Y88900D03*
X1358900Y88900D03*
X1384300Y88900D03*
X1409700Y88900D03*
X1435100Y88900D03*
X1460500Y88900D03*
X1485900Y88900D03*
X1511300Y88900D03*
X1536700Y88900D03*
X1562100Y88900D03*
X1587500Y88900D03*
X1612900Y88900D03*
X1638300Y88900D03*
X1663700Y88900D03*
X1689100Y88900D03*
X1714500Y88900D03*
X1739900Y88900D03*
X1765300Y88900D03*
X1790700Y88900D03*
X1816100Y88900D03*
X1841500Y88900D03*
X1866900Y88900D03*
X520700Y1422400D03*
X495300Y1422400D03*
X469900Y1422400D03*
X444500Y1422400D03*
X419100Y1422400D03*
X393700Y1422400D03*
X368300Y1422400D03*
X342900Y1422400D03*
X317500Y1422400D03*
X774700Y1422400D03*
X749300Y1422400D03*
X723900Y1422400D03*
X698500Y1422400D03*
X673100Y1422400D03*
X647700Y1422400D03*
X622300Y1422400D03*
X596900Y1422400D03*
X571500Y1422400D03*
X1028700Y1422400D03*
X1003300Y1422400D03*
X977900Y1422400D03*
X952500Y1422400D03*
X927100Y1422400D03*
X901700Y1422400D03*
X876300Y1422400D03*
X850900Y1422400D03*
X825500Y1422400D03*
X1308100Y1422400D03*
X1282700Y1422400D03*
X1257300Y1422400D03*
X1231900Y1422400D03*
X1206500Y1422400D03*
X1181100Y1422400D03*
X1155700Y1422400D03*
X1130300Y1422400D03*
X1104900Y1422400D03*
X1562100Y1422400D03*
X1536700Y1422400D03*
X1511300Y1422400D03*
X1485900Y1422400D03*
X1460500Y1422400D03*
X1435100Y1422400D03*
X1409700Y1422400D03*
X1384300Y1422400D03*
X1358900Y1422400D03*
X1816100Y1422400D03*
X1790700Y1422400D03*
X1765300Y1422400D03*
X1739900Y1422400D03*
X1714500Y1422400D03*
X1689100Y1422400D03*
X1663700Y1422400D03*
X1638300Y1422400D03*
X1612900Y1422400D03*
X520700Y558800D03*
X495300Y558800D03*
X469900Y558800D03*
X444500Y558800D03*
X419100Y558800D03*
X393700Y558800D03*
X368300Y558800D03*
X342900Y558800D03*
X317500Y558800D03*
X774700Y558800D03*
X749300Y558800D03*
X723900Y558800D03*
X698500Y558800D03*
X673100Y558800D03*
X647700Y558800D03*
X622300Y558800D03*
X596900Y558800D03*
X571500Y558800D03*
X1028700Y558800D03*
X1003300Y558800D03*
X977900Y558800D03*
X952500Y558800D03*
X927100Y558800D03*
X901700Y558800D03*
X876300Y558800D03*
X850900Y558800D03*
X825500Y558800D03*
X1308100Y558800D03*
X1282700Y558800D03*
X1257300Y558800D03*
X1231900Y558800D03*
X1206500Y558800D03*
X1181100Y558800D03*
X1155700Y558800D03*
X1130300Y558800D03*
X1104900Y558800D03*
X1562100Y558800D03*
X1536700Y558800D03*
X1511300Y558800D03*
X1485900Y558800D03*
X1460500Y558800D03*
X1435100Y558800D03*
X1409700Y558800D03*
X1384300Y558800D03*
X1358900Y558800D03*
X1816100Y558800D03*
X1790700Y558800D03*
X1765300Y558800D03*
X1739900Y558800D03*
X1714500Y558800D03*
X1689100Y558800D03*
X1663700Y558800D03*
X1638300Y558800D03*
X1612900Y558800D03*
D12*
X127000Y1219200D03*
X127000Y355600D03*
X127000Y1358900D03*
X127000Y1079500D03*
X127000Y495300D03*
X127000Y215900D03*
D13*
X267970Y113030D02*
X278929Y113030D01*
X267970Y113030D02*
X267970Y115570D01*
X290830Y115570D01*
X290830Y113030D01*
X278929Y113030D01*
X318770Y113030D02*
X329729Y113030D01*
X318770Y113030D02*
X318770Y115570D01*
X341630Y115570D01*
X341630Y113030D01*
X329729Y113030D01*
X369570Y113030D02*
X381471Y113030D01*
X369570Y113030D02*
X369570Y115570D01*
X392430Y115570D01*
X392430Y113030D01*
X381471Y113030D01*
X420370Y113030D02*
X431329Y113030D01*
X420370Y113030D02*
X420370Y115570D01*
X443230Y115570D01*
X443230Y113030D01*
X431329Y113030D01*
X471170Y113030D02*
X482129Y113030D01*
X471170Y113030D02*
X471170Y115570D01*
X494030Y115570D01*
X494030Y113030D01*
X482129Y113030D01*
X521970Y113030D02*
X532929Y113030D01*
X521970Y113030D02*
X521970Y115570D01*
X544830Y115570D01*
X544830Y113030D01*
X532929Y113030D01*
X572770Y113030D02*
X583729Y113030D01*
X572770Y113030D02*
X572770Y115570D01*
X595630Y115570D01*
X595630Y113030D01*
X583729Y113030D01*
X623570Y113030D02*
X634529Y113030D01*
X623570Y113030D02*
X623570Y115570D01*
X646430Y115570D01*
X646430Y113030D01*
X634529Y113030D01*
X674370Y113030D02*
X685329Y113030D01*
X674370Y113030D02*
X674370Y115570D01*
X697230Y115570D01*
X697230Y113030D01*
X685329Y113030D01*
X725170Y113030D02*
X737071Y113030D01*
X725170Y113030D02*
X725170Y115570D01*
X748030Y115570D01*
X748030Y113030D01*
X737071Y113030D01*
X775970Y113030D02*
X786929Y113030D01*
X775970Y113030D02*
X775970Y115570D01*
X798830Y115570D01*
X798830Y113030D01*
X786929Y113030D01*
X826770Y113030D02*
X837729Y113030D01*
X826770Y113030D02*
X826770Y115570D01*
X849630Y115570D01*
X849630Y113030D01*
X837729Y113030D01*
X877570Y113030D02*
X888529Y113030D01*
X877570Y113030D02*
X877570Y115570D01*
X900430Y115570D01*
X900430Y113030D01*
X888529Y113030D01*
X928370Y113030D02*
X940271Y113030D01*
X928370Y113030D02*
X928370Y115570D01*
X951230Y115570D01*
X951230Y113030D01*
X940271Y113030D01*
X979170Y113030D02*
X990129Y113030D01*
X979170Y113030D02*
X979170Y115570D01*
X1002030Y115570D01*
X1002030Y113030D01*
X990129Y113030D01*
X1029970Y113030D02*
X1040929Y113030D01*
X1029970Y113030D02*
X1029970Y115570D01*
X1052830Y115570D01*
X1052830Y113030D01*
X1040929Y113030D01*
X1080770Y113030D02*
X1091729Y113030D01*
X1080770Y113030D02*
X1080770Y115570D01*
X1103630Y115570D01*
X1103630Y113030D01*
X1091729Y113030D01*
X1131570Y113030D02*
X1142529Y113030D01*
X1131570Y113030D02*
X1131570Y115570D01*
X1154430Y115570D01*
X1154430Y113030D01*
X1142529Y113030D01*
X1182370Y113030D02*
X1193329Y113030D01*
X1182370Y113030D02*
X1182370Y115570D01*
X1205230Y115570D01*
X1205230Y113030D01*
X1193329Y113030D01*
X1233170Y113030D02*
X1244129Y113030D01*
X1233170Y113030D02*
X1233170Y115570D01*
X1256030Y115570D01*
X1256030Y113030D01*
X1244129Y113030D01*
X1283970Y113030D02*
X1295871Y113030D01*
X1283970Y113030D02*
X1283970Y115570D01*
X1306830Y115570D01*
X1306830Y113030D01*
X1295871Y113030D01*
X1334770Y113030D02*
X1345729Y113030D01*
X1334770Y113030D02*
X1334770Y115570D01*
X1357630Y115570D01*
X1357630Y113030D01*
X1345729Y113030D01*
X1385570Y113030D02*
X1396529Y113030D01*
X1385570Y113030D02*
X1385570Y115570D01*
X1408430Y115570D01*
X1408430Y113030D01*
X1396529Y113030D01*
X1436370Y113030D02*
X1447329Y113030D01*
X1436370Y113030D02*
X1436370Y115570D01*
X1459230Y115570D01*
X1459230Y113030D01*
X1447329Y113030D01*
X1487170Y113030D02*
X1498129Y113030D01*
X1487170Y113030D02*
X1487170Y115570D01*
X1510030Y115570D01*
X1510030Y113030D01*
X1498129Y113030D01*
X1537970Y113030D02*
X1548929Y113030D01*
X1537970Y113030D02*
X1537970Y115570D01*
X1560830Y115570D01*
X1560830Y113030D01*
X1548929Y113030D01*
X1588770Y113030D02*
X1599729Y113030D01*
X1588770Y113030D02*
X1588770Y115570D01*
X1611630Y115570D01*
X1611630Y113030D01*
X1599729Y113030D01*
X1639570Y113030D02*
X1651471Y113030D01*
X1639570Y113030D02*
X1639570Y115570D01*
X1662430Y115570D01*
X1662430Y113030D01*
X1651471Y113030D01*
X1690370Y113030D02*
X1701329Y113030D01*
X1690370Y113030D02*
X1690370Y115570D01*
X1713230Y115570D01*
X1713230Y113030D01*
X1701329Y113030D01*
X1741170Y113030D02*
X1752129Y113030D01*
X1741170Y113030D02*
X1741170Y115570D01*
X1764030Y115570D01*
X1764030Y113030D01*
X1752129Y113030D01*
X1791970Y113030D02*
X1802929Y113030D01*
X1791970Y113030D02*
X1791970Y115570D01*
X1814830Y115570D01*
X1814830Y113030D01*
X1802929Y113030D01*
X1842770Y113030D02*
X1854671Y113030D01*
X1842770Y113030D02*
X1842770Y115570D01*
X1865630Y115570D01*
X1865630Y113030D01*
X1854671Y113030D01*
X1829271Y113030D02*
X1817370Y113030D01*
X1817370Y115570D01*
X1840230Y115570D01*
X1840230Y113030D01*
X1829271Y113030D01*
X1777529Y113030D02*
X1766570Y113030D01*
X1766570Y115570D01*
X1789430Y115570D01*
X1789430Y113030D01*
X1777529Y113030D01*
X1726729Y113030D02*
X1715770Y113030D01*
X1715770Y115570D01*
X1738630Y115570D01*
X1738630Y113030D01*
X1726729Y113030D01*
X1675929Y113030D02*
X1664970Y113030D01*
X1664970Y115570D01*
X1687830Y115570D01*
X1687830Y113030D01*
X1675929Y113030D01*
X1625129Y113030D02*
X1614170Y113030D01*
X1614170Y115570D01*
X1637030Y115570D01*
X1637030Y113030D01*
X1625129Y113030D01*
X1574329Y113030D02*
X1563370Y113030D01*
X1563370Y115570D01*
X1586230Y115570D01*
X1586230Y113030D01*
X1574329Y113030D01*
X1523529Y113030D02*
X1512570Y113030D01*
X1512570Y115570D01*
X1535430Y115570D01*
X1535430Y113030D01*
X1523529Y113030D01*
X1473671Y113030D02*
X1461770Y113030D01*
X1461770Y115570D01*
X1484630Y115570D01*
X1484630Y113030D01*
X1473671Y113030D01*
X1421929Y113030D02*
X1410970Y113030D01*
X1410970Y115570D01*
X1433830Y115570D01*
X1433830Y113030D01*
X1421929Y113030D01*
X1371129Y113030D02*
X1360170Y113030D01*
X1360170Y115570D01*
X1383030Y115570D01*
X1383030Y113030D01*
X1371129Y113030D01*
X1320329Y113030D02*
X1309370Y113030D01*
X1309370Y115570D01*
X1332230Y115570D01*
X1332230Y113030D01*
X1320329Y113030D01*
X1269529Y113030D02*
X1258570Y113030D01*
X1258570Y115570D01*
X1281430Y115570D01*
X1281430Y113030D01*
X1269529Y113030D01*
X1218729Y113030D02*
X1207770Y113030D01*
X1207770Y115570D01*
X1230630Y115570D01*
X1230630Y113030D01*
X1218729Y113030D01*
X1167929Y113030D02*
X1156970Y113030D01*
X1156970Y115570D01*
X1179830Y115570D01*
X1179830Y113030D01*
X1167929Y113030D01*
X1118071Y113030D02*
X1106170Y113030D01*
X1106170Y115570D01*
X1129030Y115570D01*
X1129030Y113030D01*
X1118071Y113030D01*
X1066329Y113030D02*
X1055370Y113030D01*
X1055370Y115570D01*
X1078230Y115570D01*
X1078230Y113030D01*
X1066329Y113030D01*
X1015529Y113030D02*
X1004570Y113030D01*
X1004570Y115570D01*
X1027430Y115570D01*
X1027430Y113030D01*
X1015529Y113030D01*
X964729Y113030D02*
X953770Y113030D01*
X953770Y115570D01*
X976630Y115570D01*
X976630Y113030D01*
X964729Y113030D01*
X914871Y113030D02*
X902970Y113030D01*
X902970Y115570D01*
X925830Y115570D01*
X925830Y113030D01*
X914871Y113030D01*
X863129Y113030D02*
X852170Y113030D01*
X852170Y115570D01*
X875030Y115570D01*
X875030Y113030D01*
X863129Y113030D01*
X812329Y113030D02*
X801370Y113030D01*
X801370Y115570D01*
X824230Y115570D01*
X824230Y113030D01*
X812329Y113030D01*
X761529Y113030D02*
X750570Y113030D01*
X750570Y115570D01*
X773430Y115570D01*
X773430Y113030D01*
X761529Y113030D01*
X710729Y113030D02*
X699770Y113030D01*
X699770Y115570D01*
X722630Y115570D01*
X722630Y113030D01*
X710729Y113030D01*
X659929Y113030D02*
X648970Y113030D01*
X648970Y115570D01*
X671830Y115570D01*
X671830Y113030D01*
X659929Y113030D01*
X609129Y113030D02*
X598170Y113030D01*
X598170Y115570D01*
X621030Y115570D01*
X621030Y113030D01*
X609129Y113030D01*
X559271Y113030D02*
X547370Y113030D01*
X547370Y115570D01*
X570230Y115570D01*
X570230Y113030D01*
X559271Y113030D01*
X507529Y113030D02*
X496570Y113030D01*
X496570Y115570D01*
X519430Y115570D01*
X519430Y113030D01*
X507529Y113030D01*
X456729Y113030D02*
X445770Y113030D01*
X445770Y115570D01*
X468630Y115570D01*
X468630Y113030D01*
X456729Y113030D01*
X405929Y113030D02*
X394970Y113030D01*
X394970Y115570D01*
X417830Y115570D01*
X417830Y113030D01*
X405929Y113030D01*
X355129Y113030D02*
X344170Y113030D01*
X344170Y115570D01*
X367030Y115570D01*
X367030Y113030D01*
X355129Y113030D01*
X304329Y113030D02*
X293370Y113030D01*
X293370Y115570D01*
X316230Y115570D01*
X316230Y113030D01*
X304329Y113030D01*
X278929Y976630D02*
X267970Y976630D01*
X267970Y979170D01*
X290830Y979170D01*
X290830Y976630D01*
X278929Y976630D01*
X293370Y976630D02*
X305271Y976630D01*
X293370Y976630D02*
X293370Y979170D01*
X316230Y979170D01*
X316230Y976630D01*
X305271Y976630D01*
X318770Y976630D02*
X329729Y976630D01*
X318770Y976630D02*
X318770Y979170D01*
X341630Y979170D01*
X341630Y976630D01*
X329729Y976630D01*
X344170Y976630D02*
X355129Y976630D01*
X344170Y976630D02*
X344170Y979170D01*
X367030Y979170D01*
X367030Y976630D01*
X355129Y976630D01*
X369570Y976630D02*
X380529Y976630D01*
X369570Y976630D02*
X369570Y979170D01*
X392430Y979170D01*
X392430Y976630D01*
X380529Y976630D01*
X394970Y976630D02*
X405929Y976630D01*
X394970Y976630D02*
X394970Y979170D01*
X417830Y979170D01*
X417830Y976630D01*
X405929Y976630D01*
X420370Y976630D02*
X431329Y976630D01*
X420370Y976630D02*
X420370Y979170D01*
X443230Y979170D01*
X443230Y976630D01*
X431329Y976630D01*
X445770Y976630D02*
X456729Y976630D01*
X445770Y976630D02*
X445770Y979170D01*
X468630Y979170D01*
X468630Y976630D01*
X456729Y976630D01*
X471170Y976630D02*
X483071Y976630D01*
X471170Y976630D02*
X471170Y979170D01*
X494030Y979170D01*
X494030Y976630D01*
X483071Y976630D01*
X496570Y976630D02*
X507529Y976630D01*
X496570Y976630D02*
X496570Y979170D01*
X519430Y979170D01*
X519430Y976630D01*
X507529Y976630D01*
X521970Y976630D02*
X532929Y976630D01*
X521970Y976630D02*
X521970Y979170D01*
X544830Y979170D01*
X544830Y976630D01*
X532929Y976630D01*
X547370Y976630D02*
X558329Y976630D01*
X547370Y976630D02*
X547370Y979170D01*
X570230Y979170D01*
X570230Y976630D01*
X558329Y976630D01*
X572770Y976630D02*
X583729Y976630D01*
X572770Y976630D02*
X572770Y979170D01*
X595630Y979170D01*
X595630Y976630D01*
X583729Y976630D01*
X598170Y976630D02*
X609129Y976630D01*
X598170Y976630D02*
X598170Y979170D01*
X621030Y979170D01*
X621030Y976630D01*
X609129Y976630D01*
X623570Y976630D02*
X634529Y976630D01*
X623570Y976630D02*
X623570Y979170D01*
X646430Y979170D01*
X646430Y976630D01*
X634529Y976630D01*
X648970Y976630D02*
X660871Y976630D01*
X648970Y976630D02*
X648970Y979170D01*
X671830Y979170D01*
X671830Y976630D01*
X660871Y976630D01*
X674370Y976630D02*
X685329Y976630D01*
X674370Y976630D02*
X674370Y979170D01*
X697230Y979170D01*
X697230Y976630D01*
X685329Y976630D01*
X699770Y976630D02*
X710729Y976630D01*
X699770Y976630D02*
X699770Y979170D01*
X722630Y979170D01*
X722630Y976630D01*
X710729Y976630D01*
X725170Y976630D02*
X736129Y976630D01*
X725170Y976630D02*
X725170Y979170D01*
X748030Y979170D01*
X748030Y976630D01*
X736129Y976630D01*
X750570Y976630D02*
X761529Y976630D01*
X750570Y976630D02*
X750570Y979170D01*
X773430Y979170D01*
X773430Y976630D01*
X761529Y976630D01*
X775970Y976630D02*
X786929Y976630D01*
X775970Y976630D02*
X775970Y979170D01*
X798830Y979170D01*
X798830Y976630D01*
X786929Y976630D01*
X801370Y976630D02*
X812329Y976630D01*
X801370Y976630D02*
X801370Y979170D01*
X824230Y979170D01*
X824230Y976630D01*
X812329Y976630D01*
X826770Y976630D02*
X838671Y976630D01*
X826770Y976630D02*
X826770Y979170D01*
X849630Y979170D01*
X849630Y976630D01*
X838671Y976630D01*
X852170Y976630D02*
X863129Y976630D01*
X852170Y976630D02*
X852170Y979170D01*
X875030Y979170D01*
X875030Y976630D01*
X863129Y976630D01*
X877570Y976630D02*
X888529Y976630D01*
X877570Y976630D02*
X877570Y979170D01*
X900430Y979170D01*
X900430Y976630D01*
X888529Y976630D01*
X902970Y976630D02*
X913929Y976630D01*
X902970Y976630D02*
X902970Y979170D01*
X925830Y979170D01*
X925830Y976630D01*
X913929Y976630D01*
X928370Y976630D02*
X939329Y976630D01*
X928370Y976630D02*
X928370Y979170D01*
X951230Y979170D01*
X951230Y976630D01*
X939329Y976630D01*
X953770Y976630D02*
X964729Y976630D01*
X953770Y976630D02*
X953770Y979170D01*
X976630Y979170D01*
X976630Y976630D01*
X964729Y976630D01*
X979170Y976630D02*
X990129Y976630D01*
X979170Y976630D02*
X979170Y979170D01*
X1002030Y979170D01*
X1002030Y976630D01*
X990129Y976630D01*
X1004570Y976630D02*
X1016471Y976630D01*
X1004570Y976630D02*
X1004570Y979170D01*
X1027430Y979170D01*
X1027430Y976630D01*
X1016471Y976630D01*
X1029970Y976630D02*
X1041871Y976630D01*
X1029970Y976630D02*
X1029970Y979170D01*
X1052830Y979170D01*
X1052830Y976630D01*
X1041871Y976630D01*
X1055370Y976630D02*
X1066329Y976630D01*
X1055370Y976630D02*
X1055370Y979170D01*
X1078230Y979170D01*
X1078230Y976630D01*
X1066329Y976630D01*
X1080770Y976630D02*
X1091729Y976630D01*
X1080770Y976630D02*
X1080770Y979170D01*
X1103630Y979170D01*
X1103630Y976630D01*
X1091729Y976630D01*
X1106170Y976630D02*
X1117129Y976630D01*
X1106170Y976630D02*
X1106170Y979170D01*
X1129030Y979170D01*
X1129030Y976630D01*
X1117129Y976630D01*
X1131570Y976630D02*
X1142529Y976630D01*
X1131570Y976630D02*
X1131570Y979170D01*
X1154430Y979170D01*
X1154430Y976630D01*
X1142529Y976630D01*
X1156970Y976630D02*
X1167929Y976630D01*
X1156970Y976630D02*
X1156970Y979170D01*
X1179830Y979170D01*
X1179830Y976630D01*
X1167929Y976630D01*
X1182370Y976630D02*
X1193329Y976630D01*
X1182370Y976630D02*
X1182370Y979170D01*
X1205230Y979170D01*
X1205230Y976630D01*
X1193329Y976630D01*
X1207770Y976630D02*
X1219671Y976630D01*
X1207770Y976630D02*
X1207770Y979170D01*
X1230630Y979170D01*
X1230630Y976630D01*
X1219671Y976630D01*
X1233170Y976630D02*
X1244129Y976630D01*
X1233170Y976630D02*
X1233170Y979170D01*
X1256030Y979170D01*
X1256030Y976630D01*
X1244129Y976630D01*
X1258570Y976630D02*
X1269529Y976630D01*
X1258570Y976630D02*
X1258570Y979170D01*
X1281430Y979170D01*
X1281430Y976630D01*
X1269529Y976630D01*
X1283970Y976630D02*
X1294929Y976630D01*
X1283970Y976630D02*
X1283970Y979170D01*
X1306830Y979170D01*
X1306830Y976630D01*
X1294929Y976630D01*
X1309370Y976630D02*
X1320329Y976630D01*
X1309370Y976630D02*
X1309370Y979170D01*
X1332230Y979170D01*
X1332230Y976630D01*
X1320329Y976630D01*
X1334770Y976630D02*
X1345729Y976630D01*
X1334770Y976630D02*
X1334770Y979170D01*
X1357630Y979170D01*
X1357630Y976630D01*
X1345729Y976630D01*
X1360170Y976630D02*
X1371129Y976630D01*
X1360170Y976630D02*
X1360170Y979170D01*
X1383030Y979170D01*
X1383030Y976630D01*
X1371129Y976630D01*
X1385570Y976630D02*
X1397471Y976630D01*
X1385570Y976630D02*
X1385570Y979170D01*
X1408430Y979170D01*
X1408430Y976630D01*
X1397471Y976630D01*
X1410970Y976630D02*
X1421929Y976630D01*
X1410970Y976630D02*
X1410970Y979170D01*
X1433830Y979170D01*
X1433830Y976630D01*
X1421929Y976630D01*
X1436370Y976630D02*
X1447329Y976630D01*
X1436370Y976630D02*
X1436370Y979170D01*
X1459230Y979170D01*
X1459230Y976630D01*
X1447329Y976630D01*
X1461770Y976630D02*
X1472729Y976630D01*
X1461770Y976630D02*
X1461770Y979170D01*
X1484630Y979170D01*
X1484630Y976630D01*
X1472729Y976630D01*
X1487170Y976630D02*
X1498129Y976630D01*
X1487170Y976630D02*
X1487170Y979170D01*
X1510030Y979170D01*
X1510030Y976630D01*
X1498129Y976630D01*
X1512570Y976630D02*
X1523529Y976630D01*
X1512570Y976630D02*
X1512570Y979170D01*
X1535430Y979170D01*
X1535430Y976630D01*
X1523529Y976630D01*
X1537970Y976630D02*
X1548929Y976630D01*
X1537970Y976630D02*
X1537970Y979170D01*
X1560830Y979170D01*
X1560830Y976630D01*
X1548929Y976630D01*
X1563370Y976630D02*
X1575271Y976630D01*
X1563370Y976630D02*
X1563370Y979170D01*
X1586230Y979170D01*
X1586230Y976630D01*
X1575271Y976630D01*
X1588770Y976630D02*
X1599729Y976630D01*
X1588770Y976630D02*
X1588770Y979170D01*
X1611630Y979170D01*
X1611630Y976630D01*
X1599729Y976630D01*
X1614170Y976630D02*
X1625129Y976630D01*
X1614170Y976630D02*
X1614170Y979170D01*
X1637030Y979170D01*
X1637030Y976630D01*
X1625129Y976630D01*
X1639570Y976630D02*
X1650529Y976630D01*
X1639570Y976630D02*
X1639570Y979170D01*
X1662430Y979170D01*
X1662430Y976630D01*
X1650529Y976630D01*
X1664970Y976630D02*
X1675929Y976630D01*
X1664970Y976630D02*
X1664970Y979170D01*
X1687830Y979170D01*
X1687830Y976630D01*
X1675929Y976630D01*
X1690370Y976630D02*
X1701329Y976630D01*
X1690370Y976630D02*
X1690370Y979170D01*
X1713230Y979170D01*
X1713230Y976630D01*
X1701329Y976630D01*
X1715770Y976630D02*
X1726729Y976630D01*
X1715770Y976630D02*
X1715770Y979170D01*
X1738630Y979170D01*
X1738630Y976630D01*
X1726729Y976630D01*
X1741170Y976630D02*
X1753071Y976630D01*
X1741170Y976630D02*
X1741170Y979170D01*
X1764030Y979170D01*
X1764030Y976630D01*
X1753071Y976630D01*
X1766570Y976630D02*
X1777529Y976630D01*
X1766570Y976630D02*
X1766570Y979170D01*
X1789430Y979170D01*
X1789430Y976630D01*
X1777529Y976630D01*
X1791970Y976630D02*
X1802929Y976630D01*
X1791970Y976630D02*
X1791970Y979170D01*
X1814830Y979170D01*
X1814830Y976630D01*
X1802929Y976630D01*
X1817370Y976630D02*
X1828329Y976630D01*
X1817370Y976630D02*
X1817370Y979170D01*
X1840230Y979170D01*
X1840230Y976630D01*
X1828329Y976630D01*
X1842770Y976630D02*
X1853729Y976630D01*
X1842770Y976630D02*
X1842770Y979170D01*
X1865630Y979170D01*
X1865630Y976630D01*
X1853729Y976630D01*
X2027301Y2027301D02*
X4699Y2027301D01*
X2027301Y2027301D02*
X2027301Y4699D01*
X4699Y4699D01*
X4699Y2027301D01*
X128270Y386715D02*
X128270Y356870D01*
X125730Y356870D01*
X125730Y386715D01*
X125253Y386715D01*
X121780Y386324D01*
X118373Y385546D01*
X115074Y384392D01*
X111925Y382875D01*
X108966Y381016D01*
X106234Y378837D01*
X103763Y376366D01*
X101584Y373634D01*
X99725Y370675D01*
X98208Y367526D01*
X97054Y364227D01*
X96276Y360820D01*
X95885Y357347D01*
X95885Y356870D01*
X125730Y356870D01*
X125730Y354330D01*
X95885Y354330D01*
X95885Y353853D01*
X96276Y350380D01*
X97054Y346973D01*
X98208Y343674D01*
X99725Y340525D01*
X101584Y337566D01*
X103763Y334834D01*
X106234Y332363D01*
X108966Y330184D01*
X111925Y328325D01*
X115074Y326808D01*
X118373Y325654D01*
X121780Y324876D01*
X125253Y324485D01*
X125730Y324485D01*
X125730Y354330D01*
X128270Y354330D01*
X128270Y324485D01*
X128747Y324485D01*
X132220Y324876D01*
X135627Y325654D01*
X138926Y326808D01*
X142075Y328325D01*
X145034Y330184D01*
X147766Y332363D01*
X150237Y334834D01*
X152416Y337566D01*
X154275Y340525D01*
X155792Y343674D01*
X156946Y346973D01*
X157724Y350380D01*
X158115Y353853D01*
X158115Y354330D01*
X128270Y354330D01*
X128270Y356870D01*
X158115Y356870D01*
X158115Y357347D01*
X157724Y360820D01*
X156946Y364227D01*
X155792Y367526D01*
X154275Y370675D01*
X152416Y373634D01*
X150237Y376366D01*
X147766Y378837D01*
X145034Y381016D01*
X142075Y382875D01*
X138926Y384392D01*
X135627Y385546D01*
X132220Y386324D01*
X128747Y386715D01*
X128270Y386715D01*
X1897888Y861285D02*
X1897888Y865915D01*
X1894615Y869188D01*
X238985Y869188D01*
X235712Y865915D01*
X235712Y531085D01*
X238985Y527812D01*
X1894615Y527812D01*
X1897888Y531085D01*
X1897888Y535715D01*
X1897888Y861285D01*
X1897888Y1729515D02*
X1894615Y1732788D01*
X238985Y1732788D01*
X235712Y1729515D01*
X235712Y1394685D01*
X238985Y1391412D01*
X1894615Y1391412D01*
X1897888Y1394685D01*
X1897888Y1399315D01*
X1897888Y1729515D01*
X1873823Y103004D02*
X1871970Y102060D01*
X1873823Y103004D02*
X1875504Y104226D01*
X1876974Y105696D01*
X1878196Y107377D01*
X1879140Y109230D01*
X1879783Y111207D01*
X1880071Y113030D01*
X1868170Y113030D01*
X1868170Y115570D01*
X1880071Y115570D01*
X1879783Y117393D01*
X1879140Y119370D01*
X1878196Y121223D01*
X1876974Y122904D01*
X1875504Y124374D01*
X1873823Y125596D01*
X1871970Y126540D01*
X1871410Y126722D01*
X1874669Y128072D01*
X1878528Y131931D01*
X1880616Y136972D01*
X1880616Y142428D01*
X1878528Y147469D01*
X1874669Y151328D01*
X1869628Y153416D01*
X1864172Y153416D01*
X1859131Y151328D01*
X1856901Y149098D01*
X1851499Y149098D01*
X1849269Y151328D01*
X1844228Y153416D01*
X1838772Y153416D01*
X1833731Y151328D01*
X1831501Y149098D01*
X1826099Y149098D01*
X1823869Y151328D01*
X1818828Y153416D01*
X1813372Y153416D01*
X1808331Y151328D01*
X1806101Y149098D01*
X1800699Y149098D01*
X1798469Y151328D01*
X1793428Y153416D01*
X1787972Y153416D01*
X1782931Y151328D01*
X1780701Y149098D01*
X1775299Y149098D01*
X1773069Y151328D01*
X1768028Y153416D01*
X1762572Y153416D01*
X1757531Y151328D01*
X1755301Y149098D01*
X1749899Y149098D01*
X1747669Y151328D01*
X1742628Y153416D01*
X1737172Y153416D01*
X1732131Y151328D01*
X1729901Y149098D01*
X1724499Y149098D01*
X1722269Y151328D01*
X1717228Y153416D01*
X1711772Y153416D01*
X1706731Y151328D01*
X1704501Y149098D01*
X1699099Y149098D01*
X1696869Y151328D01*
X1691828Y153416D01*
X1686372Y153416D01*
X1681331Y151328D01*
X1679101Y149098D01*
X1673699Y149098D01*
X1671469Y151328D01*
X1666428Y153416D01*
X1660972Y153416D01*
X1655931Y151328D01*
X1653701Y149098D01*
X1648299Y149098D01*
X1646069Y151328D01*
X1641028Y153416D01*
X1635572Y153416D01*
X1630531Y151328D01*
X1628301Y149098D01*
X1622899Y149098D01*
X1620669Y151328D01*
X1615628Y153416D01*
X1610172Y153416D01*
X1605131Y151328D01*
X1602901Y149098D01*
X1597499Y149098D01*
X1595269Y151328D01*
X1590228Y153416D01*
X1584772Y153416D01*
X1579731Y151328D01*
X1577501Y149098D01*
X1572099Y149098D01*
X1569869Y151328D01*
X1564828Y153416D01*
X1559372Y153416D01*
X1554331Y151328D01*
X1552101Y149098D01*
X1546699Y149098D01*
X1544469Y151328D01*
X1539428Y153416D01*
X1533972Y153416D01*
X1528931Y151328D01*
X1526701Y149098D01*
X1521299Y149098D01*
X1519069Y151328D01*
X1514028Y153416D01*
X1508572Y153416D01*
X1503531Y151328D01*
X1501301Y149098D01*
X1495899Y149098D01*
X1493669Y151328D01*
X1488628Y153416D01*
X1483172Y153416D01*
X1478131Y151328D01*
X1475901Y149098D01*
X1470499Y149098D01*
X1468269Y151328D01*
X1463228Y153416D01*
X1457772Y153416D01*
X1452731Y151328D01*
X1450501Y149098D01*
X1445099Y149098D01*
X1442869Y151328D01*
X1437828Y153416D01*
X1432372Y153416D01*
X1427331Y151328D01*
X1425101Y149098D01*
X1419699Y149098D01*
X1417469Y151328D01*
X1412428Y153416D01*
X1406972Y153416D01*
X1401931Y151328D01*
X1399701Y149098D01*
X1394299Y149098D01*
X1392069Y151328D01*
X1387028Y153416D01*
X1381572Y153416D01*
X1376531Y151328D01*
X1374301Y149098D01*
X1368899Y149098D01*
X1366669Y151328D01*
X1361628Y153416D01*
X1356172Y153416D01*
X1351131Y151328D01*
X1348901Y149098D01*
X1343499Y149098D01*
X1341269Y151328D01*
X1336228Y153416D01*
X1330772Y153416D01*
X1325731Y151328D01*
X1323501Y149098D01*
X1318099Y149098D01*
X1315869Y151328D01*
X1310828Y153416D01*
X1305372Y153416D01*
X1300331Y151328D01*
X1298101Y149098D01*
X1292699Y149098D01*
X1290469Y151328D01*
X1285428Y153416D01*
X1279972Y153416D01*
X1274931Y151328D01*
X1272701Y149098D01*
X1267299Y149098D01*
X1265069Y151328D01*
X1260028Y153416D01*
X1254572Y153416D01*
X1249531Y151328D01*
X1247301Y149098D01*
X1241899Y149098D01*
X1239669Y151328D01*
X1234628Y153416D01*
X1229172Y153416D01*
X1224131Y151328D01*
X1221901Y149098D01*
X1216499Y149098D01*
X1214269Y151328D01*
X1209228Y153416D01*
X1203772Y153416D01*
X1198731Y151328D01*
X1196501Y149098D01*
X1191099Y149098D01*
X1188869Y151328D01*
X1183828Y153416D01*
X1178372Y153416D01*
X1173331Y151328D01*
X1171101Y149098D01*
X1165699Y149098D01*
X1163469Y151328D01*
X1158428Y153416D01*
X1152972Y153416D01*
X1147931Y151328D01*
X1145701Y149098D01*
X1140299Y149098D01*
X1138069Y151328D01*
X1133028Y153416D01*
X1127572Y153416D01*
X1122531Y151328D01*
X1120301Y149098D01*
X1114899Y149098D01*
X1112669Y151328D01*
X1107628Y153416D01*
X1102172Y153416D01*
X1097131Y151328D01*
X1094901Y149098D01*
X1089499Y149098D01*
X1087269Y151328D01*
X1082228Y153416D01*
X1076772Y153416D01*
X1071731Y151328D01*
X1069501Y149098D01*
X1064099Y149098D01*
X1061869Y151328D01*
X1056828Y153416D01*
X1051372Y153416D01*
X1046331Y151328D01*
X1044101Y149098D01*
X1038699Y149098D01*
X1036469Y151328D01*
X1031428Y153416D01*
X1025972Y153416D01*
X1020931Y151328D01*
X1018701Y149098D01*
X1013299Y149098D01*
X1011069Y151328D01*
X1006028Y153416D01*
X1000572Y153416D01*
X995531Y151328D01*
X993301Y149098D01*
X987899Y149098D01*
X985669Y151328D01*
X980628Y153416D01*
X975172Y153416D01*
X970131Y151328D01*
X967901Y149098D01*
X962499Y149098D01*
X960269Y151328D01*
X955228Y153416D01*
X949772Y153416D01*
X944731Y151328D01*
X942501Y149098D01*
X937099Y149098D01*
X934869Y151328D01*
X929828Y153416D01*
X924372Y153416D01*
X919331Y151328D01*
X917101Y149098D01*
X911699Y149098D01*
X909469Y151328D01*
X904428Y153416D01*
X898972Y153416D01*
X893931Y151328D01*
X891701Y149098D01*
X886299Y149098D01*
X884069Y151328D01*
X879028Y153416D01*
X873572Y153416D01*
X868531Y151328D01*
X866301Y149098D01*
X860899Y149098D01*
X858669Y151328D01*
X853628Y153416D01*
X848172Y153416D01*
X843131Y151328D01*
X840901Y149098D01*
X835499Y149098D01*
X833269Y151328D01*
X828228Y153416D01*
X822772Y153416D01*
X817731Y151328D01*
X815501Y149098D01*
X810099Y149098D01*
X807869Y151328D01*
X802828Y153416D01*
X797372Y153416D01*
X792331Y151328D01*
X790101Y149098D01*
X784699Y149098D01*
X782469Y151328D01*
X777428Y153416D01*
X771972Y153416D01*
X766931Y151328D01*
X764701Y149098D01*
X759299Y149098D01*
X757069Y151328D01*
X752028Y153416D01*
X746572Y153416D01*
X741531Y151328D01*
X739301Y149098D01*
X733899Y149098D01*
X731669Y151328D01*
X726628Y153416D01*
X721172Y153416D01*
X716131Y151328D01*
X713901Y149098D01*
X708499Y149098D01*
X706269Y151328D01*
X701228Y153416D01*
X695772Y153416D01*
X690731Y151328D01*
X688501Y149098D01*
X683099Y149098D01*
X680869Y151328D01*
X675828Y153416D01*
X670372Y153416D01*
X665331Y151328D01*
X663101Y149098D01*
X657699Y149098D01*
X655469Y151328D01*
X650428Y153416D01*
X644972Y153416D01*
X639931Y151328D01*
X637701Y149098D01*
X632299Y149098D01*
X630069Y151328D01*
X625028Y153416D01*
X619572Y153416D01*
X614531Y151328D01*
X612301Y149098D01*
X606899Y149098D01*
X604669Y151328D01*
X599628Y153416D01*
X594172Y153416D01*
X589131Y151328D01*
X586901Y149098D01*
X581499Y149098D01*
X579269Y151328D01*
X574228Y153416D01*
X568772Y153416D01*
X563731Y151328D01*
X561501Y149098D01*
X556099Y149098D01*
X553869Y151328D01*
X548828Y153416D01*
X543372Y153416D01*
X538331Y151328D01*
X536101Y149098D01*
X530699Y149098D01*
X528469Y151328D01*
X523428Y153416D01*
X517972Y153416D01*
X512931Y151328D01*
X510701Y149098D01*
X505299Y149098D01*
X503069Y151328D01*
X498028Y153416D01*
X492572Y153416D01*
X487531Y151328D01*
X485301Y149098D01*
X479899Y149098D01*
X477669Y151328D01*
X472628Y153416D01*
X467172Y153416D01*
X462131Y151328D01*
X459901Y149098D01*
X454499Y149098D01*
X452269Y151328D01*
X447228Y153416D01*
X441772Y153416D01*
X436731Y151328D01*
X434501Y149098D01*
X429099Y149098D01*
X426869Y151328D01*
X421828Y153416D01*
X416372Y153416D01*
X411331Y151328D01*
X409101Y149098D01*
X403699Y149098D01*
X401469Y151328D01*
X396428Y153416D01*
X390972Y153416D01*
X385931Y151328D01*
X383701Y149098D01*
X378299Y149098D01*
X376069Y151328D01*
X371028Y153416D01*
X365572Y153416D01*
X360531Y151328D01*
X358301Y149098D01*
X352899Y149098D01*
X350669Y151328D01*
X345628Y153416D01*
X340172Y153416D01*
X335131Y151328D01*
X332901Y149098D01*
X327499Y149098D01*
X325269Y151328D01*
X320228Y153416D01*
X314772Y153416D01*
X309731Y151328D01*
X307501Y149098D01*
X302099Y149098D01*
X299869Y151328D01*
X294828Y153416D01*
X289372Y153416D01*
X284331Y151328D01*
X282101Y149098D01*
X276699Y149098D01*
X274469Y151328D01*
X269428Y153416D01*
X263972Y153416D01*
X258931Y151328D01*
X256701Y149098D01*
X245193Y149098D01*
X225298Y168993D01*
X225298Y408269D01*
X223867Y411724D01*
X221224Y414367D01*
X155014Y480576D01*
X156468Y483094D01*
X158623Y491137D01*
X158623Y499463D01*
X156468Y507506D01*
X152305Y514717D01*
X146417Y520605D01*
X139206Y524768D01*
X131163Y526923D01*
X122837Y526923D01*
X114794Y524768D01*
X107583Y520605D01*
X101695Y514717D01*
X97532Y507506D01*
X95377Y499463D01*
X95377Y491137D01*
X97532Y483094D01*
X101695Y475883D01*
X107583Y469995D01*
X114794Y465832D01*
X122837Y463677D01*
X131163Y463677D01*
X139206Y465832D01*
X141724Y467286D01*
X206502Y402507D01*
X206502Y163231D01*
X207933Y159776D01*
X235976Y131733D01*
X239431Y130302D01*
X256701Y130302D01*
X258931Y128072D01*
X262190Y126722D01*
X261630Y126540D01*
X259777Y125596D01*
X258096Y124374D01*
X256626Y122904D01*
X255404Y121223D01*
X254460Y119370D01*
X253817Y117393D01*
X253529Y115570D01*
X265430Y115570D01*
X265430Y113030D01*
X253529Y113030D01*
X253817Y111207D01*
X254460Y109230D01*
X255404Y107377D01*
X256626Y105696D01*
X258096Y104226D01*
X259777Y103004D01*
X261630Y102060D01*
X262190Y101878D01*
X258931Y100528D01*
X256701Y98298D01*
X219793Y98298D01*
X136398Y181693D01*
X136398Y185680D01*
X139206Y186432D01*
X146417Y190595D01*
X152305Y196483D01*
X156468Y203694D01*
X158623Y211737D01*
X158623Y220063D01*
X156468Y228106D01*
X152305Y235317D01*
X146417Y241205D01*
X139206Y245368D01*
X131163Y247523D01*
X122837Y247523D01*
X114794Y245368D01*
X107583Y241205D01*
X101695Y235317D01*
X97532Y228106D01*
X95377Y220063D01*
X95377Y211737D01*
X97532Y203694D01*
X101695Y196483D01*
X107583Y190595D01*
X114794Y186432D01*
X117602Y185680D01*
X117602Y175931D01*
X119033Y172476D01*
X207933Y83576D01*
X210576Y80933D01*
X214031Y79502D01*
X256701Y79502D01*
X258931Y77272D01*
X263972Y75184D01*
X269428Y75184D01*
X274469Y77272D01*
X276699Y79502D01*
X282101Y79502D01*
X284331Y77272D01*
X289372Y75184D01*
X294828Y75184D01*
X299869Y77272D01*
X302099Y79502D01*
X307501Y79502D01*
X309731Y77272D01*
X314772Y75184D01*
X320228Y75184D01*
X325269Y77272D01*
X327499Y79502D01*
X332901Y79502D01*
X335131Y77272D01*
X340172Y75184D01*
X345628Y75184D01*
X350669Y77272D01*
X352899Y79502D01*
X358301Y79502D01*
X360531Y77272D01*
X365572Y75184D01*
X371028Y75184D01*
X376069Y77272D01*
X378299Y79502D01*
X383701Y79502D01*
X385931Y77272D01*
X390972Y75184D01*
X396428Y75184D01*
X401469Y77272D01*
X403699Y79502D01*
X409101Y79502D01*
X411331Y77272D01*
X416372Y75184D01*
X421828Y75184D01*
X426869Y77272D01*
X429099Y79502D01*
X434501Y79502D01*
X436731Y77272D01*
X441772Y75184D01*
X447228Y75184D01*
X452269Y77272D01*
X454499Y79502D01*
X459901Y79502D01*
X462131Y77272D01*
X467172Y75184D01*
X472628Y75184D01*
X477669Y77272D01*
X479899Y79502D01*
X485301Y79502D01*
X487531Y77272D01*
X492572Y75184D01*
X498028Y75184D01*
X503069Y77272D01*
X505299Y79502D01*
X510701Y79502D01*
X512931Y77272D01*
X517972Y75184D01*
X523428Y75184D01*
X528469Y77272D01*
X530699Y79502D01*
X536101Y79502D01*
X538331Y77272D01*
X543372Y75184D01*
X548828Y75184D01*
X553869Y77272D01*
X556099Y79502D01*
X561501Y79502D01*
X563731Y77272D01*
X568772Y75184D01*
X574228Y75184D01*
X579269Y77272D01*
X581499Y79502D01*
X586901Y79502D01*
X589131Y77272D01*
X594172Y75184D01*
X599628Y75184D01*
X604669Y77272D01*
X606899Y79502D01*
X612301Y79502D01*
X614531Y77272D01*
X619572Y75184D01*
X625028Y75184D01*
X630069Y77272D01*
X632299Y79502D01*
X637701Y79502D01*
X639931Y77272D01*
X644972Y75184D01*
X650428Y75184D01*
X655469Y77272D01*
X657699Y79502D01*
X663101Y79502D01*
X665331Y77272D01*
X670372Y75184D01*
X675828Y75184D01*
X680869Y77272D01*
X683099Y79502D01*
X688501Y79502D01*
X690731Y77272D01*
X695772Y75184D01*
X701228Y75184D01*
X706269Y77272D01*
X708499Y79502D01*
X713901Y79502D01*
X716131Y77272D01*
X721172Y75184D01*
X726628Y75184D01*
X731669Y77272D01*
X733899Y79502D01*
X739301Y79502D01*
X741531Y77272D01*
X746572Y75184D01*
X752028Y75184D01*
X757069Y77272D01*
X759299Y79502D01*
X764701Y79502D01*
X766931Y77272D01*
X771972Y75184D01*
X777428Y75184D01*
X782469Y77272D01*
X784699Y79502D01*
X790101Y79502D01*
X792331Y77272D01*
X797372Y75184D01*
X802828Y75184D01*
X807869Y77272D01*
X810099Y79502D01*
X815501Y79502D01*
X817731Y77272D01*
X822772Y75184D01*
X828228Y75184D01*
X833269Y77272D01*
X835499Y79502D01*
X840901Y79502D01*
X843131Y77272D01*
X848172Y75184D01*
X853628Y75184D01*
X858669Y77272D01*
X860899Y79502D01*
X866301Y79502D01*
X868531Y77272D01*
X873572Y75184D01*
X879028Y75184D01*
X884069Y77272D01*
X886299Y79502D01*
X891701Y79502D01*
X893931Y77272D01*
X898972Y75184D01*
X904428Y75184D01*
X909469Y77272D01*
X911699Y79502D01*
X917101Y79502D01*
X919331Y77272D01*
X924372Y75184D01*
X929828Y75184D01*
X934869Y77272D01*
X937099Y79502D01*
X942501Y79502D01*
X944731Y77272D01*
X949772Y75184D01*
X955228Y75184D01*
X960269Y77272D01*
X962499Y79502D01*
X967901Y79502D01*
X970131Y77272D01*
X975172Y75184D01*
X980628Y75184D01*
X985669Y77272D01*
X987899Y79502D01*
X993301Y79502D01*
X995531Y77272D01*
X1000572Y75184D01*
X1006028Y75184D01*
X1011069Y77272D01*
X1013299Y79502D01*
X1018701Y79502D01*
X1020931Y77272D01*
X1025972Y75184D01*
X1031428Y75184D01*
X1036469Y77272D01*
X1038699Y79502D01*
X1044101Y79502D01*
X1046331Y77272D01*
X1051372Y75184D01*
X1056828Y75184D01*
X1061869Y77272D01*
X1064099Y79502D01*
X1069501Y79502D01*
X1071731Y77272D01*
X1076772Y75184D01*
X1082228Y75184D01*
X1087269Y77272D01*
X1089499Y79502D01*
X1094901Y79502D01*
X1097131Y77272D01*
X1102172Y75184D01*
X1107628Y75184D01*
X1112669Y77272D01*
X1114899Y79502D01*
X1120301Y79502D01*
X1122531Y77272D01*
X1127572Y75184D01*
X1133028Y75184D01*
X1138069Y77272D01*
X1140299Y79502D01*
X1145701Y79502D01*
X1147931Y77272D01*
X1152972Y75184D01*
X1158428Y75184D01*
X1163469Y77272D01*
X1165699Y79502D01*
X1171101Y79502D01*
X1173331Y77272D01*
X1178372Y75184D01*
X1183828Y75184D01*
X1188869Y77272D01*
X1191099Y79502D01*
X1196501Y79502D01*
X1198731Y77272D01*
X1203772Y75184D01*
X1209228Y75184D01*
X1214269Y77272D01*
X1216499Y79502D01*
X1221901Y79502D01*
X1224131Y77272D01*
X1229172Y75184D01*
X1234628Y75184D01*
X1239669Y77272D01*
X1241899Y79502D01*
X1247301Y79502D01*
X1249531Y77272D01*
X1254572Y75184D01*
X1260028Y75184D01*
X1265069Y77272D01*
X1267299Y79502D01*
X1272701Y79502D01*
X1274931Y77272D01*
X1279972Y75184D01*
X1285428Y75184D01*
X1290469Y77272D01*
X1292699Y79502D01*
X1298101Y79502D01*
X1300331Y77272D01*
X1305372Y75184D01*
X1310828Y75184D01*
X1315869Y77272D01*
X1318099Y79502D01*
X1323501Y79502D01*
X1325731Y77272D01*
X1330772Y75184D01*
X1336228Y75184D01*
X1341269Y77272D01*
X1343499Y79502D01*
X1348901Y79502D01*
X1351131Y77272D01*
X1356172Y75184D01*
X1361628Y75184D01*
X1366669Y77272D01*
X1368899Y79502D01*
X1374301Y79502D01*
X1376531Y77272D01*
X1381572Y75184D01*
X1387028Y75184D01*
X1392069Y77272D01*
X1394299Y79502D01*
X1399701Y79502D01*
X1401931Y77272D01*
X1406972Y75184D01*
X1412428Y75184D01*
X1417469Y77272D01*
X1419699Y79502D01*
X1425101Y79502D01*
X1427331Y77272D01*
X1432372Y75184D01*
X1437828Y75184D01*
X1442869Y77272D01*
X1445099Y79502D01*
X1450501Y79502D01*
X1452731Y77272D01*
X1457772Y75184D01*
X1463228Y75184D01*
X1468269Y77272D01*
X1470499Y79502D01*
X1475901Y79502D01*
X1478131Y77272D01*
X1483172Y75184D01*
X1488628Y75184D01*
X1493669Y77272D01*
X1495899Y79502D01*
X1501301Y79502D01*
X1503531Y77272D01*
X1508572Y75184D01*
X1514028Y75184D01*
X1519069Y77272D01*
X1521299Y79502D01*
X1526701Y79502D01*
X1528931Y77272D01*
X1533972Y75184D01*
X1539428Y75184D01*
X1544469Y77272D01*
X1546699Y79502D01*
X1552101Y79502D01*
X1554331Y77272D01*
X1559372Y75184D01*
X1564828Y75184D01*
X1569869Y77272D01*
X1572099Y79502D01*
X1577501Y79502D01*
X1579731Y77272D01*
X1584772Y75184D01*
X1590228Y75184D01*
X1595269Y77272D01*
X1597499Y79502D01*
X1602901Y79502D01*
X1605131Y77272D01*
X1610172Y75184D01*
X1615628Y75184D01*
X1620669Y77272D01*
X1622899Y79502D01*
X1628301Y79502D01*
X1630531Y77272D01*
X1635572Y75184D01*
X1641028Y75184D01*
X1646069Y77272D01*
X1648299Y79502D01*
X1653701Y79502D01*
X1655931Y77272D01*
X1660972Y75184D01*
X1666428Y75184D01*
X1671469Y77272D01*
X1673699Y79502D01*
X1679101Y79502D01*
X1681331Y77272D01*
X1686372Y75184D01*
X1691828Y75184D01*
X1696869Y77272D01*
X1699099Y79502D01*
X1704501Y79502D01*
X1706731Y77272D01*
X1711772Y75184D01*
X1717228Y75184D01*
X1722269Y77272D01*
X1724499Y79502D01*
X1729901Y79502D01*
X1732131Y77272D01*
X1737172Y75184D01*
X1742628Y75184D01*
X1747669Y77272D01*
X1749899Y79502D01*
X1755301Y79502D01*
X1757531Y77272D01*
X1762572Y75184D01*
X1768028Y75184D01*
X1773069Y77272D01*
X1775299Y79502D01*
X1780701Y79502D01*
X1782931Y77272D01*
X1787972Y75184D01*
X1793428Y75184D01*
X1798469Y77272D01*
X1800699Y79502D01*
X1806101Y79502D01*
X1808331Y77272D01*
X1813372Y75184D01*
X1818828Y75184D01*
X1823869Y77272D01*
X1826099Y79502D01*
X1831501Y79502D01*
X1833731Y77272D01*
X1838772Y75184D01*
X1844228Y75184D01*
X1849269Y77272D01*
X1851499Y79502D01*
X1856901Y79502D01*
X1859131Y77272D01*
X1864172Y75184D01*
X1869628Y75184D01*
X1874669Y77272D01*
X1878528Y81131D01*
X1880616Y86172D01*
X1880616Y91628D01*
X1878528Y96669D01*
X1874669Y100528D01*
X1871410Y101878D01*
X1871970Y102060D01*
X128270Y1220470D02*
X128270Y1250315D01*
X128270Y1220470D02*
X125730Y1220470D01*
X125730Y1250315D01*
X125253Y1250315D01*
X121780Y1249924D01*
X118373Y1249146D01*
X115074Y1247992D01*
X111925Y1246475D01*
X108966Y1244616D01*
X106234Y1242437D01*
X103763Y1239966D01*
X101584Y1237234D01*
X99725Y1234275D01*
X98208Y1231126D01*
X97054Y1227827D01*
X96276Y1224420D01*
X95885Y1220947D01*
X95885Y1220470D01*
X125730Y1220470D01*
X125730Y1217930D01*
X95885Y1217930D01*
X95885Y1217453D01*
X96276Y1213980D01*
X97054Y1210573D01*
X98208Y1207274D01*
X99725Y1204125D01*
X101584Y1201166D01*
X103763Y1198434D01*
X106234Y1195963D01*
X108966Y1193784D01*
X111925Y1191925D01*
X115074Y1190408D01*
X118373Y1189254D01*
X121780Y1188476D01*
X125253Y1188085D01*
X125730Y1188085D01*
X125730Y1217930D01*
X128270Y1217930D01*
X128270Y1188085D01*
X128747Y1188085D01*
X132220Y1188476D01*
X135627Y1189254D01*
X138926Y1190408D01*
X142075Y1191925D01*
X145034Y1193784D01*
X147766Y1195963D01*
X150237Y1198434D01*
X152416Y1201166D01*
X154275Y1204125D01*
X155792Y1207274D01*
X156946Y1210573D01*
X157724Y1213980D01*
X158115Y1217453D01*
X158115Y1217930D01*
X128270Y1217930D01*
X128270Y1220470D01*
X158115Y1220470D01*
X158115Y1220947D01*
X157724Y1224420D01*
X156946Y1227827D01*
X155792Y1231126D01*
X154275Y1234275D01*
X152416Y1237234D01*
X150237Y1239966D01*
X147766Y1242437D01*
X145034Y1244616D01*
X142075Y1246475D01*
X138926Y1247992D01*
X135627Y1249146D01*
X132220Y1249924D01*
X128747Y1250315D01*
X128270Y1250315D01*
X158623Y1083663D02*
X158623Y1075337D01*
X158623Y1083663D02*
X156468Y1091706D01*
X152305Y1098917D01*
X146417Y1104805D01*
X139206Y1108968D01*
X131163Y1111123D01*
X122837Y1111123D01*
X114794Y1108968D01*
X107583Y1104805D01*
X101695Y1098917D01*
X97532Y1091706D01*
X95377Y1083663D01*
X95377Y1075337D01*
X97532Y1067294D01*
X101695Y1060083D01*
X107583Y1054195D01*
X114794Y1050032D01*
X117602Y1049280D01*
X117602Y1039531D01*
X119033Y1036076D01*
X207933Y947176D01*
X210576Y944533D01*
X214031Y943102D01*
X256701Y943102D01*
X258931Y940872D01*
X263972Y938784D01*
X269428Y938784D01*
X274469Y940872D01*
X276699Y943102D01*
X282101Y943102D01*
X284331Y940872D01*
X289372Y938784D01*
X294828Y938784D01*
X299869Y940872D01*
X302099Y943102D01*
X307501Y943102D01*
X309731Y940872D01*
X314772Y938784D01*
X320228Y938784D01*
X325269Y940872D01*
X327499Y943102D01*
X332901Y943102D01*
X335131Y940872D01*
X340172Y938784D01*
X345628Y938784D01*
X350669Y940872D01*
X352899Y943102D01*
X358301Y943102D01*
X360531Y940872D01*
X365572Y938784D01*
X371028Y938784D01*
X376069Y940872D01*
X378299Y943102D01*
X383701Y943102D01*
X385931Y940872D01*
X390972Y938784D01*
X396428Y938784D01*
X401469Y940872D01*
X403699Y943102D01*
X409101Y943102D01*
X411331Y940872D01*
X416372Y938784D01*
X421828Y938784D01*
X426869Y940872D01*
X429099Y943102D01*
X434501Y943102D01*
X436731Y940872D01*
X441772Y938784D01*
X447228Y938784D01*
X452269Y940872D01*
X454499Y943102D01*
X459901Y943102D01*
X462131Y940872D01*
X467172Y938784D01*
X472628Y938784D01*
X477669Y940872D01*
X479899Y943102D01*
X485301Y943102D01*
X487531Y940872D01*
X492572Y938784D01*
X498028Y938784D01*
X503069Y940872D01*
X505299Y943102D01*
X510701Y943102D01*
X512931Y940872D01*
X517972Y938784D01*
X523428Y938784D01*
X528469Y940872D01*
X530699Y943102D01*
X536101Y943102D01*
X538331Y940872D01*
X543372Y938784D01*
X548828Y938784D01*
X553869Y940872D01*
X556099Y943102D01*
X561501Y943102D01*
X563731Y940872D01*
X568772Y938784D01*
X574228Y938784D01*
X579269Y940872D01*
X581499Y943102D01*
X586901Y943102D01*
X589131Y940872D01*
X594172Y938784D01*
X599628Y938784D01*
X604669Y940872D01*
X606899Y943102D01*
X612301Y943102D01*
X614531Y940872D01*
X619572Y938784D01*
X625028Y938784D01*
X630069Y940872D01*
X632299Y943102D01*
X637701Y943102D01*
X639931Y940872D01*
X644972Y938784D01*
X650428Y938784D01*
X655469Y940872D01*
X657699Y943102D01*
X663101Y943102D01*
X665331Y940872D01*
X670372Y938784D01*
X675828Y938784D01*
X680869Y940872D01*
X683099Y943102D01*
X688501Y943102D01*
X690731Y940872D01*
X695772Y938784D01*
X701228Y938784D01*
X706269Y940872D01*
X708499Y943102D01*
X713901Y943102D01*
X716131Y940872D01*
X721172Y938784D01*
X726628Y938784D01*
X731669Y940872D01*
X733899Y943102D01*
X739301Y943102D01*
X741531Y940872D01*
X746572Y938784D01*
X752028Y938784D01*
X757069Y940872D01*
X759299Y943102D01*
X764701Y943102D01*
X766931Y940872D01*
X771972Y938784D01*
X777428Y938784D01*
X782469Y940872D01*
X784699Y943102D01*
X790101Y943102D01*
X792331Y940872D01*
X797372Y938784D01*
X802828Y938784D01*
X807869Y940872D01*
X810099Y943102D01*
X815501Y943102D01*
X817731Y940872D01*
X822772Y938784D01*
X828228Y938784D01*
X833269Y940872D01*
X835499Y943102D01*
X840901Y943102D01*
X843131Y940872D01*
X848172Y938784D01*
X853628Y938784D01*
X858669Y940872D01*
X860899Y943102D01*
X866301Y943102D01*
X868531Y940872D01*
X873572Y938784D01*
X879028Y938784D01*
X884069Y940872D01*
X886299Y943102D01*
X891701Y943102D01*
X893931Y940872D01*
X898972Y938784D01*
X904428Y938784D01*
X909469Y940872D01*
X911699Y943102D01*
X917101Y943102D01*
X919331Y940872D01*
X924372Y938784D01*
X929828Y938784D01*
X934869Y940872D01*
X937099Y943102D01*
X942501Y943102D01*
X944731Y940872D01*
X949772Y938784D01*
X955228Y938784D01*
X960269Y940872D01*
X962499Y943102D01*
X967901Y943102D01*
X970131Y940872D01*
X975172Y938784D01*
X980628Y938784D01*
X985669Y940872D01*
X987899Y943102D01*
X993301Y943102D01*
X995531Y940872D01*
X1000572Y938784D01*
X1006028Y938784D01*
X1011069Y940872D01*
X1013299Y943102D01*
X1018701Y943102D01*
X1020931Y940872D01*
X1025972Y938784D01*
X1031428Y938784D01*
X1036469Y940872D01*
X1038699Y943102D01*
X1044101Y943102D01*
X1046331Y940872D01*
X1051372Y938784D01*
X1056828Y938784D01*
X1061869Y940872D01*
X1064099Y943102D01*
X1069501Y943102D01*
X1071731Y940872D01*
X1076772Y938784D01*
X1082228Y938784D01*
X1087269Y940872D01*
X1089499Y943102D01*
X1094901Y943102D01*
X1097131Y940872D01*
X1102172Y938784D01*
X1107628Y938784D01*
X1112669Y940872D01*
X1114899Y943102D01*
X1120301Y943102D01*
X1122531Y940872D01*
X1127572Y938784D01*
X1133028Y938784D01*
X1138069Y940872D01*
X1140299Y943102D01*
X1145701Y943102D01*
X1147931Y940872D01*
X1152972Y938784D01*
X1158428Y938784D01*
X1163469Y940872D01*
X1165699Y943102D01*
X1171101Y943102D01*
X1173331Y940872D01*
X1178372Y938784D01*
X1183828Y938784D01*
X1188869Y940872D01*
X1191099Y943102D01*
X1196501Y943102D01*
X1198731Y940872D01*
X1203772Y938784D01*
X1209228Y938784D01*
X1214269Y940872D01*
X1216499Y943102D01*
X1221901Y943102D01*
X1224131Y940872D01*
X1229172Y938784D01*
X1234628Y938784D01*
X1239669Y940872D01*
X1241899Y943102D01*
X1247301Y943102D01*
X1249531Y940872D01*
X1254572Y938784D01*
X1260028Y938784D01*
X1265069Y940872D01*
X1267299Y943102D01*
X1272701Y943102D01*
X1274931Y940872D01*
X1279972Y938784D01*
X1285428Y938784D01*
X1290469Y940872D01*
X1292699Y943102D01*
X1298101Y943102D01*
X1300331Y940872D01*
X1305372Y938784D01*
X1310828Y938784D01*
X1315869Y940872D01*
X1318099Y943102D01*
X1323501Y943102D01*
X1325731Y940872D01*
X1330772Y938784D01*
X1336228Y938784D01*
X1341269Y940872D01*
X1343499Y943102D01*
X1348901Y943102D01*
X1351131Y940872D01*
X1356172Y938784D01*
X1361628Y938784D01*
X1366669Y940872D01*
X1368899Y943102D01*
X1374301Y943102D01*
X1376531Y940872D01*
X1381572Y938784D01*
X1387028Y938784D01*
X1392069Y940872D01*
X1394299Y943102D01*
X1399701Y943102D01*
X1401931Y940872D01*
X1406972Y938784D01*
X1412428Y938784D01*
X1417469Y940872D01*
X1419699Y943102D01*
X1425101Y943102D01*
X1427331Y940872D01*
X1432372Y938784D01*
X1437828Y938784D01*
X1442869Y940872D01*
X1445099Y943102D01*
X1450501Y943102D01*
X1452731Y940872D01*
X1457772Y938784D01*
X1463228Y938784D01*
X1468269Y940872D01*
X1470499Y943102D01*
X1475901Y943102D01*
X1478131Y940872D01*
X1483172Y938784D01*
X1488628Y938784D01*
X1493669Y940872D01*
X1495899Y943102D01*
X1501301Y943102D01*
X1503531Y940872D01*
X1508572Y938784D01*
X1514028Y938784D01*
X1519069Y940872D01*
X1521299Y943102D01*
X1526701Y943102D01*
X1528931Y940872D01*
X1533972Y938784D01*
X1539428Y938784D01*
X1544469Y940872D01*
X1546699Y943102D01*
X1552101Y943102D01*
X1554331Y940872D01*
X1559372Y938784D01*
X1564828Y938784D01*
X1569869Y940872D01*
X1572099Y943102D01*
X1577501Y943102D01*
X1579731Y940872D01*
X1584772Y938784D01*
X1590228Y938784D01*
X1595269Y940872D01*
X1597499Y943102D01*
X1602901Y943102D01*
X1605131Y940872D01*
X1610172Y938784D01*
X1615628Y938784D01*
X1620669Y940872D01*
X1622899Y943102D01*
X1628301Y943102D01*
X1630531Y940872D01*
X1635572Y938784D01*
X1641028Y938784D01*
X1646069Y940872D01*
X1648299Y943102D01*
X1653701Y943102D01*
X1655931Y940872D01*
X1660972Y938784D01*
X1666428Y938784D01*
X1671469Y940872D01*
X1673699Y943102D01*
X1679101Y943102D01*
X1681331Y940872D01*
X1686372Y938784D01*
X1691828Y938784D01*
X1696869Y940872D01*
X1699099Y943102D01*
X1704501Y943102D01*
X1706731Y940872D01*
X1711772Y938784D01*
X1717228Y938784D01*
X1722269Y940872D01*
X1724499Y943102D01*
X1729901Y943102D01*
X1732131Y940872D01*
X1737172Y938784D01*
X1742628Y938784D01*
X1747669Y940872D01*
X1749899Y943102D01*
X1755301Y943102D01*
X1757531Y940872D01*
X1762572Y938784D01*
X1768028Y938784D01*
X1773069Y940872D01*
X1775299Y943102D01*
X1780701Y943102D01*
X1782931Y940872D01*
X1787972Y938784D01*
X1793428Y938784D01*
X1798469Y940872D01*
X1800699Y943102D01*
X1806101Y943102D01*
X1808331Y940872D01*
X1813372Y938784D01*
X1818828Y938784D01*
X1823869Y940872D01*
X1826099Y943102D01*
X1831501Y943102D01*
X1833731Y940872D01*
X1838772Y938784D01*
X1844228Y938784D01*
X1849269Y940872D01*
X1851499Y943102D01*
X1856901Y943102D01*
X1859131Y940872D01*
X1864172Y938784D01*
X1869628Y938784D01*
X1874669Y940872D01*
X1878528Y944731D01*
X1880616Y949772D01*
X1880616Y955228D01*
X1878528Y960269D01*
X1874669Y964128D01*
X1871410Y965478D01*
X1871970Y965660D01*
X1873823Y966604D01*
X1875504Y967826D01*
X1876974Y969296D01*
X1878196Y970977D01*
X1879140Y972830D01*
X1879783Y974807D01*
X1880071Y976630D01*
X1868170Y976630D01*
X1868170Y979170D01*
X1880071Y979170D01*
X1879783Y980993D01*
X1879140Y982970D01*
X1878196Y984823D01*
X1876974Y986504D01*
X1875504Y987974D01*
X1873823Y989196D01*
X1871970Y990140D01*
X1871410Y990322D01*
X1874669Y991672D01*
X1878528Y995531D01*
X1880616Y1000572D01*
X1880616Y1006028D01*
X1878528Y1011069D01*
X1874669Y1014928D01*
X1869628Y1017016D01*
X1864172Y1017016D01*
X1859131Y1014928D01*
X1856901Y1012698D01*
X1851499Y1012698D01*
X1849269Y1014928D01*
X1844228Y1017016D01*
X1838772Y1017016D01*
X1833731Y1014928D01*
X1831501Y1012698D01*
X1826099Y1012698D01*
X1823869Y1014928D01*
X1818828Y1017016D01*
X1813372Y1017016D01*
X1808331Y1014928D01*
X1806101Y1012698D01*
X1800699Y1012698D01*
X1798469Y1014928D01*
X1793428Y1017016D01*
X1787972Y1017016D01*
X1782931Y1014928D01*
X1780701Y1012698D01*
X1775299Y1012698D01*
X1773069Y1014928D01*
X1768028Y1017016D01*
X1762572Y1017016D01*
X1757531Y1014928D01*
X1755301Y1012698D01*
X1749899Y1012698D01*
X1747669Y1014928D01*
X1742628Y1017016D01*
X1737172Y1017016D01*
X1732131Y1014928D01*
X1729901Y1012698D01*
X1724499Y1012698D01*
X1722269Y1014928D01*
X1717228Y1017016D01*
X1711772Y1017016D01*
X1706731Y1014928D01*
X1704501Y1012698D01*
X1699099Y1012698D01*
X1696869Y1014928D01*
X1691828Y1017016D01*
X1686372Y1017016D01*
X1681331Y1014928D01*
X1679101Y1012698D01*
X1673699Y1012698D01*
X1671469Y1014928D01*
X1666428Y1017016D01*
X1660972Y1017016D01*
X1655931Y1014928D01*
X1653701Y1012698D01*
X1648299Y1012698D01*
X1646069Y1014928D01*
X1641028Y1017016D01*
X1635572Y1017016D01*
X1630531Y1014928D01*
X1628301Y1012698D01*
X1622899Y1012698D01*
X1620669Y1014928D01*
X1615628Y1017016D01*
X1610172Y1017016D01*
X1605131Y1014928D01*
X1602901Y1012698D01*
X1597499Y1012698D01*
X1595269Y1014928D01*
X1590228Y1017016D01*
X1584772Y1017016D01*
X1579731Y1014928D01*
X1577501Y1012698D01*
X1572099Y1012698D01*
X1569869Y1014928D01*
X1564828Y1017016D01*
X1559372Y1017016D01*
X1554331Y1014928D01*
X1552101Y1012698D01*
X1546699Y1012698D01*
X1544469Y1014928D01*
X1539428Y1017016D01*
X1533972Y1017016D01*
X1528931Y1014928D01*
X1526701Y1012698D01*
X1521299Y1012698D01*
X1519069Y1014928D01*
X1514028Y1017016D01*
X1508572Y1017016D01*
X1503531Y1014928D01*
X1501301Y1012698D01*
X1495899Y1012698D01*
X1493669Y1014928D01*
X1488628Y1017016D01*
X1483172Y1017016D01*
X1478131Y1014928D01*
X1475901Y1012698D01*
X1470499Y1012698D01*
X1468269Y1014928D01*
X1463228Y1017016D01*
X1457772Y1017016D01*
X1452731Y1014928D01*
X1450501Y1012698D01*
X1445099Y1012698D01*
X1442869Y1014928D01*
X1437828Y1017016D01*
X1432372Y1017016D01*
X1427331Y1014928D01*
X1425101Y1012698D01*
X1419699Y1012698D01*
X1417469Y1014928D01*
X1412428Y1017016D01*
X1406972Y1017016D01*
X1401931Y1014928D01*
X1399701Y1012698D01*
X1394299Y1012698D01*
X1392069Y1014928D01*
X1387028Y1017016D01*
X1381572Y1017016D01*
X1376531Y1014928D01*
X1374301Y1012698D01*
X1368899Y1012698D01*
X1366669Y1014928D01*
X1361628Y1017016D01*
X1356172Y1017016D01*
X1351131Y1014928D01*
X1348901Y1012698D01*
X1343499Y1012698D01*
X1341269Y1014928D01*
X1336228Y1017016D01*
X1330772Y1017016D01*
X1325731Y1014928D01*
X1323501Y1012698D01*
X1318099Y1012698D01*
X1315869Y1014928D01*
X1310828Y1017016D01*
X1305372Y1017016D01*
X1300331Y1014928D01*
X1298101Y1012698D01*
X1292699Y1012698D01*
X1290469Y1014928D01*
X1285428Y1017016D01*
X1279972Y1017016D01*
X1274931Y1014928D01*
X1272701Y1012698D01*
X1267299Y1012698D01*
X1265069Y1014928D01*
X1260028Y1017016D01*
X1254572Y1017016D01*
X1249531Y1014928D01*
X1247301Y1012698D01*
X1241899Y1012698D01*
X1239669Y1014928D01*
X1234628Y1017016D01*
X1229172Y1017016D01*
X1224131Y1014928D01*
X1221901Y1012698D01*
X1216499Y1012698D01*
X1214269Y1014928D01*
X1209228Y1017016D01*
X1203772Y1017016D01*
X1198731Y1014928D01*
X1196501Y1012698D01*
X1191099Y1012698D01*
X1188869Y1014928D01*
X1183828Y1017016D01*
X1178372Y1017016D01*
X1173331Y1014928D01*
X1171101Y1012698D01*
X1165699Y1012698D01*
X1163469Y1014928D01*
X1158428Y1017016D01*
X1152972Y1017016D01*
X1147931Y1014928D01*
X1145701Y1012698D01*
X1140299Y1012698D01*
X1138069Y1014928D01*
X1133028Y1017016D01*
X1127572Y1017016D01*
X1122531Y1014928D01*
X1120301Y1012698D01*
X1114899Y1012698D01*
X1112669Y1014928D01*
X1107628Y1017016D01*
X1102172Y1017016D01*
X1097131Y1014928D01*
X1094901Y1012698D01*
X1089499Y1012698D01*
X1087269Y1014928D01*
X1082228Y1017016D01*
X1076772Y1017016D01*
X1071731Y1014928D01*
X1069501Y1012698D01*
X1064099Y1012698D01*
X1061869Y1014928D01*
X1056828Y1017016D01*
X1051372Y1017016D01*
X1046331Y1014928D01*
X1044101Y1012698D01*
X1038699Y1012698D01*
X1036469Y1014928D01*
X1031428Y1017016D01*
X1025972Y1017016D01*
X1020931Y1014928D01*
X1018701Y1012698D01*
X1013299Y1012698D01*
X1011069Y1014928D01*
X1006028Y1017016D01*
X1000572Y1017016D01*
X995531Y1014928D01*
X993301Y1012698D01*
X987899Y1012698D01*
X985669Y1014928D01*
X980628Y1017016D01*
X975172Y1017016D01*
X970131Y1014928D01*
X967901Y1012698D01*
X962499Y1012698D01*
X960269Y1014928D01*
X955228Y1017016D01*
X949772Y1017016D01*
X944731Y1014928D01*
X942501Y1012698D01*
X937099Y1012698D01*
X934869Y1014928D01*
X929828Y1017016D01*
X924372Y1017016D01*
X919331Y1014928D01*
X917101Y1012698D01*
X911699Y1012698D01*
X909469Y1014928D01*
X904428Y1017016D01*
X898972Y1017016D01*
X893931Y1014928D01*
X891701Y1012698D01*
X886299Y1012698D01*
X884069Y1014928D01*
X879028Y1017016D01*
X873572Y1017016D01*
X868531Y1014928D01*
X866301Y1012698D01*
X860899Y1012698D01*
X858669Y1014928D01*
X853628Y1017016D01*
X848172Y1017016D01*
X843131Y1014928D01*
X840901Y1012698D01*
X835499Y1012698D01*
X833269Y1014928D01*
X828228Y1017016D01*
X822772Y1017016D01*
X817731Y1014928D01*
X815501Y1012698D01*
X810099Y1012698D01*
X807869Y1014928D01*
X802828Y1017016D01*
X797372Y1017016D01*
X792331Y1014928D01*
X790101Y1012698D01*
X784699Y1012698D01*
X782469Y1014928D01*
X777428Y1017016D01*
X771972Y1017016D01*
X766931Y1014928D01*
X764701Y1012698D01*
X759299Y1012698D01*
X757069Y1014928D01*
X752028Y1017016D01*
X746572Y1017016D01*
X741531Y1014928D01*
X739301Y1012698D01*
X733899Y1012698D01*
X731669Y1014928D01*
X726628Y1017016D01*
X721172Y1017016D01*
X716131Y1014928D01*
X713901Y1012698D01*
X708499Y1012698D01*
X706269Y1014928D01*
X701228Y1017016D01*
X695772Y1017016D01*
X690731Y1014928D01*
X688501Y1012698D01*
X683099Y1012698D01*
X680869Y1014928D01*
X675828Y1017016D01*
X670372Y1017016D01*
X665331Y1014928D01*
X663101Y1012698D01*
X657699Y1012698D01*
X655469Y1014928D01*
X650428Y1017016D01*
X644972Y1017016D01*
X639931Y1014928D01*
X637701Y1012698D01*
X632299Y1012698D01*
X630069Y1014928D01*
X625028Y1017016D01*
X619572Y1017016D01*
X614531Y1014928D01*
X612301Y1012698D01*
X606899Y1012698D01*
X604669Y1014928D01*
X599628Y1017016D01*
X594172Y1017016D01*
X589131Y1014928D01*
X586901Y1012698D01*
X581499Y1012698D01*
X579269Y1014928D01*
X574228Y1017016D01*
X568772Y1017016D01*
X563731Y1014928D01*
X561501Y1012698D01*
X556099Y1012698D01*
X553869Y1014928D01*
X548828Y1017016D01*
X543372Y1017016D01*
X538331Y1014928D01*
X536101Y1012698D01*
X530699Y1012698D01*
X528469Y1014928D01*
X523428Y1017016D01*
X517972Y1017016D01*
X512931Y1014928D01*
X510701Y1012698D01*
X505299Y1012698D01*
X503069Y1014928D01*
X498028Y1017016D01*
X492572Y1017016D01*
X487531Y1014928D01*
X485301Y1012698D01*
X479899Y1012698D01*
X477669Y1014928D01*
X472628Y1017016D01*
X467172Y1017016D01*
X462131Y1014928D01*
X459901Y1012698D01*
X454499Y1012698D01*
X452269Y1014928D01*
X447228Y1017016D01*
X441772Y1017016D01*
X436731Y1014928D01*
X434501Y1012698D01*
X429099Y1012698D01*
X426869Y1014928D01*
X421828Y1017016D01*
X416372Y1017016D01*
X411331Y1014928D01*
X409101Y1012698D01*
X403699Y1012698D01*
X401469Y1014928D01*
X396428Y1017016D01*
X390972Y1017016D01*
X385931Y1014928D01*
X383701Y1012698D01*
X378299Y1012698D01*
X376069Y1014928D01*
X371028Y1017016D01*
X365572Y1017016D01*
X360531Y1014928D01*
X358301Y1012698D01*
X352899Y1012698D01*
X350669Y1014928D01*
X345628Y1017016D01*
X340172Y1017016D01*
X335131Y1014928D01*
X332901Y1012698D01*
X327499Y1012698D01*
X325269Y1014928D01*
X320228Y1017016D01*
X314772Y1017016D01*
X309731Y1014928D01*
X307501Y1012698D01*
X302099Y1012698D01*
X299869Y1014928D01*
X294828Y1017016D01*
X289372Y1017016D01*
X284331Y1014928D01*
X282101Y1012698D01*
X276699Y1012698D01*
X274469Y1014928D01*
X269428Y1017016D01*
X263972Y1017016D01*
X258931Y1014928D01*
X256701Y1012698D01*
X245193Y1012698D01*
X225298Y1032593D01*
X225298Y1322669D01*
X223867Y1326124D01*
X221224Y1328767D01*
X183124Y1366867D01*
X179669Y1368298D01*
X157220Y1368298D01*
X156468Y1371106D01*
X152305Y1378317D01*
X146417Y1384205D01*
X139206Y1388368D01*
X131163Y1390523D01*
X122837Y1390523D01*
X114794Y1388368D01*
X107583Y1384205D01*
X101695Y1378317D01*
X97532Y1371106D01*
X95377Y1363063D01*
X95377Y1354737D01*
X97532Y1346694D01*
X101695Y1339483D01*
X107583Y1333595D01*
X114794Y1329432D01*
X122837Y1327277D01*
X131163Y1327277D01*
X139206Y1329432D01*
X146417Y1333595D01*
X152305Y1339483D01*
X156468Y1346694D01*
X157220Y1349502D01*
X173907Y1349502D01*
X206502Y1316907D01*
X206502Y1026831D01*
X207933Y1023376D01*
X233333Y997976D01*
X235976Y995333D01*
X239431Y993902D01*
X256701Y993902D01*
X258931Y991672D01*
X262190Y990322D01*
X261630Y990140D01*
X259777Y989196D01*
X258096Y987974D01*
X256626Y986504D01*
X255404Y984823D01*
X254460Y982970D01*
X253817Y980993D01*
X253529Y979170D01*
X265430Y979170D01*
X265430Y976630D01*
X253529Y976630D01*
X253817Y974807D01*
X254460Y972830D01*
X255404Y970977D01*
X256626Y969296D01*
X258096Y967826D01*
X259777Y966604D01*
X261630Y965660D01*
X262190Y965478D01*
X258931Y964128D01*
X256701Y961898D01*
X219793Y961898D01*
X136398Y1045293D01*
X136398Y1049280D01*
X139206Y1050032D01*
X146417Y1054195D01*
X152305Y1060083D01*
X156468Y1067294D01*
X158623Y1075337D01*
X4699Y12700D02*
X2027301Y12700D01*
X2027301Y25400D02*
X4699Y25400D01*
X4699Y38100D02*
X2027301Y38100D01*
X2027301Y50800D02*
X4699Y50800D01*
X4699Y63500D02*
X2027301Y63500D01*
X261519Y76200D02*
X4699Y76200D01*
X271881Y76200D02*
X286919Y76200D01*
X297281Y76200D02*
X312319Y76200D01*
X322681Y76200D02*
X337719Y76200D01*
X348081Y76200D02*
X363119Y76200D01*
X373481Y76200D02*
X388519Y76200D01*
X398881Y76200D02*
X413919Y76200D01*
X424281Y76200D02*
X439319Y76200D01*
X449681Y76200D02*
X464719Y76200D01*
X475081Y76200D02*
X490119Y76200D01*
X500481Y76200D02*
X515519Y76200D01*
X525881Y76200D02*
X540919Y76200D01*
X551281Y76200D02*
X566319Y76200D01*
X576681Y76200D02*
X591719Y76200D01*
X602081Y76200D02*
X617119Y76200D01*
X627481Y76200D02*
X642519Y76200D01*
X652881Y76200D02*
X667919Y76200D01*
X678281Y76200D02*
X693319Y76200D01*
X703681Y76200D02*
X718719Y76200D01*
X729081Y76200D02*
X744119Y76200D01*
X754481Y76200D02*
X769519Y76200D01*
X779881Y76200D02*
X794919Y76200D01*
X805281Y76200D02*
X820319Y76200D01*
X830681Y76200D02*
X845719Y76200D01*
X856081Y76200D02*
X871119Y76200D01*
X881481Y76200D02*
X896519Y76200D01*
X906881Y76200D02*
X921919Y76200D01*
X932281Y76200D02*
X947319Y76200D01*
X957681Y76200D02*
X972719Y76200D01*
X983081Y76200D02*
X998119Y76200D01*
X1008481Y76200D02*
X1023519Y76200D01*
X1033881Y76200D02*
X1048919Y76200D01*
X1059281Y76200D02*
X1074319Y76200D01*
X1084681Y76200D02*
X1099719Y76200D01*
X1110081Y76200D02*
X1125119Y76200D01*
X1135481Y76200D02*
X1150519Y76200D01*
X1160881Y76200D02*
X1175919Y76200D01*
X1186281Y76200D02*
X1201319Y76200D01*
X1211681Y76200D02*
X1226719Y76200D01*
X1237081Y76200D02*
X1252119Y76200D01*
X1262481Y76200D02*
X1277519Y76200D01*
X1287881Y76200D02*
X1302919Y76200D01*
X1313281Y76200D02*
X1328319Y76200D01*
X1338681Y76200D02*
X1353719Y76200D01*
X1364081Y76200D02*
X1379119Y76200D01*
X1389481Y76200D02*
X1404519Y76200D01*
X1414881Y76200D02*
X1429919Y76200D01*
X1440281Y76200D02*
X1455319Y76200D01*
X1465681Y76200D02*
X1480719Y76200D01*
X1491081Y76200D02*
X1506119Y76200D01*
X1516481Y76200D02*
X1531519Y76200D01*
X1541881Y76200D02*
X1556919Y76200D01*
X1567281Y76200D02*
X1582319Y76200D01*
X1592681Y76200D02*
X1607719Y76200D01*
X1618081Y76200D02*
X1633119Y76200D01*
X1643481Y76200D02*
X1658519Y76200D01*
X1668881Y76200D02*
X1683919Y76200D01*
X1694281Y76200D02*
X1709319Y76200D01*
X1719681Y76200D02*
X1734719Y76200D01*
X1745081Y76200D02*
X1760119Y76200D01*
X1770481Y76200D02*
X1785519Y76200D01*
X1795881Y76200D02*
X1810919Y76200D01*
X1821281Y76200D02*
X1836319Y76200D01*
X1846681Y76200D02*
X1861719Y76200D01*
X1872081Y76200D02*
X2027301Y76200D01*
X202609Y88900D02*
X4699Y88900D01*
X1880616Y88900D02*
X2027301Y88900D01*
X189909Y101600D02*
X4699Y101600D01*
X216491Y101600D02*
X261519Y101600D01*
X1872081Y101600D02*
X2027301Y101600D01*
X177209Y114300D02*
X4699Y114300D01*
X203791Y114300D02*
X265430Y114300D01*
X267970Y114300D02*
X290830Y114300D01*
X293370Y114300D02*
X316230Y114300D01*
X318770Y114300D02*
X341630Y114300D01*
X344170Y114300D02*
X367030Y114300D01*
X369570Y114300D02*
X392430Y114300D01*
X394970Y114300D02*
X417830Y114300D01*
X420370Y114300D02*
X443230Y114300D01*
X445770Y114300D02*
X468630Y114300D01*
X471170Y114300D02*
X494030Y114300D01*
X496570Y114300D02*
X519430Y114300D01*
X521970Y114300D02*
X544830Y114300D01*
X547370Y114300D02*
X570230Y114300D01*
X572770Y114300D02*
X595630Y114300D01*
X598170Y114300D02*
X621030Y114300D01*
X623570Y114300D02*
X646430Y114300D01*
X648970Y114300D02*
X671830Y114300D01*
X674370Y114300D02*
X697230Y114300D01*
X699770Y114300D02*
X722630Y114300D01*
X725170Y114300D02*
X748030Y114300D01*
X750570Y114300D02*
X773430Y114300D01*
X775970Y114300D02*
X798830Y114300D01*
X801370Y114300D02*
X824230Y114300D01*
X826770Y114300D02*
X849630Y114300D01*
X852170Y114300D02*
X875030Y114300D01*
X877570Y114300D02*
X900430Y114300D01*
X902970Y114300D02*
X925830Y114300D01*
X928370Y114300D02*
X951230Y114300D01*
X953770Y114300D02*
X976630Y114300D01*
X979170Y114300D02*
X1002030Y114300D01*
X1004570Y114300D02*
X1027430Y114300D01*
X1029970Y114300D02*
X1052830Y114300D01*
X1055370Y114300D02*
X1078230Y114300D01*
X1080770Y114300D02*
X1103630Y114300D01*
X1106170Y114300D02*
X1129030Y114300D01*
X1131570Y114300D02*
X1154430Y114300D01*
X1156970Y114300D02*
X1179830Y114300D01*
X1182370Y114300D02*
X1205230Y114300D01*
X1207770Y114300D02*
X1230630Y114300D01*
X1233170Y114300D02*
X1256030Y114300D01*
X1258570Y114300D02*
X1281430Y114300D01*
X1283970Y114300D02*
X1306830Y114300D01*
X1309370Y114300D02*
X1332230Y114300D01*
X1334770Y114300D02*
X1357630Y114300D01*
X1360170Y114300D02*
X1383030Y114300D01*
X1385570Y114300D02*
X1408430Y114300D01*
X1410970Y114300D02*
X1433830Y114300D01*
X1436370Y114300D02*
X1459230Y114300D01*
X1461770Y114300D02*
X1484630Y114300D01*
X1487170Y114300D02*
X1510030Y114300D01*
X1512570Y114300D02*
X1535430Y114300D01*
X1537970Y114300D02*
X1560830Y114300D01*
X1563370Y114300D02*
X1586230Y114300D01*
X1588770Y114300D02*
X1611630Y114300D01*
X1614170Y114300D02*
X1637030Y114300D01*
X1639570Y114300D02*
X1662430Y114300D01*
X1664970Y114300D02*
X1687830Y114300D01*
X1690370Y114300D02*
X1713230Y114300D01*
X1715770Y114300D02*
X1738630Y114300D01*
X1741170Y114300D02*
X1764030Y114300D01*
X1766570Y114300D02*
X1789430Y114300D01*
X1791970Y114300D02*
X1814830Y114300D01*
X1817370Y114300D02*
X1840230Y114300D01*
X1842770Y114300D02*
X1865630Y114300D01*
X1868170Y114300D02*
X2027301Y114300D01*
X164509Y127000D02*
X4699Y127000D01*
X191091Y127000D02*
X261519Y127000D01*
X1872081Y127000D02*
X2027301Y127000D01*
X151809Y139700D02*
X4699Y139700D01*
X178391Y139700D02*
X228009Y139700D01*
X1880616Y139700D02*
X2027301Y139700D01*
X139109Y152400D02*
X4699Y152400D01*
X165691Y152400D02*
X215309Y152400D01*
X241891Y152400D02*
X261519Y152400D01*
X271881Y152400D02*
X286919Y152400D01*
X297281Y152400D02*
X312319Y152400D01*
X322681Y152400D02*
X337719Y152400D01*
X348081Y152400D02*
X363119Y152400D01*
X373481Y152400D02*
X388519Y152400D01*
X398881Y152400D02*
X413919Y152400D01*
X424281Y152400D02*
X439319Y152400D01*
X449681Y152400D02*
X464719Y152400D01*
X475081Y152400D02*
X490119Y152400D01*
X500481Y152400D02*
X515519Y152400D01*
X525881Y152400D02*
X540919Y152400D01*
X551281Y152400D02*
X566319Y152400D01*
X576681Y152400D02*
X591719Y152400D01*
X602081Y152400D02*
X617119Y152400D01*
X627481Y152400D02*
X642519Y152400D01*
X652881Y152400D02*
X667919Y152400D01*
X678281Y152400D02*
X693319Y152400D01*
X703681Y152400D02*
X718719Y152400D01*
X729081Y152400D02*
X744119Y152400D01*
X754481Y152400D02*
X769519Y152400D01*
X779881Y152400D02*
X794919Y152400D01*
X805281Y152400D02*
X820319Y152400D01*
X830681Y152400D02*
X845719Y152400D01*
X856081Y152400D02*
X871119Y152400D01*
X881481Y152400D02*
X896519Y152400D01*
X906881Y152400D02*
X921919Y152400D01*
X932281Y152400D02*
X947319Y152400D01*
X957681Y152400D02*
X972719Y152400D01*
X983081Y152400D02*
X998119Y152400D01*
X1008481Y152400D02*
X1023519Y152400D01*
X1033881Y152400D02*
X1048919Y152400D01*
X1059281Y152400D02*
X1074319Y152400D01*
X1084681Y152400D02*
X1099719Y152400D01*
X1110081Y152400D02*
X1125119Y152400D01*
X1135481Y152400D02*
X1150519Y152400D01*
X1160881Y152400D02*
X1175919Y152400D01*
X1186281Y152400D02*
X1201319Y152400D01*
X1211681Y152400D02*
X1226719Y152400D01*
X1237081Y152400D02*
X1252119Y152400D01*
X1262481Y152400D02*
X1277519Y152400D01*
X1287881Y152400D02*
X1302919Y152400D01*
X1313281Y152400D02*
X1328319Y152400D01*
X1338681Y152400D02*
X1353719Y152400D01*
X1364081Y152400D02*
X1379119Y152400D01*
X1389481Y152400D02*
X1404519Y152400D01*
X1414881Y152400D02*
X1429919Y152400D01*
X1440281Y152400D02*
X1455319Y152400D01*
X1465681Y152400D02*
X1480719Y152400D01*
X1491081Y152400D02*
X1506119Y152400D01*
X1516481Y152400D02*
X1531519Y152400D01*
X1541881Y152400D02*
X1556919Y152400D01*
X1567281Y152400D02*
X1582319Y152400D01*
X1592681Y152400D02*
X1607719Y152400D01*
X1618081Y152400D02*
X1633119Y152400D01*
X1643481Y152400D02*
X1658519Y152400D01*
X1668881Y152400D02*
X1683919Y152400D01*
X1694281Y152400D02*
X1709319Y152400D01*
X1719681Y152400D02*
X1734719Y152400D01*
X1745081Y152400D02*
X1760119Y152400D01*
X1770481Y152400D02*
X1785519Y152400D01*
X1795881Y152400D02*
X1810919Y152400D01*
X1821281Y152400D02*
X1836319Y152400D01*
X1846681Y152400D02*
X1861719Y152400D01*
X1872081Y152400D02*
X2027301Y152400D01*
X126409Y165100D02*
X4699Y165100D01*
X152991Y165100D02*
X206502Y165100D01*
X229191Y165100D02*
X2027301Y165100D01*
X117602Y177800D02*
X4699Y177800D01*
X140291Y177800D02*
X206502Y177800D01*
X225298Y177800D02*
X2027301Y177800D01*
X107748Y190500D02*
X4699Y190500D01*
X146252Y190500D02*
X206502Y190500D01*
X225298Y190500D02*
X2027301Y190500D01*
X97817Y203200D02*
X4699Y203200D01*
X156183Y203200D02*
X206502Y203200D01*
X225298Y203200D02*
X2027301Y203200D01*
X95377Y215900D02*
X4699Y215900D01*
X158623Y215900D02*
X206502Y215900D01*
X225298Y215900D02*
X2027301Y215900D01*
X97817Y228600D02*
X4699Y228600D01*
X156183Y228600D02*
X206502Y228600D01*
X225298Y228600D02*
X2027301Y228600D01*
X107748Y241300D02*
X4699Y241300D01*
X146252Y241300D02*
X206502Y241300D01*
X225298Y241300D02*
X2027301Y241300D01*
X206502Y254000D02*
X4699Y254000D01*
X225298Y254000D02*
X2027301Y254000D01*
X206502Y266700D02*
X4699Y266700D01*
X225298Y266700D02*
X2027301Y266700D01*
X206502Y279400D02*
X4699Y279400D01*
X225298Y279400D02*
X2027301Y279400D01*
X206502Y292100D02*
X4699Y292100D01*
X225298Y292100D02*
X2027301Y292100D01*
X206502Y304800D02*
X4699Y304800D01*
X225298Y304800D02*
X2027301Y304800D01*
X206502Y317500D02*
X4699Y317500D01*
X225298Y317500D02*
X2027301Y317500D01*
X108946Y330200D02*
X4699Y330200D01*
X125730Y330200D02*
X128270Y330200D01*
X145054Y330200D02*
X206502Y330200D01*
X225298Y330200D02*
X2027301Y330200D01*
X98581Y342900D02*
X4699Y342900D01*
X125730Y342900D02*
X128270Y342900D01*
X155419Y342900D02*
X206502Y342900D01*
X225298Y342900D02*
X2027301Y342900D01*
X125730Y355600D02*
X4699Y355600D01*
X128270Y355600D02*
X206502Y355600D01*
X225298Y355600D02*
X2027301Y355600D01*
X98581Y368300D02*
X4699Y368300D01*
X125730Y368300D02*
X128270Y368300D01*
X155419Y368300D02*
X206502Y368300D01*
X225298Y368300D02*
X2027301Y368300D01*
X108946Y381000D02*
X4699Y381000D01*
X125730Y381000D02*
X128270Y381000D01*
X145054Y381000D02*
X206502Y381000D01*
X225298Y381000D02*
X2027301Y381000D01*
X206502Y393700D02*
X4699Y393700D01*
X225298Y393700D02*
X2027301Y393700D01*
X202609Y406400D02*
X4699Y406400D01*
X225298Y406400D02*
X2027301Y406400D01*
X189909Y419100D02*
X4699Y419100D01*
X216491Y419100D02*
X2027301Y419100D01*
X177209Y431800D02*
X4699Y431800D01*
X203791Y431800D02*
X2027301Y431800D01*
X164509Y444500D02*
X4699Y444500D01*
X191091Y444500D02*
X2027301Y444500D01*
X151809Y457200D02*
X4699Y457200D01*
X178391Y457200D02*
X2027301Y457200D01*
X107748Y469900D02*
X4699Y469900D01*
X165691Y469900D02*
X2027301Y469900D01*
X97817Y482600D02*
X4699Y482600D01*
X156183Y482600D02*
X2027301Y482600D01*
X95377Y495300D02*
X4699Y495300D01*
X158623Y495300D02*
X2027301Y495300D01*
X97817Y508000D02*
X4699Y508000D01*
X156183Y508000D02*
X2027301Y508000D01*
X107748Y520700D02*
X4699Y520700D01*
X146252Y520700D02*
X2027301Y520700D01*
X235712Y533400D02*
X4699Y533400D01*
X1897888Y533400D02*
X2027301Y533400D01*
X235712Y546100D02*
X4699Y546100D01*
X1897888Y546100D02*
X2027301Y546100D01*
X235712Y558800D02*
X4699Y558800D01*
X1897888Y558800D02*
X2027301Y558800D01*
X235712Y571500D02*
X4699Y571500D01*
X1897888Y571500D02*
X2027301Y571500D01*
X235712Y584200D02*
X4699Y584200D01*
X1897888Y584200D02*
X2027301Y584200D01*
X235712Y596900D02*
X4699Y596900D01*
X1897888Y596900D02*
X2027301Y596900D01*
X235712Y609600D02*
X4699Y609600D01*
X1897888Y609600D02*
X2027301Y609600D01*
X235712Y622300D02*
X4699Y622300D01*
X1897888Y622300D02*
X2027301Y622300D01*
X235712Y635000D02*
X4699Y635000D01*
X1897888Y635000D02*
X2027301Y635000D01*
X235712Y647700D02*
X4699Y647700D01*
X1897888Y647700D02*
X2027301Y647700D01*
X235712Y660400D02*
X4699Y660400D01*
X1897888Y660400D02*
X2027301Y660400D01*
X235712Y673100D02*
X4699Y673100D01*
X1897888Y673100D02*
X2027301Y673100D01*
X235712Y685800D02*
X4699Y685800D01*
X1897888Y685800D02*
X2027301Y685800D01*
X235712Y698500D02*
X4699Y698500D01*
X1897888Y698500D02*
X2027301Y698500D01*
X235712Y711200D02*
X4699Y711200D01*
X1897888Y711200D02*
X2027301Y711200D01*
X235712Y723900D02*
X4699Y723900D01*
X1897888Y723900D02*
X2027301Y723900D01*
X235712Y736600D02*
X4699Y736600D01*
X1897888Y736600D02*
X2027301Y736600D01*
X235712Y749300D02*
X4699Y749300D01*
X1897888Y749300D02*
X2027301Y749300D01*
X235712Y762000D02*
X4699Y762000D01*
X1897888Y762000D02*
X2027301Y762000D01*
X235712Y774700D02*
X4699Y774700D01*
X1897888Y774700D02*
X2027301Y774700D01*
X235712Y787400D02*
X4699Y787400D01*
X1897888Y787400D02*
X2027301Y787400D01*
X235712Y800100D02*
X4699Y800100D01*
X1897888Y800100D02*
X2027301Y800100D01*
X235712Y812800D02*
X4699Y812800D01*
X1897888Y812800D02*
X2027301Y812800D01*
X235712Y825500D02*
X4699Y825500D01*
X1897888Y825500D02*
X2027301Y825500D01*
X235712Y838200D02*
X4699Y838200D01*
X1897888Y838200D02*
X2027301Y838200D01*
X235712Y850900D02*
X4699Y850900D01*
X1897888Y850900D02*
X2027301Y850900D01*
X235712Y863600D02*
X4699Y863600D01*
X1897888Y863600D02*
X2027301Y863600D01*
X2027301Y876300D02*
X4699Y876300D01*
X4699Y889000D02*
X2027301Y889000D01*
X2027301Y901700D02*
X4699Y901700D01*
X4699Y914400D02*
X2027301Y914400D01*
X2027301Y927100D02*
X4699Y927100D01*
X4699Y939800D02*
X261519Y939800D01*
X271881Y939800D02*
X286919Y939800D01*
X297281Y939800D02*
X312319Y939800D01*
X322681Y939800D02*
X337719Y939800D01*
X348081Y939800D02*
X363119Y939800D01*
X373481Y939800D02*
X388519Y939800D01*
X398881Y939800D02*
X413919Y939800D01*
X424281Y939800D02*
X439319Y939800D01*
X449681Y939800D02*
X464719Y939800D01*
X475081Y939800D02*
X490119Y939800D01*
X500481Y939800D02*
X515519Y939800D01*
X525881Y939800D02*
X540919Y939800D01*
X551281Y939800D02*
X566319Y939800D01*
X576681Y939800D02*
X591719Y939800D01*
X602081Y939800D02*
X617119Y939800D01*
X627481Y939800D02*
X642519Y939800D01*
X652881Y939800D02*
X667919Y939800D01*
X678281Y939800D02*
X693319Y939800D01*
X703681Y939800D02*
X718719Y939800D01*
X729081Y939800D02*
X744119Y939800D01*
X754481Y939800D02*
X769519Y939800D01*
X779881Y939800D02*
X794919Y939800D01*
X805281Y939800D02*
X820319Y939800D01*
X830681Y939800D02*
X845719Y939800D01*
X856081Y939800D02*
X871119Y939800D01*
X881481Y939800D02*
X896519Y939800D01*
X906881Y939800D02*
X921919Y939800D01*
X932281Y939800D02*
X947319Y939800D01*
X957681Y939800D02*
X972719Y939800D01*
X983081Y939800D02*
X998119Y939800D01*
X1008481Y939800D02*
X1023519Y939800D01*
X1033881Y939800D02*
X1048919Y939800D01*
X1059281Y939800D02*
X1074319Y939800D01*
X1084681Y939800D02*
X1099719Y939800D01*
X1110081Y939800D02*
X1125119Y939800D01*
X1135481Y939800D02*
X1150519Y939800D01*
X1160881Y939800D02*
X1175919Y939800D01*
X1186281Y939800D02*
X1201319Y939800D01*
X1211681Y939800D02*
X1226719Y939800D01*
X1237081Y939800D02*
X1252119Y939800D01*
X1262481Y939800D02*
X1277519Y939800D01*
X1287881Y939800D02*
X1302919Y939800D01*
X1313281Y939800D02*
X1328319Y939800D01*
X1338681Y939800D02*
X1353719Y939800D01*
X1364081Y939800D02*
X1379119Y939800D01*
X1389481Y939800D02*
X1404519Y939800D01*
X1414881Y939800D02*
X1429919Y939800D01*
X1440281Y939800D02*
X1455319Y939800D01*
X1465681Y939800D02*
X1480719Y939800D01*
X1491081Y939800D02*
X1506119Y939800D01*
X1516481Y939800D02*
X1531519Y939800D01*
X1541881Y939800D02*
X1556919Y939800D01*
X1567281Y939800D02*
X1582319Y939800D01*
X1592681Y939800D02*
X1607719Y939800D01*
X1618081Y939800D02*
X1633119Y939800D01*
X1643481Y939800D02*
X1658519Y939800D01*
X1668881Y939800D02*
X1683919Y939800D01*
X1694281Y939800D02*
X1709319Y939800D01*
X1719681Y939800D02*
X1734719Y939800D01*
X1745081Y939800D02*
X1760119Y939800D01*
X1770481Y939800D02*
X1785519Y939800D01*
X1795881Y939800D02*
X1810919Y939800D01*
X1821281Y939800D02*
X1836319Y939800D01*
X1846681Y939800D02*
X1861719Y939800D01*
X1872081Y939800D02*
X2027301Y939800D01*
X202609Y952500D02*
X4699Y952500D01*
X1880616Y952500D02*
X2027301Y952500D01*
X189909Y965200D02*
X4699Y965200D01*
X216491Y965200D02*
X261519Y965200D01*
X1872081Y965200D02*
X2027301Y965200D01*
X177209Y977900D02*
X4699Y977900D01*
X203791Y977900D02*
X265430Y977900D01*
X267970Y977900D02*
X290830Y977900D01*
X293370Y977900D02*
X316230Y977900D01*
X318770Y977900D02*
X341630Y977900D01*
X344170Y977900D02*
X367030Y977900D01*
X369570Y977900D02*
X392430Y977900D01*
X394970Y977900D02*
X417830Y977900D01*
X420370Y977900D02*
X443230Y977900D01*
X445770Y977900D02*
X468630Y977900D01*
X471170Y977900D02*
X494030Y977900D01*
X496570Y977900D02*
X519430Y977900D01*
X521970Y977900D02*
X544830Y977900D01*
X547370Y977900D02*
X570230Y977900D01*
X572770Y977900D02*
X595630Y977900D01*
X598170Y977900D02*
X621030Y977900D01*
X623570Y977900D02*
X646430Y977900D01*
X648970Y977900D02*
X671830Y977900D01*
X674370Y977900D02*
X697230Y977900D01*
X699770Y977900D02*
X722630Y977900D01*
X725170Y977900D02*
X748030Y977900D01*
X750570Y977900D02*
X773430Y977900D01*
X775970Y977900D02*
X798830Y977900D01*
X801370Y977900D02*
X824230Y977900D01*
X826770Y977900D02*
X849630Y977900D01*
X852170Y977900D02*
X875030Y977900D01*
X877570Y977900D02*
X900430Y977900D01*
X902970Y977900D02*
X925830Y977900D01*
X928370Y977900D02*
X951230Y977900D01*
X953770Y977900D02*
X976630Y977900D01*
X979170Y977900D02*
X1002030Y977900D01*
X1004570Y977900D02*
X1027430Y977900D01*
X1029970Y977900D02*
X1052830Y977900D01*
X1055370Y977900D02*
X1078230Y977900D01*
X1080770Y977900D02*
X1103630Y977900D01*
X1106170Y977900D02*
X1129030Y977900D01*
X1131570Y977900D02*
X1154430Y977900D01*
X1156970Y977900D02*
X1179830Y977900D01*
X1182370Y977900D02*
X1205230Y977900D01*
X1207770Y977900D02*
X1230630Y977900D01*
X1233170Y977900D02*
X1256030Y977900D01*
X1258570Y977900D02*
X1281430Y977900D01*
X1283970Y977900D02*
X1306830Y977900D01*
X1309370Y977900D02*
X1332230Y977900D01*
X1334770Y977900D02*
X1357630Y977900D01*
X1360170Y977900D02*
X1383030Y977900D01*
X1385570Y977900D02*
X1408430Y977900D01*
X1410970Y977900D02*
X1433830Y977900D01*
X1436370Y977900D02*
X1459230Y977900D01*
X1461770Y977900D02*
X1484630Y977900D01*
X1487170Y977900D02*
X1510030Y977900D01*
X1512570Y977900D02*
X1535430Y977900D01*
X1537970Y977900D02*
X1560830Y977900D01*
X1563370Y977900D02*
X1586230Y977900D01*
X1588770Y977900D02*
X1611630Y977900D01*
X1614170Y977900D02*
X1637030Y977900D01*
X1639570Y977900D02*
X1662430Y977900D01*
X1664970Y977900D02*
X1687830Y977900D01*
X1690370Y977900D02*
X1713230Y977900D01*
X1715770Y977900D02*
X1738630Y977900D01*
X1741170Y977900D02*
X1764030Y977900D01*
X1766570Y977900D02*
X1789430Y977900D01*
X1791970Y977900D02*
X1814830Y977900D01*
X1817370Y977900D02*
X1840230Y977900D01*
X1842770Y977900D02*
X1865630Y977900D01*
X1868170Y977900D02*
X2027301Y977900D01*
X164509Y990600D02*
X4699Y990600D01*
X191091Y990600D02*
X261519Y990600D01*
X1872081Y990600D02*
X2027301Y990600D01*
X151809Y1003300D02*
X4699Y1003300D01*
X178391Y1003300D02*
X228009Y1003300D01*
X1880616Y1003300D02*
X2027301Y1003300D01*
X139109Y1016000D02*
X4699Y1016000D01*
X165691Y1016000D02*
X215309Y1016000D01*
X241891Y1016000D02*
X261519Y1016000D01*
X271881Y1016000D02*
X286919Y1016000D01*
X297281Y1016000D02*
X312319Y1016000D01*
X322681Y1016000D02*
X337719Y1016000D01*
X348081Y1016000D02*
X363119Y1016000D01*
X373481Y1016000D02*
X388519Y1016000D01*
X398881Y1016000D02*
X413919Y1016000D01*
X424281Y1016000D02*
X439319Y1016000D01*
X449681Y1016000D02*
X464719Y1016000D01*
X475081Y1016000D02*
X490119Y1016000D01*
X500481Y1016000D02*
X515519Y1016000D01*
X525881Y1016000D02*
X540919Y1016000D01*
X551281Y1016000D02*
X566319Y1016000D01*
X576681Y1016000D02*
X591719Y1016000D01*
X602081Y1016000D02*
X617119Y1016000D01*
X627481Y1016000D02*
X642519Y1016000D01*
X652881Y1016000D02*
X667919Y1016000D01*
X678281Y1016000D02*
X693319Y1016000D01*
X703681Y1016000D02*
X718719Y1016000D01*
X729081Y1016000D02*
X744119Y1016000D01*
X754481Y1016000D02*
X769519Y1016000D01*
X779881Y1016000D02*
X794919Y1016000D01*
X805281Y1016000D02*
X820319Y1016000D01*
X830681Y1016000D02*
X845719Y1016000D01*
X856081Y1016000D02*
X871119Y1016000D01*
X881481Y1016000D02*
X896519Y1016000D01*
X906881Y1016000D02*
X921919Y1016000D01*
X932281Y1016000D02*
X947319Y1016000D01*
X957681Y1016000D02*
X972719Y1016000D01*
X983081Y1016000D02*
X998119Y1016000D01*
X1008481Y1016000D02*
X1023519Y1016000D01*
X1033881Y1016000D02*
X1048919Y1016000D01*
X1059281Y1016000D02*
X1074319Y1016000D01*
X1084681Y1016000D02*
X1099719Y1016000D01*
X1110081Y1016000D02*
X1125119Y1016000D01*
X1135481Y1016000D02*
X1150519Y1016000D01*
X1160881Y1016000D02*
X1175919Y1016000D01*
X1186281Y1016000D02*
X1201319Y1016000D01*
X1211681Y1016000D02*
X1226719Y1016000D01*
X1237081Y1016000D02*
X1252119Y1016000D01*
X1262481Y1016000D02*
X1277519Y1016000D01*
X1287881Y1016000D02*
X1302919Y1016000D01*
X1313281Y1016000D02*
X1328319Y1016000D01*
X1338681Y1016000D02*
X1353719Y1016000D01*
X1364081Y1016000D02*
X1379119Y1016000D01*
X1389481Y1016000D02*
X1404519Y1016000D01*
X1414881Y1016000D02*
X1429919Y1016000D01*
X1440281Y1016000D02*
X1455319Y1016000D01*
X1465681Y1016000D02*
X1480719Y1016000D01*
X1491081Y1016000D02*
X1506119Y1016000D01*
X1516481Y1016000D02*
X1531519Y1016000D01*
X1541881Y1016000D02*
X1556919Y1016000D01*
X1567281Y1016000D02*
X1582319Y1016000D01*
X1592681Y1016000D02*
X1607719Y1016000D01*
X1618081Y1016000D02*
X1633119Y1016000D01*
X1643481Y1016000D02*
X1658519Y1016000D01*
X1668881Y1016000D02*
X1683919Y1016000D01*
X1694281Y1016000D02*
X1709319Y1016000D01*
X1719681Y1016000D02*
X1734719Y1016000D01*
X1745081Y1016000D02*
X1760119Y1016000D01*
X1770481Y1016000D02*
X1785519Y1016000D01*
X1795881Y1016000D02*
X1810919Y1016000D01*
X1821281Y1016000D02*
X1836319Y1016000D01*
X1846681Y1016000D02*
X1861719Y1016000D01*
X1872081Y1016000D02*
X2027301Y1016000D01*
X126409Y1028700D02*
X4699Y1028700D01*
X152991Y1028700D02*
X206502Y1028700D01*
X229191Y1028700D02*
X2027301Y1028700D01*
X117602Y1041400D02*
X4699Y1041400D01*
X140291Y1041400D02*
X206502Y1041400D01*
X225298Y1041400D02*
X2027301Y1041400D01*
X107748Y1054100D02*
X4699Y1054100D01*
X146252Y1054100D02*
X206502Y1054100D01*
X225298Y1054100D02*
X2027301Y1054100D01*
X97817Y1066800D02*
X4699Y1066800D01*
X156183Y1066800D02*
X206502Y1066800D01*
X225298Y1066800D02*
X2027301Y1066800D01*
X95377Y1079500D02*
X4699Y1079500D01*
X158623Y1079500D02*
X206502Y1079500D01*
X225298Y1079500D02*
X2027301Y1079500D01*
X97817Y1092200D02*
X4699Y1092200D01*
X156183Y1092200D02*
X206502Y1092200D01*
X225298Y1092200D02*
X2027301Y1092200D01*
X107748Y1104900D02*
X4699Y1104900D01*
X146252Y1104900D02*
X206502Y1104900D01*
X225298Y1104900D02*
X2027301Y1104900D01*
X206502Y1117600D02*
X4699Y1117600D01*
X225298Y1117600D02*
X2027301Y1117600D01*
X206502Y1130300D02*
X4699Y1130300D01*
X225298Y1130300D02*
X2027301Y1130300D01*
X206502Y1143000D02*
X4699Y1143000D01*
X225298Y1143000D02*
X2027301Y1143000D01*
X206502Y1155700D02*
X4699Y1155700D01*
X225298Y1155700D02*
X2027301Y1155700D01*
X206502Y1168400D02*
X4699Y1168400D01*
X225298Y1168400D02*
X2027301Y1168400D01*
X206502Y1181100D02*
X4699Y1181100D01*
X225298Y1181100D02*
X2027301Y1181100D01*
X108946Y1193800D02*
X4699Y1193800D01*
X125730Y1193800D02*
X128270Y1193800D01*
X145054Y1193800D02*
X206502Y1193800D01*
X225298Y1193800D02*
X2027301Y1193800D01*
X98581Y1206500D02*
X4699Y1206500D01*
X125730Y1206500D02*
X128270Y1206500D01*
X155419Y1206500D02*
X206502Y1206500D01*
X225298Y1206500D02*
X2027301Y1206500D01*
X125730Y1219200D02*
X4699Y1219200D01*
X128270Y1219200D02*
X206502Y1219200D01*
X225298Y1219200D02*
X2027301Y1219200D01*
X98581Y1231900D02*
X4699Y1231900D01*
X125730Y1231900D02*
X128270Y1231900D01*
X155419Y1231900D02*
X206502Y1231900D01*
X225298Y1231900D02*
X2027301Y1231900D01*
X108946Y1244600D02*
X4699Y1244600D01*
X125730Y1244600D02*
X128270Y1244600D01*
X145054Y1244600D02*
X206502Y1244600D01*
X225298Y1244600D02*
X2027301Y1244600D01*
X206502Y1257300D02*
X4699Y1257300D01*
X225298Y1257300D02*
X2027301Y1257300D01*
X206502Y1270000D02*
X4699Y1270000D01*
X225298Y1270000D02*
X2027301Y1270000D01*
X206502Y1282700D02*
X4699Y1282700D01*
X225298Y1282700D02*
X2027301Y1282700D01*
X206502Y1295400D02*
X4699Y1295400D01*
X225298Y1295400D02*
X2027301Y1295400D01*
X206502Y1308100D02*
X4699Y1308100D01*
X225298Y1308100D02*
X2027301Y1308100D01*
X202609Y1320800D02*
X4699Y1320800D01*
X225298Y1320800D02*
X2027301Y1320800D01*
X107748Y1333500D02*
X4699Y1333500D01*
X146252Y1333500D02*
X189909Y1333500D01*
X216491Y1333500D02*
X2027301Y1333500D01*
X97817Y1346200D02*
X4699Y1346200D01*
X156183Y1346200D02*
X177209Y1346200D01*
X203791Y1346200D02*
X2027301Y1346200D01*
X95377Y1358900D02*
X4699Y1358900D01*
X191091Y1358900D02*
X2027301Y1358900D01*
X97817Y1371600D02*
X4699Y1371600D01*
X156183Y1371600D02*
X2027301Y1371600D01*
X107748Y1384300D02*
X4699Y1384300D01*
X146252Y1384300D02*
X2027301Y1384300D01*
X235712Y1397000D02*
X4699Y1397000D01*
X1897888Y1397000D02*
X2027301Y1397000D01*
X235712Y1409700D02*
X4699Y1409700D01*
X1897888Y1409700D02*
X2027301Y1409700D01*
X235712Y1422400D02*
X4699Y1422400D01*
X1897888Y1422400D02*
X2027301Y1422400D01*
X235712Y1435100D02*
X4699Y1435100D01*
X1897888Y1435100D02*
X2027301Y1435100D01*
X235712Y1447800D02*
X4699Y1447800D01*
X1897888Y1447800D02*
X2027301Y1447800D01*
X235712Y1460500D02*
X4699Y1460500D01*
X1897888Y1460500D02*
X2027301Y1460500D01*
X235712Y1473200D02*
X4699Y1473200D01*
X1897888Y1473200D02*
X2027301Y1473200D01*
X235712Y1485900D02*
X4699Y1485900D01*
X1897888Y1485900D02*
X2027301Y1485900D01*
X235712Y1498600D02*
X4699Y1498600D01*
X1897888Y1498600D02*
X2027301Y1498600D01*
X235712Y1511300D02*
X4699Y1511300D01*
X1897888Y1511300D02*
X2027301Y1511300D01*
X235712Y1524000D02*
X4699Y1524000D01*
X1897888Y1524000D02*
X2027301Y1524000D01*
X235712Y1536700D02*
X4699Y1536700D01*
X1897888Y1536700D02*
X2027301Y1536700D01*
X235712Y1549400D02*
X4699Y1549400D01*
X1897888Y1549400D02*
X2027301Y1549400D01*
X235712Y1562100D02*
X4699Y1562100D01*
X1897888Y1562100D02*
X2027301Y1562100D01*
X235712Y1574800D02*
X4699Y1574800D01*
X1897888Y1574800D02*
X2027301Y1574800D01*
X235712Y1587500D02*
X4699Y1587500D01*
X1897888Y1587500D02*
X2027301Y1587500D01*
X235712Y1600200D02*
X4699Y1600200D01*
X1897888Y1600200D02*
X2027301Y1600200D01*
X235712Y1612900D02*
X4699Y1612900D01*
X1897888Y1612900D02*
X2027301Y1612900D01*
X235712Y1625600D02*
X4699Y1625600D01*
X1897888Y1625600D02*
X2027301Y1625600D01*
X235712Y1638300D02*
X4699Y1638300D01*
X1897888Y1638300D02*
X2027301Y1638300D01*
X235712Y1651000D02*
X4699Y1651000D01*
X1897888Y1651000D02*
X2027301Y1651000D01*
X235712Y1663700D02*
X4699Y1663700D01*
X1897888Y1663700D02*
X2027301Y1663700D01*
X235712Y1676400D02*
X4699Y1676400D01*
X1897888Y1676400D02*
X2027301Y1676400D01*
X235712Y1689100D02*
X4699Y1689100D01*
X1897888Y1689100D02*
X2027301Y1689100D01*
X235712Y1701800D02*
X4699Y1701800D01*
X1897888Y1701800D02*
X2027301Y1701800D01*
X235712Y1714500D02*
X4699Y1714500D01*
X1897888Y1714500D02*
X2027301Y1714500D01*
X235712Y1727200D02*
X4699Y1727200D01*
X1897888Y1727200D02*
X2027301Y1727200D01*
X2027301Y1739900D02*
X4699Y1739900D01*
X4699Y1752600D02*
X2027301Y1752600D01*
X2027301Y1765300D02*
X4699Y1765300D01*
X4699Y1778000D02*
X2027301Y1778000D01*
X2027301Y1790700D02*
X4699Y1790700D01*
X4699Y1803400D02*
X2027301Y1803400D01*
X2027301Y1816100D02*
X4699Y1816100D01*
X4699Y1828800D02*
X2027301Y1828800D01*
X2027301Y1841500D02*
X4699Y1841500D01*
X4699Y1854200D02*
X2027301Y1854200D01*
X2027301Y1866900D02*
X4699Y1866900D01*
X4699Y1879600D02*
X2027301Y1879600D01*
X2027301Y1892300D02*
X4699Y1892300D01*
X4699Y1905000D02*
X2027301Y1905000D01*
X2027301Y1917700D02*
X4699Y1917700D01*
X4699Y1930400D02*
X2027301Y1930400D01*
X2027301Y1943100D02*
X4699Y1943100D01*
X4699Y1955800D02*
X2027301Y1955800D01*
X2027301Y1968500D02*
X4699Y1968500D01*
X4699Y1981200D02*
X2027301Y1981200D01*
X2027301Y1993900D02*
X4699Y1993900D01*
X4699Y2006600D02*
X2027301Y2006600D01*
X2027301Y2019300D02*
X4699Y2019300D01*
X12700Y2027301D02*
X12700Y4699D01*
X25400Y4699D02*
X25400Y2027301D01*
X38100Y2027301D02*
X38100Y4699D01*
X50800Y4699D02*
X50800Y2027301D01*
X63500Y2027301D02*
X63500Y4699D01*
X76200Y4699D02*
X76200Y2027301D01*
X88900Y2027301D02*
X88900Y4699D01*
X101600Y4699D02*
X101600Y196648D01*
X101600Y235152D02*
X101600Y337546D01*
X101600Y354330D02*
X101600Y356870D01*
X101600Y373654D02*
X101600Y476048D01*
X101600Y514552D02*
X101600Y1060248D01*
X101600Y1098752D02*
X101600Y1201146D01*
X101600Y1217930D02*
X101600Y1220470D01*
X101600Y1237254D02*
X101600Y1339648D01*
X101600Y1378152D02*
X101600Y2027301D01*
X114300Y186717D02*
X114300Y4699D01*
X114300Y245083D02*
X114300Y327181D01*
X114300Y354330D02*
X114300Y356870D01*
X114300Y384019D02*
X114300Y466117D01*
X114300Y524483D02*
X114300Y1050317D01*
X114300Y1108683D02*
X114300Y1190781D01*
X114300Y1217930D02*
X114300Y1220470D01*
X114300Y1247619D02*
X114300Y1329717D01*
X114300Y1388083D02*
X114300Y2027301D01*
X127000Y164509D02*
X127000Y4699D01*
X127000Y247523D02*
X127000Y354330D01*
X127000Y356870D02*
X127000Y463677D01*
X127000Y526923D02*
X127000Y1028109D01*
X127000Y1111123D02*
X127000Y1217930D01*
X127000Y1220470D02*
X127000Y1327277D01*
X127000Y1390523D02*
X127000Y2027301D01*
X139700Y151809D02*
X139700Y4699D01*
X139700Y178391D02*
X139700Y186717D01*
X139700Y245083D02*
X139700Y327181D01*
X139700Y354330D02*
X139700Y356870D01*
X139700Y384019D02*
X139700Y466117D01*
X139700Y524483D02*
X139700Y1015409D01*
X139700Y1041991D02*
X139700Y1050317D01*
X139700Y1108683D02*
X139700Y1190781D01*
X139700Y1217930D02*
X139700Y1220470D01*
X139700Y1247619D02*
X139700Y1329717D01*
X139700Y1388083D02*
X139700Y2027301D01*
X152400Y139109D02*
X152400Y4699D01*
X152400Y165691D02*
X152400Y196648D01*
X152400Y235152D02*
X152400Y337546D01*
X152400Y354330D02*
X152400Y356870D01*
X152400Y373654D02*
X152400Y456609D01*
X152400Y514552D02*
X152400Y1002709D01*
X152400Y1029291D02*
X152400Y1060248D01*
X152400Y1098752D02*
X152400Y1201146D01*
X152400Y1217930D02*
X152400Y1220470D01*
X152400Y1237254D02*
X152400Y1339648D01*
X152400Y1378152D02*
X152400Y2027301D01*
X165100Y126409D02*
X165100Y4699D01*
X165100Y152991D02*
X165100Y443909D01*
X165100Y470491D02*
X165100Y990009D01*
X165100Y1016591D02*
X165100Y1349502D01*
X165100Y1368298D02*
X165100Y2027301D01*
X177800Y113709D02*
X177800Y4699D01*
X177800Y140291D02*
X177800Y431209D01*
X177800Y457791D02*
X177800Y977309D01*
X177800Y1003891D02*
X177800Y1345609D01*
X177800Y1368298D02*
X177800Y2027301D01*
X190500Y101009D02*
X190500Y4699D01*
X190500Y127591D02*
X190500Y418509D01*
X190500Y445091D02*
X190500Y964609D01*
X190500Y991191D02*
X190500Y1332909D01*
X190500Y1359491D02*
X190500Y2027301D01*
X203200Y88309D02*
X203200Y4699D01*
X203200Y114891D02*
X203200Y405809D01*
X203200Y432391D02*
X203200Y951909D01*
X203200Y978491D02*
X203200Y1320209D01*
X203200Y1346791D02*
X203200Y2027301D01*
X215900Y79502D02*
X215900Y4699D01*
X215900Y102191D02*
X215900Y151809D01*
X215900Y419691D02*
X215900Y943102D01*
X215900Y965791D02*
X215900Y1015409D01*
X215900Y1334091D02*
X215900Y2027301D01*
X228600Y79502D02*
X228600Y4699D01*
X228600Y98298D02*
X228600Y139109D01*
X228600Y165691D02*
X228600Y943102D01*
X228600Y961898D02*
X228600Y1002709D01*
X228600Y1029291D02*
X228600Y2027301D01*
X241300Y79502D02*
X241300Y4699D01*
X241300Y98298D02*
X241300Y130302D01*
X241300Y152991D02*
X241300Y527812D01*
X241300Y869188D02*
X241300Y943102D01*
X241300Y961898D02*
X241300Y993902D01*
X241300Y1016591D02*
X241300Y1391412D01*
X241300Y1732788D02*
X241300Y2027301D01*
X254000Y79502D02*
X254000Y4699D01*
X254000Y98298D02*
X254000Y110645D01*
X254000Y113030D02*
X254000Y115570D01*
X254000Y117955D02*
X254000Y130302D01*
X254000Y149098D02*
X254000Y527812D01*
X254000Y869188D02*
X254000Y943102D01*
X254000Y961898D02*
X254000Y974245D01*
X254000Y976630D02*
X254000Y979170D01*
X254000Y981555D02*
X254000Y993902D01*
X254000Y1012698D02*
X254000Y1391412D01*
X254000Y1732788D02*
X254000Y2027301D01*
X266700Y75184D02*
X266700Y4699D01*
X266700Y153416D02*
X266700Y527812D01*
X266700Y869188D02*
X266700Y938784D01*
X266700Y1017016D02*
X266700Y1391412D01*
X266700Y1732788D02*
X266700Y2027301D01*
X279400Y79502D02*
X279400Y4699D01*
X279400Y113030D02*
X279400Y115570D01*
X279400Y149098D02*
X279400Y527812D01*
X279400Y869188D02*
X279400Y943102D01*
X279400Y976630D02*
X279400Y979170D01*
X279400Y1012698D02*
X279400Y1391412D01*
X279400Y1732788D02*
X279400Y2027301D01*
X292100Y75184D02*
X292100Y4699D01*
X292100Y153416D02*
X292100Y527812D01*
X292100Y869188D02*
X292100Y938784D01*
X292100Y1017016D02*
X292100Y1391412D01*
X292100Y1732788D02*
X292100Y2027301D01*
X304800Y79502D02*
X304800Y4699D01*
X304800Y113030D02*
X304800Y115570D01*
X304800Y149098D02*
X304800Y527812D01*
X304800Y869188D02*
X304800Y943102D01*
X304800Y976630D02*
X304800Y979170D01*
X304800Y1012698D02*
X304800Y1391412D01*
X304800Y1732788D02*
X304800Y2027301D01*
X317500Y75184D02*
X317500Y4699D01*
X317500Y153416D02*
X317500Y527812D01*
X317500Y869188D02*
X317500Y938784D01*
X317500Y1017016D02*
X317500Y1391412D01*
X317500Y1732788D02*
X317500Y2027301D01*
X330200Y79502D02*
X330200Y4699D01*
X330200Y113030D02*
X330200Y115570D01*
X330200Y149098D02*
X330200Y527812D01*
X330200Y869188D02*
X330200Y943102D01*
X330200Y976630D02*
X330200Y979170D01*
X330200Y1012698D02*
X330200Y1391412D01*
X330200Y1732788D02*
X330200Y2027301D01*
X342900Y75184D02*
X342900Y4699D01*
X342900Y153416D02*
X342900Y527812D01*
X342900Y869188D02*
X342900Y938784D01*
X342900Y1017016D02*
X342900Y1391412D01*
X342900Y1732788D02*
X342900Y2027301D01*
X355600Y79502D02*
X355600Y4699D01*
X355600Y113030D02*
X355600Y115570D01*
X355600Y149098D02*
X355600Y527812D01*
X355600Y869188D02*
X355600Y943102D01*
X355600Y976630D02*
X355600Y979170D01*
X355600Y1012698D02*
X355600Y1391412D01*
X355600Y1732788D02*
X355600Y2027301D01*
X368300Y75184D02*
X368300Y4699D01*
X368300Y153416D02*
X368300Y527812D01*
X368300Y869188D02*
X368300Y938784D01*
X368300Y1017016D02*
X368300Y1391412D01*
X368300Y1732788D02*
X368300Y2027301D01*
X381000Y79502D02*
X381000Y4699D01*
X381000Y113030D02*
X381000Y115570D01*
X381000Y149098D02*
X381000Y527812D01*
X381000Y869188D02*
X381000Y943102D01*
X381000Y976630D02*
X381000Y979170D01*
X381000Y1012698D02*
X381000Y1391412D01*
X381000Y1732788D02*
X381000Y2027301D01*
X393700Y75184D02*
X393700Y4699D01*
X393700Y153416D02*
X393700Y527812D01*
X393700Y869188D02*
X393700Y938784D01*
X393700Y1017016D02*
X393700Y1391412D01*
X393700Y1732788D02*
X393700Y2027301D01*
X406400Y79502D02*
X406400Y4699D01*
X406400Y113030D02*
X406400Y115570D01*
X406400Y149098D02*
X406400Y527812D01*
X406400Y869188D02*
X406400Y943102D01*
X406400Y976630D02*
X406400Y979170D01*
X406400Y1012698D02*
X406400Y1391412D01*
X406400Y1732788D02*
X406400Y2027301D01*
X419100Y75184D02*
X419100Y4699D01*
X419100Y153416D02*
X419100Y527812D01*
X419100Y869188D02*
X419100Y938784D01*
X419100Y1017016D02*
X419100Y1391412D01*
X419100Y1732788D02*
X419100Y2027301D01*
X431800Y79502D02*
X431800Y4699D01*
X431800Y113030D02*
X431800Y115570D01*
X431800Y149098D02*
X431800Y527812D01*
X431800Y869188D02*
X431800Y943102D01*
X431800Y976630D02*
X431800Y979170D01*
X431800Y1012698D02*
X431800Y1391412D01*
X431800Y1732788D02*
X431800Y2027301D01*
X444500Y75184D02*
X444500Y4699D01*
X444500Y153416D02*
X444500Y527812D01*
X444500Y869188D02*
X444500Y938784D01*
X444500Y1017016D02*
X444500Y1391412D01*
X444500Y1732788D02*
X444500Y2027301D01*
X457200Y79502D02*
X457200Y4699D01*
X457200Y113030D02*
X457200Y115570D01*
X457200Y149098D02*
X457200Y527812D01*
X457200Y869188D02*
X457200Y943102D01*
X457200Y976630D02*
X457200Y979170D01*
X457200Y1012698D02*
X457200Y1391412D01*
X457200Y1732788D02*
X457200Y2027301D01*
X469900Y75184D02*
X469900Y4699D01*
X469900Y153416D02*
X469900Y527812D01*
X469900Y869188D02*
X469900Y938784D01*
X469900Y1017016D02*
X469900Y1391412D01*
X469900Y1732788D02*
X469900Y2027301D01*
X482600Y79502D02*
X482600Y4699D01*
X482600Y113030D02*
X482600Y115570D01*
X482600Y149098D02*
X482600Y527812D01*
X482600Y869188D02*
X482600Y943102D01*
X482600Y976630D02*
X482600Y979170D01*
X482600Y1012698D02*
X482600Y1391412D01*
X482600Y1732788D02*
X482600Y2027301D01*
X495300Y75184D02*
X495300Y4699D01*
X495300Y153416D02*
X495300Y527812D01*
X495300Y869188D02*
X495300Y938784D01*
X495300Y1017016D02*
X495300Y1391412D01*
X495300Y1732788D02*
X495300Y2027301D01*
X508000Y79502D02*
X508000Y4699D01*
X508000Y113030D02*
X508000Y115570D01*
X508000Y149098D02*
X508000Y527812D01*
X508000Y869188D02*
X508000Y943102D01*
X508000Y976630D02*
X508000Y979170D01*
X508000Y1012698D02*
X508000Y1391412D01*
X508000Y1732788D02*
X508000Y2027301D01*
X520700Y75184D02*
X520700Y4699D01*
X520700Y153416D02*
X520700Y527812D01*
X520700Y869188D02*
X520700Y938784D01*
X520700Y1017016D02*
X520700Y1391412D01*
X520700Y1732788D02*
X520700Y2027301D01*
X533400Y79502D02*
X533400Y4699D01*
X533400Y113030D02*
X533400Y115570D01*
X533400Y149098D02*
X533400Y527812D01*
X533400Y869188D02*
X533400Y943102D01*
X533400Y976630D02*
X533400Y979170D01*
X533400Y1012698D02*
X533400Y1391412D01*
X533400Y1732788D02*
X533400Y2027301D01*
X546100Y75184D02*
X546100Y4699D01*
X546100Y153416D02*
X546100Y527812D01*
X546100Y869188D02*
X546100Y938784D01*
X546100Y1017016D02*
X546100Y1391412D01*
X546100Y1732788D02*
X546100Y2027301D01*
X558800Y79502D02*
X558800Y4699D01*
X558800Y113030D02*
X558800Y115570D01*
X558800Y149098D02*
X558800Y527812D01*
X558800Y869188D02*
X558800Y943102D01*
X558800Y976630D02*
X558800Y979170D01*
X558800Y1012698D02*
X558800Y1391412D01*
X558800Y1732788D02*
X558800Y2027301D01*
X571500Y75184D02*
X571500Y4699D01*
X571500Y153416D02*
X571500Y527812D01*
X571500Y869188D02*
X571500Y938784D01*
X571500Y1017016D02*
X571500Y1391412D01*
X571500Y1732788D02*
X571500Y2027301D01*
X584200Y79502D02*
X584200Y4699D01*
X584200Y113030D02*
X584200Y115570D01*
X584200Y149098D02*
X584200Y527812D01*
X584200Y869188D02*
X584200Y943102D01*
X584200Y976630D02*
X584200Y979170D01*
X584200Y1012698D02*
X584200Y1391412D01*
X584200Y1732788D02*
X584200Y2027301D01*
X596900Y75184D02*
X596900Y4699D01*
X596900Y153416D02*
X596900Y527812D01*
X596900Y869188D02*
X596900Y938784D01*
X596900Y1017016D02*
X596900Y1391412D01*
X596900Y1732788D02*
X596900Y2027301D01*
X609600Y79502D02*
X609600Y4699D01*
X609600Y113030D02*
X609600Y115570D01*
X609600Y149098D02*
X609600Y527812D01*
X609600Y869188D02*
X609600Y943102D01*
X609600Y976630D02*
X609600Y979170D01*
X609600Y1012698D02*
X609600Y1391412D01*
X609600Y1732788D02*
X609600Y2027301D01*
X622300Y75184D02*
X622300Y4699D01*
X622300Y153416D02*
X622300Y527812D01*
X622300Y869188D02*
X622300Y938784D01*
X622300Y1017016D02*
X622300Y1391412D01*
X622300Y1732788D02*
X622300Y2027301D01*
X635000Y79502D02*
X635000Y4699D01*
X635000Y113030D02*
X635000Y115570D01*
X635000Y149098D02*
X635000Y527812D01*
X635000Y869188D02*
X635000Y943102D01*
X635000Y976630D02*
X635000Y979170D01*
X635000Y1012698D02*
X635000Y1391412D01*
X635000Y1732788D02*
X635000Y2027301D01*
X647700Y75184D02*
X647700Y4699D01*
X647700Y153416D02*
X647700Y527812D01*
X647700Y869188D02*
X647700Y938784D01*
X647700Y1017016D02*
X647700Y1391412D01*
X647700Y1732788D02*
X647700Y2027301D01*
X660400Y79502D02*
X660400Y4699D01*
X660400Y113030D02*
X660400Y115570D01*
X660400Y149098D02*
X660400Y527812D01*
X660400Y869188D02*
X660400Y943102D01*
X660400Y976630D02*
X660400Y979170D01*
X660400Y1012698D02*
X660400Y1391412D01*
X660400Y1732788D02*
X660400Y2027301D01*
X673100Y75184D02*
X673100Y4699D01*
X673100Y153416D02*
X673100Y527812D01*
X673100Y869188D02*
X673100Y938784D01*
X673100Y1017016D02*
X673100Y1391412D01*
X673100Y1732788D02*
X673100Y2027301D01*
X685800Y79502D02*
X685800Y4699D01*
X685800Y113030D02*
X685800Y115570D01*
X685800Y149098D02*
X685800Y527812D01*
X685800Y869188D02*
X685800Y943102D01*
X685800Y976630D02*
X685800Y979170D01*
X685800Y1012698D02*
X685800Y1391412D01*
X685800Y1732788D02*
X685800Y2027301D01*
X698500Y75184D02*
X698500Y4699D01*
X698500Y153416D02*
X698500Y527812D01*
X698500Y869188D02*
X698500Y938784D01*
X698500Y1017016D02*
X698500Y1391412D01*
X698500Y1732788D02*
X698500Y2027301D01*
X711200Y79502D02*
X711200Y4699D01*
X711200Y113030D02*
X711200Y115570D01*
X711200Y149098D02*
X711200Y527812D01*
X711200Y869188D02*
X711200Y943102D01*
X711200Y976630D02*
X711200Y979170D01*
X711200Y1012698D02*
X711200Y1391412D01*
X711200Y1732788D02*
X711200Y2027301D01*
X723900Y75184D02*
X723900Y4699D01*
X723900Y153416D02*
X723900Y527812D01*
X723900Y869188D02*
X723900Y938784D01*
X723900Y1017016D02*
X723900Y1391412D01*
X723900Y1732788D02*
X723900Y2027301D01*
X736600Y79502D02*
X736600Y4699D01*
X736600Y113030D02*
X736600Y115570D01*
X736600Y149098D02*
X736600Y527812D01*
X736600Y869188D02*
X736600Y943102D01*
X736600Y976630D02*
X736600Y979170D01*
X736600Y1012698D02*
X736600Y1391412D01*
X736600Y1732788D02*
X736600Y2027301D01*
X749300Y75184D02*
X749300Y4699D01*
X749300Y153416D02*
X749300Y527812D01*
X749300Y869188D02*
X749300Y938784D01*
X749300Y1017016D02*
X749300Y1391412D01*
X749300Y1732788D02*
X749300Y2027301D01*
X762000Y79502D02*
X762000Y4699D01*
X762000Y113030D02*
X762000Y115570D01*
X762000Y149098D02*
X762000Y527812D01*
X762000Y869188D02*
X762000Y943102D01*
X762000Y976630D02*
X762000Y979170D01*
X762000Y1012698D02*
X762000Y1391412D01*
X762000Y1732788D02*
X762000Y2027301D01*
X774700Y75184D02*
X774700Y4699D01*
X774700Y153416D02*
X774700Y527812D01*
X774700Y869188D02*
X774700Y938784D01*
X774700Y1017016D02*
X774700Y1391412D01*
X774700Y1732788D02*
X774700Y2027301D01*
X787400Y79502D02*
X787400Y4699D01*
X787400Y113030D02*
X787400Y115570D01*
X787400Y149098D02*
X787400Y527812D01*
X787400Y869188D02*
X787400Y943102D01*
X787400Y976630D02*
X787400Y979170D01*
X787400Y1012698D02*
X787400Y1391412D01*
X787400Y1732788D02*
X787400Y2027301D01*
X800100Y75184D02*
X800100Y4699D01*
X800100Y153416D02*
X800100Y527812D01*
X800100Y869188D02*
X800100Y938784D01*
X800100Y1017016D02*
X800100Y1391412D01*
X800100Y1732788D02*
X800100Y2027301D01*
X812800Y79502D02*
X812800Y4699D01*
X812800Y113030D02*
X812800Y115570D01*
X812800Y149098D02*
X812800Y527812D01*
X812800Y869188D02*
X812800Y943102D01*
X812800Y976630D02*
X812800Y979170D01*
X812800Y1012698D02*
X812800Y1391412D01*
X812800Y1732788D02*
X812800Y2027301D01*
X825500Y75184D02*
X825500Y4699D01*
X825500Y153416D02*
X825500Y527812D01*
X825500Y869188D02*
X825500Y938784D01*
X825500Y1017016D02*
X825500Y1391412D01*
X825500Y1732788D02*
X825500Y2027301D01*
X838200Y79502D02*
X838200Y4699D01*
X838200Y113030D02*
X838200Y115570D01*
X838200Y149098D02*
X838200Y527812D01*
X838200Y869188D02*
X838200Y943102D01*
X838200Y976630D02*
X838200Y979170D01*
X838200Y1012698D02*
X838200Y1391412D01*
X838200Y1732788D02*
X838200Y2027301D01*
X850900Y75184D02*
X850900Y4699D01*
X850900Y153416D02*
X850900Y527812D01*
X850900Y869188D02*
X850900Y938784D01*
X850900Y1017016D02*
X850900Y1391412D01*
X850900Y1732788D02*
X850900Y2027301D01*
X863600Y79502D02*
X863600Y4699D01*
X863600Y113030D02*
X863600Y115570D01*
X863600Y149098D02*
X863600Y527812D01*
X863600Y869188D02*
X863600Y943102D01*
X863600Y976630D02*
X863600Y979170D01*
X863600Y1012698D02*
X863600Y1391412D01*
X863600Y1732788D02*
X863600Y2027301D01*
X876300Y75184D02*
X876300Y4699D01*
X876300Y153416D02*
X876300Y527812D01*
X876300Y869188D02*
X876300Y938784D01*
X876300Y1017016D02*
X876300Y1391412D01*
X876300Y1732788D02*
X876300Y2027301D01*
X889000Y79502D02*
X889000Y4699D01*
X889000Y113030D02*
X889000Y115570D01*
X889000Y149098D02*
X889000Y527812D01*
X889000Y869188D02*
X889000Y943102D01*
X889000Y976630D02*
X889000Y979170D01*
X889000Y1012698D02*
X889000Y1391412D01*
X889000Y1732788D02*
X889000Y2027301D01*
X901700Y75184D02*
X901700Y4699D01*
X901700Y153416D02*
X901700Y527812D01*
X901700Y869188D02*
X901700Y938784D01*
X901700Y1017016D02*
X901700Y1391412D01*
X901700Y1732788D02*
X901700Y2027301D01*
X914400Y79502D02*
X914400Y4699D01*
X914400Y113030D02*
X914400Y115570D01*
X914400Y149098D02*
X914400Y527812D01*
X914400Y869188D02*
X914400Y943102D01*
X914400Y976630D02*
X914400Y979170D01*
X914400Y1012698D02*
X914400Y1391412D01*
X914400Y1732788D02*
X914400Y2027301D01*
X927100Y75184D02*
X927100Y4699D01*
X927100Y153416D02*
X927100Y527812D01*
X927100Y869188D02*
X927100Y938784D01*
X927100Y1017016D02*
X927100Y1391412D01*
X927100Y1732788D02*
X927100Y2027301D01*
X939800Y79502D02*
X939800Y4699D01*
X939800Y113030D02*
X939800Y115570D01*
X939800Y149098D02*
X939800Y527812D01*
X939800Y869188D02*
X939800Y943102D01*
X939800Y976630D02*
X939800Y979170D01*
X939800Y1012698D02*
X939800Y1391412D01*
X939800Y1732788D02*
X939800Y2027301D01*
X952500Y75184D02*
X952500Y4699D01*
X952500Y153416D02*
X952500Y527812D01*
X952500Y869188D02*
X952500Y938784D01*
X952500Y1017016D02*
X952500Y1391412D01*
X952500Y1732788D02*
X952500Y2027301D01*
X965200Y79502D02*
X965200Y4699D01*
X965200Y113030D02*
X965200Y115570D01*
X965200Y149098D02*
X965200Y527812D01*
X965200Y869188D02*
X965200Y943102D01*
X965200Y976630D02*
X965200Y979170D01*
X965200Y1012698D02*
X965200Y1391412D01*
X965200Y1732788D02*
X965200Y2027301D01*
X977900Y75184D02*
X977900Y4699D01*
X977900Y153416D02*
X977900Y527812D01*
X977900Y869188D02*
X977900Y938784D01*
X977900Y1017016D02*
X977900Y1391412D01*
X977900Y1732788D02*
X977900Y2027301D01*
X990600Y79502D02*
X990600Y4699D01*
X990600Y113030D02*
X990600Y115570D01*
X990600Y149098D02*
X990600Y527812D01*
X990600Y869188D02*
X990600Y943102D01*
X990600Y976630D02*
X990600Y979170D01*
X990600Y1012698D02*
X990600Y1391412D01*
X990600Y1732788D02*
X990600Y2027301D01*
X1003300Y75184D02*
X1003300Y4699D01*
X1003300Y153416D02*
X1003300Y527812D01*
X1003300Y869188D02*
X1003300Y938784D01*
X1003300Y1017016D02*
X1003300Y1391412D01*
X1003300Y1732788D02*
X1003300Y2027301D01*
X1016000Y79502D02*
X1016000Y4699D01*
X1016000Y113030D02*
X1016000Y115570D01*
X1016000Y149098D02*
X1016000Y527812D01*
X1016000Y869188D02*
X1016000Y943102D01*
X1016000Y976630D02*
X1016000Y979170D01*
X1016000Y1012698D02*
X1016000Y1391412D01*
X1016000Y1732788D02*
X1016000Y2027301D01*
X1028700Y75184D02*
X1028700Y4699D01*
X1028700Y153416D02*
X1028700Y527812D01*
X1028700Y869188D02*
X1028700Y938784D01*
X1028700Y1017016D02*
X1028700Y1391412D01*
X1028700Y1732788D02*
X1028700Y2027301D01*
X1041400Y79502D02*
X1041400Y4699D01*
X1041400Y113030D02*
X1041400Y115570D01*
X1041400Y149098D02*
X1041400Y527812D01*
X1041400Y869188D02*
X1041400Y943102D01*
X1041400Y976630D02*
X1041400Y979170D01*
X1041400Y1012698D02*
X1041400Y1391412D01*
X1041400Y1732788D02*
X1041400Y2027301D01*
X1054100Y75184D02*
X1054100Y4699D01*
X1054100Y153416D02*
X1054100Y527812D01*
X1054100Y869188D02*
X1054100Y938784D01*
X1054100Y1017016D02*
X1054100Y1391412D01*
X1054100Y1732788D02*
X1054100Y2027301D01*
X1066800Y79502D02*
X1066800Y4699D01*
X1066800Y113030D02*
X1066800Y115570D01*
X1066800Y149098D02*
X1066800Y527812D01*
X1066800Y869188D02*
X1066800Y943102D01*
X1066800Y976630D02*
X1066800Y979170D01*
X1066800Y1012698D02*
X1066800Y1391412D01*
X1066800Y1732788D02*
X1066800Y2027301D01*
X1079500Y75184D02*
X1079500Y4699D01*
X1079500Y153416D02*
X1079500Y527812D01*
X1079500Y869188D02*
X1079500Y938784D01*
X1079500Y1017016D02*
X1079500Y1391412D01*
X1079500Y1732788D02*
X1079500Y2027301D01*
X1092200Y79502D02*
X1092200Y4699D01*
X1092200Y113030D02*
X1092200Y115570D01*
X1092200Y149098D02*
X1092200Y527812D01*
X1092200Y869188D02*
X1092200Y943102D01*
X1092200Y976630D02*
X1092200Y979170D01*
X1092200Y1012698D02*
X1092200Y1391412D01*
X1092200Y1732788D02*
X1092200Y2027301D01*
X1104900Y75184D02*
X1104900Y4699D01*
X1104900Y153416D02*
X1104900Y527812D01*
X1104900Y869188D02*
X1104900Y938784D01*
X1104900Y1017016D02*
X1104900Y1391412D01*
X1104900Y1732788D02*
X1104900Y2027301D01*
X1117600Y79502D02*
X1117600Y4699D01*
X1117600Y113030D02*
X1117600Y115570D01*
X1117600Y149098D02*
X1117600Y527812D01*
X1117600Y869188D02*
X1117600Y943102D01*
X1117600Y976630D02*
X1117600Y979170D01*
X1117600Y1012698D02*
X1117600Y1391412D01*
X1117600Y1732788D02*
X1117600Y2027301D01*
X1130300Y75184D02*
X1130300Y4699D01*
X1130300Y153416D02*
X1130300Y527812D01*
X1130300Y869188D02*
X1130300Y938784D01*
X1130300Y1017016D02*
X1130300Y1391412D01*
X1130300Y1732788D02*
X1130300Y2027301D01*
X1143000Y79502D02*
X1143000Y4699D01*
X1143000Y113030D02*
X1143000Y115570D01*
X1143000Y149098D02*
X1143000Y527812D01*
X1143000Y869188D02*
X1143000Y943102D01*
X1143000Y976630D02*
X1143000Y979170D01*
X1143000Y1012698D02*
X1143000Y1391412D01*
X1143000Y1732788D02*
X1143000Y2027301D01*
X1155700Y75184D02*
X1155700Y4699D01*
X1155700Y153416D02*
X1155700Y527812D01*
X1155700Y869188D02*
X1155700Y938784D01*
X1155700Y1017016D02*
X1155700Y1391412D01*
X1155700Y1732788D02*
X1155700Y2027301D01*
X1168400Y79502D02*
X1168400Y4699D01*
X1168400Y113030D02*
X1168400Y115570D01*
X1168400Y149098D02*
X1168400Y527812D01*
X1168400Y869188D02*
X1168400Y943102D01*
X1168400Y976630D02*
X1168400Y979170D01*
X1168400Y1012698D02*
X1168400Y1391412D01*
X1168400Y1732788D02*
X1168400Y2027301D01*
X1181100Y75184D02*
X1181100Y4699D01*
X1181100Y153416D02*
X1181100Y527812D01*
X1181100Y869188D02*
X1181100Y938784D01*
X1181100Y1017016D02*
X1181100Y1391412D01*
X1181100Y1732788D02*
X1181100Y2027301D01*
X1193800Y79502D02*
X1193800Y4699D01*
X1193800Y113030D02*
X1193800Y115570D01*
X1193800Y149098D02*
X1193800Y527812D01*
X1193800Y869188D02*
X1193800Y943102D01*
X1193800Y976630D02*
X1193800Y979170D01*
X1193800Y1012698D02*
X1193800Y1391412D01*
X1193800Y1732788D02*
X1193800Y2027301D01*
X1206500Y75184D02*
X1206500Y4699D01*
X1206500Y153416D02*
X1206500Y527812D01*
X1206500Y869188D02*
X1206500Y938784D01*
X1206500Y1017016D02*
X1206500Y1391412D01*
X1206500Y1732788D02*
X1206500Y2027301D01*
X1219200Y79502D02*
X1219200Y4699D01*
X1219200Y113030D02*
X1219200Y115570D01*
X1219200Y149098D02*
X1219200Y527812D01*
X1219200Y869188D02*
X1219200Y943102D01*
X1219200Y976630D02*
X1219200Y979170D01*
X1219200Y1012698D02*
X1219200Y1391412D01*
X1219200Y1732788D02*
X1219200Y2027301D01*
X1231900Y75184D02*
X1231900Y4699D01*
X1231900Y153416D02*
X1231900Y527812D01*
X1231900Y869188D02*
X1231900Y938784D01*
X1231900Y1017016D02*
X1231900Y1391412D01*
X1231900Y1732788D02*
X1231900Y2027301D01*
X1244600Y79502D02*
X1244600Y4699D01*
X1244600Y113030D02*
X1244600Y115570D01*
X1244600Y149098D02*
X1244600Y527812D01*
X1244600Y869188D02*
X1244600Y943102D01*
X1244600Y976630D02*
X1244600Y979170D01*
X1244600Y1012698D02*
X1244600Y1391412D01*
X1244600Y1732788D02*
X1244600Y2027301D01*
X1257300Y75184D02*
X1257300Y4699D01*
X1257300Y153416D02*
X1257300Y527812D01*
X1257300Y869188D02*
X1257300Y938784D01*
X1257300Y1017016D02*
X1257300Y1391412D01*
X1257300Y1732788D02*
X1257300Y2027301D01*
X1270000Y79502D02*
X1270000Y4699D01*
X1270000Y113030D02*
X1270000Y115570D01*
X1270000Y149098D02*
X1270000Y527812D01*
X1270000Y869188D02*
X1270000Y943102D01*
X1270000Y976630D02*
X1270000Y979170D01*
X1270000Y1012698D02*
X1270000Y1391412D01*
X1270000Y1732788D02*
X1270000Y2027301D01*
X1282700Y75184D02*
X1282700Y4699D01*
X1282700Y153416D02*
X1282700Y527812D01*
X1282700Y869188D02*
X1282700Y938784D01*
X1282700Y1017016D02*
X1282700Y1391412D01*
X1282700Y1732788D02*
X1282700Y2027301D01*
X1295400Y79502D02*
X1295400Y4699D01*
X1295400Y113030D02*
X1295400Y115570D01*
X1295400Y149098D02*
X1295400Y527812D01*
X1295400Y869188D02*
X1295400Y943102D01*
X1295400Y976630D02*
X1295400Y979170D01*
X1295400Y1012698D02*
X1295400Y1391412D01*
X1295400Y1732788D02*
X1295400Y2027301D01*
X1308100Y75184D02*
X1308100Y4699D01*
X1308100Y153416D02*
X1308100Y527812D01*
X1308100Y869188D02*
X1308100Y938784D01*
X1308100Y1017016D02*
X1308100Y1391412D01*
X1308100Y1732788D02*
X1308100Y2027301D01*
X1320800Y79502D02*
X1320800Y4699D01*
X1320800Y113030D02*
X1320800Y115570D01*
X1320800Y149098D02*
X1320800Y527812D01*
X1320800Y869188D02*
X1320800Y943102D01*
X1320800Y976630D02*
X1320800Y979170D01*
X1320800Y1012698D02*
X1320800Y1391412D01*
X1320800Y1732788D02*
X1320800Y2027301D01*
X1333500Y75184D02*
X1333500Y4699D01*
X1333500Y153416D02*
X1333500Y527812D01*
X1333500Y869188D02*
X1333500Y938784D01*
X1333500Y1017016D02*
X1333500Y1391412D01*
X1333500Y1732788D02*
X1333500Y2027301D01*
X1346200Y79502D02*
X1346200Y4699D01*
X1346200Y113030D02*
X1346200Y115570D01*
X1346200Y149098D02*
X1346200Y527812D01*
X1346200Y869188D02*
X1346200Y943102D01*
X1346200Y976630D02*
X1346200Y979170D01*
X1346200Y1012698D02*
X1346200Y1391412D01*
X1346200Y1732788D02*
X1346200Y2027301D01*
X1358900Y75184D02*
X1358900Y4699D01*
X1358900Y153416D02*
X1358900Y527812D01*
X1358900Y869188D02*
X1358900Y938784D01*
X1358900Y1017016D02*
X1358900Y1391412D01*
X1358900Y1732788D02*
X1358900Y2027301D01*
X1371600Y79502D02*
X1371600Y4699D01*
X1371600Y113030D02*
X1371600Y115570D01*
X1371600Y149098D02*
X1371600Y527812D01*
X1371600Y869188D02*
X1371600Y943102D01*
X1371600Y976630D02*
X1371600Y979170D01*
X1371600Y1012698D02*
X1371600Y1391412D01*
X1371600Y1732788D02*
X1371600Y2027301D01*
X1384300Y75184D02*
X1384300Y4699D01*
X1384300Y153416D02*
X1384300Y527812D01*
X1384300Y869188D02*
X1384300Y938784D01*
X1384300Y1017016D02*
X1384300Y1391412D01*
X1384300Y1732788D02*
X1384300Y2027301D01*
X1397000Y79502D02*
X1397000Y4699D01*
X1397000Y113030D02*
X1397000Y115570D01*
X1397000Y149098D02*
X1397000Y527812D01*
X1397000Y869188D02*
X1397000Y943102D01*
X1397000Y976630D02*
X1397000Y979170D01*
X1397000Y1012698D02*
X1397000Y1391412D01*
X1397000Y1732788D02*
X1397000Y2027301D01*
X1409700Y75184D02*
X1409700Y4699D01*
X1409700Y153416D02*
X1409700Y527812D01*
X1409700Y869188D02*
X1409700Y938784D01*
X1409700Y1017016D02*
X1409700Y1391412D01*
X1409700Y1732788D02*
X1409700Y2027301D01*
X1422400Y79502D02*
X1422400Y4699D01*
X1422400Y113030D02*
X1422400Y115570D01*
X1422400Y149098D02*
X1422400Y527812D01*
X1422400Y869188D02*
X1422400Y943102D01*
X1422400Y976630D02*
X1422400Y979170D01*
X1422400Y1012698D02*
X1422400Y1391412D01*
X1422400Y1732788D02*
X1422400Y2027301D01*
X1435100Y75184D02*
X1435100Y4699D01*
X1435100Y153416D02*
X1435100Y527812D01*
X1435100Y869188D02*
X1435100Y938784D01*
X1435100Y1017016D02*
X1435100Y1391412D01*
X1435100Y1732788D02*
X1435100Y2027301D01*
X1447800Y79502D02*
X1447800Y4699D01*
X1447800Y113030D02*
X1447800Y115570D01*
X1447800Y149098D02*
X1447800Y527812D01*
X1447800Y869188D02*
X1447800Y943102D01*
X1447800Y976630D02*
X1447800Y979170D01*
X1447800Y1012698D02*
X1447800Y1391412D01*
X1447800Y1732788D02*
X1447800Y2027301D01*
X1460500Y75184D02*
X1460500Y4699D01*
X1460500Y153416D02*
X1460500Y527812D01*
X1460500Y869188D02*
X1460500Y938784D01*
X1460500Y1017016D02*
X1460500Y1391412D01*
X1460500Y1732788D02*
X1460500Y2027301D01*
X1473200Y79502D02*
X1473200Y4699D01*
X1473200Y113030D02*
X1473200Y115570D01*
X1473200Y149098D02*
X1473200Y527812D01*
X1473200Y869188D02*
X1473200Y943102D01*
X1473200Y976630D02*
X1473200Y979170D01*
X1473200Y1012698D02*
X1473200Y1391412D01*
X1473200Y1732788D02*
X1473200Y2027301D01*
X1485900Y75184D02*
X1485900Y4699D01*
X1485900Y153416D02*
X1485900Y527812D01*
X1485900Y869188D02*
X1485900Y938784D01*
X1485900Y1017016D02*
X1485900Y1391412D01*
X1485900Y1732788D02*
X1485900Y2027301D01*
X1498600Y79502D02*
X1498600Y4699D01*
X1498600Y113030D02*
X1498600Y115570D01*
X1498600Y149098D02*
X1498600Y527812D01*
X1498600Y869188D02*
X1498600Y943102D01*
X1498600Y976630D02*
X1498600Y979170D01*
X1498600Y1012698D02*
X1498600Y1391412D01*
X1498600Y1732788D02*
X1498600Y2027301D01*
X1511300Y75184D02*
X1511300Y4699D01*
X1511300Y153416D02*
X1511300Y527812D01*
X1511300Y869188D02*
X1511300Y938784D01*
X1511300Y1017016D02*
X1511300Y1391412D01*
X1511300Y1732788D02*
X1511300Y2027301D01*
X1524000Y79502D02*
X1524000Y4699D01*
X1524000Y113030D02*
X1524000Y115570D01*
X1524000Y149098D02*
X1524000Y527812D01*
X1524000Y869188D02*
X1524000Y943102D01*
X1524000Y976630D02*
X1524000Y979170D01*
X1524000Y1012698D02*
X1524000Y1391412D01*
X1524000Y1732788D02*
X1524000Y2027301D01*
X1536700Y75184D02*
X1536700Y4699D01*
X1536700Y153416D02*
X1536700Y527812D01*
X1536700Y869188D02*
X1536700Y938784D01*
X1536700Y1017016D02*
X1536700Y1391412D01*
X1536700Y1732788D02*
X1536700Y2027301D01*
X1549400Y79502D02*
X1549400Y4699D01*
X1549400Y113030D02*
X1549400Y115570D01*
X1549400Y149098D02*
X1549400Y527812D01*
X1549400Y869188D02*
X1549400Y943102D01*
X1549400Y976630D02*
X1549400Y979170D01*
X1549400Y1012698D02*
X1549400Y1391412D01*
X1549400Y1732788D02*
X1549400Y2027301D01*
X1562100Y75184D02*
X1562100Y4699D01*
X1562100Y153416D02*
X1562100Y527812D01*
X1562100Y869188D02*
X1562100Y938784D01*
X1562100Y1017016D02*
X1562100Y1391412D01*
X1562100Y1732788D02*
X1562100Y2027301D01*
X1574800Y79502D02*
X1574800Y4699D01*
X1574800Y113030D02*
X1574800Y115570D01*
X1574800Y149098D02*
X1574800Y527812D01*
X1574800Y869188D02*
X1574800Y943102D01*
X1574800Y976630D02*
X1574800Y979170D01*
X1574800Y1012698D02*
X1574800Y1391412D01*
X1574800Y1732788D02*
X1574800Y2027301D01*
X1587500Y75184D02*
X1587500Y4699D01*
X1587500Y153416D02*
X1587500Y527812D01*
X1587500Y869188D02*
X1587500Y938784D01*
X1587500Y1017016D02*
X1587500Y1391412D01*
X1587500Y1732788D02*
X1587500Y2027301D01*
X1600200Y79502D02*
X1600200Y4699D01*
X1600200Y113030D02*
X1600200Y115570D01*
X1600200Y149098D02*
X1600200Y527812D01*
X1600200Y869188D02*
X1600200Y943102D01*
X1600200Y976630D02*
X1600200Y979170D01*
X1600200Y1012698D02*
X1600200Y1391412D01*
X1600200Y1732788D02*
X1600200Y2027301D01*
X1612900Y75184D02*
X1612900Y4699D01*
X1612900Y153416D02*
X1612900Y527812D01*
X1612900Y869188D02*
X1612900Y938784D01*
X1612900Y1017016D02*
X1612900Y1391412D01*
X1612900Y1732788D02*
X1612900Y2027301D01*
X1625600Y79502D02*
X1625600Y4699D01*
X1625600Y113030D02*
X1625600Y115570D01*
X1625600Y149098D02*
X1625600Y527812D01*
X1625600Y869188D02*
X1625600Y943102D01*
X1625600Y976630D02*
X1625600Y979170D01*
X1625600Y1012698D02*
X1625600Y1391412D01*
X1625600Y1732788D02*
X1625600Y2027301D01*
X1638300Y75184D02*
X1638300Y4699D01*
X1638300Y153416D02*
X1638300Y527812D01*
X1638300Y869188D02*
X1638300Y938784D01*
X1638300Y1017016D02*
X1638300Y1391412D01*
X1638300Y1732788D02*
X1638300Y2027301D01*
X1651000Y79502D02*
X1651000Y4699D01*
X1651000Y113030D02*
X1651000Y115570D01*
X1651000Y149098D02*
X1651000Y527812D01*
X1651000Y869188D02*
X1651000Y943102D01*
X1651000Y976630D02*
X1651000Y979170D01*
X1651000Y1012698D02*
X1651000Y1391412D01*
X1651000Y1732788D02*
X1651000Y2027301D01*
X1663700Y75184D02*
X1663700Y4699D01*
X1663700Y153416D02*
X1663700Y527812D01*
X1663700Y869188D02*
X1663700Y938784D01*
X1663700Y1017016D02*
X1663700Y1391412D01*
X1663700Y1732788D02*
X1663700Y2027301D01*
X1676400Y79502D02*
X1676400Y4699D01*
X1676400Y113030D02*
X1676400Y115570D01*
X1676400Y149098D02*
X1676400Y527812D01*
X1676400Y869188D02*
X1676400Y943102D01*
X1676400Y976630D02*
X1676400Y979170D01*
X1676400Y1012698D02*
X1676400Y1391412D01*
X1676400Y1732788D02*
X1676400Y2027301D01*
X1689100Y75184D02*
X1689100Y4699D01*
X1689100Y153416D02*
X1689100Y527812D01*
X1689100Y869188D02*
X1689100Y938784D01*
X1689100Y1017016D02*
X1689100Y1391412D01*
X1689100Y1732788D02*
X1689100Y2027301D01*
X1701800Y79502D02*
X1701800Y4699D01*
X1701800Y113030D02*
X1701800Y115570D01*
X1701800Y149098D02*
X1701800Y527812D01*
X1701800Y869188D02*
X1701800Y943102D01*
X1701800Y976630D02*
X1701800Y979170D01*
X1701800Y1012698D02*
X1701800Y1391412D01*
X1701800Y1732788D02*
X1701800Y2027301D01*
X1714500Y75184D02*
X1714500Y4699D01*
X1714500Y153416D02*
X1714500Y527812D01*
X1714500Y869188D02*
X1714500Y938784D01*
X1714500Y1017016D02*
X1714500Y1391412D01*
X1714500Y1732788D02*
X1714500Y2027301D01*
X1727200Y79502D02*
X1727200Y4699D01*
X1727200Y113030D02*
X1727200Y115570D01*
X1727200Y149098D02*
X1727200Y527812D01*
X1727200Y869188D02*
X1727200Y943102D01*
X1727200Y976630D02*
X1727200Y979170D01*
X1727200Y1012698D02*
X1727200Y1391412D01*
X1727200Y1732788D02*
X1727200Y2027301D01*
X1739900Y75184D02*
X1739900Y4699D01*
X1739900Y153416D02*
X1739900Y527812D01*
X1739900Y869188D02*
X1739900Y938784D01*
X1739900Y1017016D02*
X1739900Y1391412D01*
X1739900Y1732788D02*
X1739900Y2027301D01*
X1752600Y79502D02*
X1752600Y4699D01*
X1752600Y113030D02*
X1752600Y115570D01*
X1752600Y149098D02*
X1752600Y527812D01*
X1752600Y869188D02*
X1752600Y943102D01*
X1752600Y976630D02*
X1752600Y979170D01*
X1752600Y1012698D02*
X1752600Y1391412D01*
X1752600Y1732788D02*
X1752600Y2027301D01*
X1765300Y75184D02*
X1765300Y4699D01*
X1765300Y153416D02*
X1765300Y527812D01*
X1765300Y869188D02*
X1765300Y938784D01*
X1765300Y1017016D02*
X1765300Y1391412D01*
X1765300Y1732788D02*
X1765300Y2027301D01*
X1778000Y79502D02*
X1778000Y4699D01*
X1778000Y113030D02*
X1778000Y115570D01*
X1778000Y149098D02*
X1778000Y527812D01*
X1778000Y869188D02*
X1778000Y943102D01*
X1778000Y976630D02*
X1778000Y979170D01*
X1778000Y1012698D02*
X1778000Y1391412D01*
X1778000Y1732788D02*
X1778000Y2027301D01*
X1790700Y75184D02*
X1790700Y4699D01*
X1790700Y153416D02*
X1790700Y527812D01*
X1790700Y869188D02*
X1790700Y938784D01*
X1790700Y1017016D02*
X1790700Y1391412D01*
X1790700Y1732788D02*
X1790700Y2027301D01*
X1803400Y79502D02*
X1803400Y4699D01*
X1803400Y113030D02*
X1803400Y115570D01*
X1803400Y149098D02*
X1803400Y527812D01*
X1803400Y869188D02*
X1803400Y943102D01*
X1803400Y976630D02*
X1803400Y979170D01*
X1803400Y1012698D02*
X1803400Y1391412D01*
X1803400Y1732788D02*
X1803400Y2027301D01*
X1816100Y75184D02*
X1816100Y4699D01*
X1816100Y153416D02*
X1816100Y527812D01*
X1816100Y869188D02*
X1816100Y938784D01*
X1816100Y1017016D02*
X1816100Y1391412D01*
X1816100Y1732788D02*
X1816100Y2027301D01*
X1828800Y79502D02*
X1828800Y4699D01*
X1828800Y113030D02*
X1828800Y115570D01*
X1828800Y149098D02*
X1828800Y527812D01*
X1828800Y869188D02*
X1828800Y943102D01*
X1828800Y976630D02*
X1828800Y979170D01*
X1828800Y1012698D02*
X1828800Y1391412D01*
X1828800Y1732788D02*
X1828800Y2027301D01*
X1841500Y75184D02*
X1841500Y4699D01*
X1841500Y153416D02*
X1841500Y527812D01*
X1841500Y869188D02*
X1841500Y938784D01*
X1841500Y1017016D02*
X1841500Y1391412D01*
X1841500Y1732788D02*
X1841500Y2027301D01*
X1854200Y79502D02*
X1854200Y4699D01*
X1854200Y113030D02*
X1854200Y115570D01*
X1854200Y149098D02*
X1854200Y527812D01*
X1854200Y869188D02*
X1854200Y943102D01*
X1854200Y976630D02*
X1854200Y979170D01*
X1854200Y1012698D02*
X1854200Y1391412D01*
X1854200Y1732788D02*
X1854200Y2027301D01*
X1866900Y75184D02*
X1866900Y4699D01*
X1866900Y153416D02*
X1866900Y527812D01*
X1866900Y869188D02*
X1866900Y938784D01*
X1866900Y1017016D02*
X1866900Y1391412D01*
X1866900Y1732788D02*
X1866900Y2027301D01*
X1879600Y83719D02*
X1879600Y4699D01*
X1879600Y94081D02*
X1879600Y110645D01*
X1879600Y113030D02*
X1879600Y115570D01*
X1879600Y117955D02*
X1879600Y134519D01*
X1879600Y144881D02*
X1879600Y527812D01*
X1879600Y869188D02*
X1879600Y947319D01*
X1879600Y957681D02*
X1879600Y974245D01*
X1879600Y976630D02*
X1879600Y979170D01*
X1879600Y981555D02*
X1879600Y998119D01*
X1879600Y1008481D02*
X1879600Y1391412D01*
X1879600Y1732788D02*
X1879600Y2027301D01*
X1892300Y527812D02*
X1892300Y4699D01*
X1892300Y869188D02*
X1892300Y1391412D01*
X1892300Y1732788D02*
X1892300Y2027301D01*
X1905000Y2027301D02*
X1905000Y4699D01*
X1917700Y4699D02*
X1917700Y2027301D01*
X1930400Y2027301D02*
X1930400Y4699D01*
X1943100Y4699D02*
X1943100Y2027301D01*
X1955800Y2027301D02*
X1955800Y4699D01*
X1968500Y4699D02*
X1968500Y2027301D01*
X1981200Y2027301D02*
X1981200Y4699D01*
X1993900Y4699D02*
X1993900Y2027301D01*
X2006600Y2027301D02*
X2006600Y4699D01*
X2019300Y4699D02*
X2019300Y2027301D01*
D14*
X177800Y1358900D02*
X127000Y1358900D01*
X177800Y1358900D02*
X215900Y1320800D01*
X215900Y1028700D01*
X241300Y1003300D01*
X266700Y1003300D01*
X1866900Y1003300D01*
X127000Y1041400D02*
X127000Y1079500D01*
X127000Y1041400D02*
X215900Y952500D01*
X1866900Y952500D01*
X127000Y215900D02*
X127000Y177800D01*
X215900Y88900D01*
X1866900Y88900D01*
X215900Y406400D02*
X127000Y495300D01*
X215900Y406400D02*
X215900Y165100D01*
X241300Y139700D01*
X1866900Y139700D01*
M02*
