G04 EAGLE Gerber RS-274X export*
G75*
%MOMM*%
%FSLAX34Y34*%
%LPD*%
%INTop Copper*%
%IPPOS*%
%AMOC8*
5,1,8,0,0,1.08239X$1,22.5*%
G01*
%ADD10C,0.381000*%
%ADD11C,3.048000*%
%ADD12C,1.879600*%
%ADD13C,5.461000*%
%ADD14C,1.016000*%
%ADD15C,0.508000*%


D10*
X1820184Y14605D02*
X1820184Y36195D01*
X1832179Y14605D01*
X1832179Y36195D01*
X1842758Y36195D02*
X1842758Y14605D01*
X1842758Y36195D02*
X1848755Y36195D01*
X1848908Y36193D01*
X1849061Y36187D01*
X1849214Y36177D01*
X1849367Y36164D01*
X1849519Y36146D01*
X1849670Y36125D01*
X1849821Y36099D01*
X1849972Y36070D01*
X1850121Y36037D01*
X1850270Y36000D01*
X1850418Y35960D01*
X1850564Y35916D01*
X1850710Y35867D01*
X1850854Y35816D01*
X1850997Y35760D01*
X1851138Y35701D01*
X1851278Y35639D01*
X1851416Y35572D01*
X1851552Y35503D01*
X1851687Y35429D01*
X1851820Y35353D01*
X1851950Y35273D01*
X1852079Y35190D01*
X1852205Y35103D01*
X1852329Y35013D01*
X1852451Y34921D01*
X1852571Y34825D01*
X1852687Y34726D01*
X1852802Y34624D01*
X1852914Y34519D01*
X1853023Y34411D01*
X1853129Y34301D01*
X1853232Y34188D01*
X1853333Y34072D01*
X1853430Y33954D01*
X1853524Y33834D01*
X1853616Y33711D01*
X1853704Y33585D01*
X1853789Y33458D01*
X1853870Y33328D01*
X1853949Y33197D01*
X1854023Y33063D01*
X1854095Y32927D01*
X1854163Y32790D01*
X1854227Y32651D01*
X1854288Y32511D01*
X1854345Y32369D01*
X1854399Y32225D01*
X1854449Y32080D01*
X1854495Y31934D01*
X1854538Y31787D01*
X1854576Y31639D01*
X1854611Y31490D01*
X1854642Y31340D01*
X1854670Y31189D01*
X1854693Y31038D01*
X1854712Y30886D01*
X1854728Y30733D01*
X1854740Y30581D01*
X1854748Y30428D01*
X1854752Y30275D01*
X1854752Y30121D01*
X1854748Y29968D01*
X1854740Y29815D01*
X1854728Y29663D01*
X1854712Y29510D01*
X1854693Y29358D01*
X1854670Y29207D01*
X1854642Y29056D01*
X1854611Y28906D01*
X1854576Y28757D01*
X1854538Y28609D01*
X1854495Y28462D01*
X1854449Y28316D01*
X1854399Y28171D01*
X1854345Y28027D01*
X1854288Y27885D01*
X1854227Y27745D01*
X1854163Y27606D01*
X1854095Y27469D01*
X1854023Y27333D01*
X1853949Y27200D01*
X1853870Y27068D01*
X1853789Y26938D01*
X1853704Y26811D01*
X1853616Y26685D01*
X1853524Y26562D01*
X1853430Y26442D01*
X1853333Y26324D01*
X1853232Y26208D01*
X1853129Y26095D01*
X1853023Y25985D01*
X1852914Y25877D01*
X1852802Y25772D01*
X1852687Y25670D01*
X1852571Y25571D01*
X1852451Y25475D01*
X1852329Y25383D01*
X1852205Y25293D01*
X1852079Y25206D01*
X1851950Y25123D01*
X1851820Y25043D01*
X1851687Y24967D01*
X1851552Y24893D01*
X1851416Y24824D01*
X1851278Y24757D01*
X1851138Y24695D01*
X1850997Y24636D01*
X1850854Y24580D01*
X1850710Y24529D01*
X1850564Y24480D01*
X1850418Y24436D01*
X1850270Y24396D01*
X1850121Y24359D01*
X1849972Y24326D01*
X1849821Y24297D01*
X1849670Y24271D01*
X1849519Y24250D01*
X1849367Y24232D01*
X1849214Y24219D01*
X1849061Y24209D01*
X1848908Y24203D01*
X1848755Y24201D01*
X1842758Y24201D01*
X1862638Y20602D02*
X1862638Y30198D01*
X1862640Y30351D01*
X1862646Y30504D01*
X1862656Y30657D01*
X1862669Y30810D01*
X1862687Y30962D01*
X1862708Y31113D01*
X1862734Y31264D01*
X1862763Y31415D01*
X1862796Y31564D01*
X1862833Y31713D01*
X1862873Y31861D01*
X1862917Y32007D01*
X1862966Y32153D01*
X1863017Y32297D01*
X1863073Y32440D01*
X1863132Y32581D01*
X1863194Y32721D01*
X1863261Y32859D01*
X1863330Y32995D01*
X1863404Y33130D01*
X1863480Y33263D01*
X1863560Y33393D01*
X1863643Y33522D01*
X1863730Y33648D01*
X1863820Y33772D01*
X1863912Y33894D01*
X1864008Y34014D01*
X1864107Y34130D01*
X1864209Y34245D01*
X1864314Y34357D01*
X1864422Y34466D01*
X1864532Y34572D01*
X1864645Y34675D01*
X1864761Y34776D01*
X1864879Y34873D01*
X1864999Y34967D01*
X1865122Y35059D01*
X1865248Y35147D01*
X1865375Y35232D01*
X1865505Y35313D01*
X1865637Y35392D01*
X1865770Y35466D01*
X1865906Y35538D01*
X1866043Y35606D01*
X1866182Y35670D01*
X1866322Y35731D01*
X1866464Y35788D01*
X1866608Y35842D01*
X1866753Y35892D01*
X1866899Y35938D01*
X1867046Y35981D01*
X1867194Y36019D01*
X1867343Y36054D01*
X1867493Y36085D01*
X1867644Y36113D01*
X1867795Y36136D01*
X1867947Y36155D01*
X1868100Y36171D01*
X1868252Y36183D01*
X1868405Y36191D01*
X1868558Y36195D01*
X1868712Y36195D01*
X1868865Y36191D01*
X1869018Y36183D01*
X1869170Y36171D01*
X1869323Y36155D01*
X1869475Y36136D01*
X1869626Y36113D01*
X1869777Y36085D01*
X1869927Y36054D01*
X1870076Y36019D01*
X1870224Y35981D01*
X1870371Y35938D01*
X1870517Y35892D01*
X1870662Y35842D01*
X1870806Y35788D01*
X1870948Y35731D01*
X1871088Y35670D01*
X1871227Y35606D01*
X1871364Y35538D01*
X1871500Y35466D01*
X1871634Y35392D01*
X1871765Y35313D01*
X1871895Y35232D01*
X1872022Y35147D01*
X1872148Y35059D01*
X1872271Y34967D01*
X1872391Y34873D01*
X1872509Y34776D01*
X1872625Y34675D01*
X1872738Y34572D01*
X1872848Y34466D01*
X1872956Y34357D01*
X1873061Y34245D01*
X1873163Y34130D01*
X1873262Y34014D01*
X1873358Y33894D01*
X1873450Y33772D01*
X1873540Y33648D01*
X1873627Y33522D01*
X1873710Y33393D01*
X1873790Y33263D01*
X1873866Y33130D01*
X1873940Y32995D01*
X1874009Y32859D01*
X1874076Y32721D01*
X1874138Y32581D01*
X1874197Y32440D01*
X1874253Y32297D01*
X1874304Y32153D01*
X1874353Y32007D01*
X1874397Y31861D01*
X1874437Y31713D01*
X1874474Y31564D01*
X1874507Y31415D01*
X1874536Y31264D01*
X1874562Y31113D01*
X1874583Y30962D01*
X1874601Y30810D01*
X1874614Y30657D01*
X1874624Y30504D01*
X1874630Y30351D01*
X1874632Y30198D01*
X1874632Y20602D01*
X1874630Y20449D01*
X1874624Y20296D01*
X1874614Y20143D01*
X1874601Y19990D01*
X1874583Y19838D01*
X1874562Y19687D01*
X1874536Y19536D01*
X1874507Y19385D01*
X1874474Y19236D01*
X1874437Y19087D01*
X1874397Y18939D01*
X1874353Y18793D01*
X1874304Y18647D01*
X1874253Y18503D01*
X1874197Y18360D01*
X1874138Y18219D01*
X1874076Y18079D01*
X1874009Y17941D01*
X1873940Y17805D01*
X1873866Y17670D01*
X1873790Y17537D01*
X1873710Y17407D01*
X1873627Y17278D01*
X1873540Y17152D01*
X1873450Y17028D01*
X1873358Y16906D01*
X1873262Y16786D01*
X1873163Y16670D01*
X1873061Y16555D01*
X1872956Y16443D01*
X1872848Y16334D01*
X1872738Y16228D01*
X1872625Y16125D01*
X1872509Y16024D01*
X1872391Y15927D01*
X1872271Y15833D01*
X1872148Y15741D01*
X1872022Y15653D01*
X1871895Y15568D01*
X1871765Y15487D01*
X1871634Y15408D01*
X1871500Y15334D01*
X1871364Y15262D01*
X1871227Y15194D01*
X1871088Y15130D01*
X1870948Y15069D01*
X1870806Y15012D01*
X1870662Y14958D01*
X1870517Y14908D01*
X1870371Y14862D01*
X1870224Y14819D01*
X1870076Y14781D01*
X1869927Y14746D01*
X1869777Y14715D01*
X1869626Y14687D01*
X1869475Y14664D01*
X1869323Y14645D01*
X1869170Y14629D01*
X1869018Y14617D01*
X1868865Y14609D01*
X1868712Y14605D01*
X1868558Y14605D01*
X1868405Y14609D01*
X1868252Y14617D01*
X1868100Y14629D01*
X1867947Y14645D01*
X1867795Y14664D01*
X1867644Y14687D01*
X1867493Y14715D01*
X1867343Y14746D01*
X1867194Y14781D01*
X1867046Y14819D01*
X1866899Y14862D01*
X1866753Y14908D01*
X1866608Y14958D01*
X1866464Y15012D01*
X1866322Y15069D01*
X1866182Y15130D01*
X1866043Y15194D01*
X1865906Y15262D01*
X1865770Y15334D01*
X1865637Y15408D01*
X1865505Y15487D01*
X1865375Y15568D01*
X1865248Y15653D01*
X1865122Y15741D01*
X1864999Y15833D01*
X1864879Y15927D01*
X1864761Y16024D01*
X1864645Y16125D01*
X1864532Y16228D01*
X1864422Y16334D01*
X1864314Y16443D01*
X1864209Y16555D01*
X1864107Y16670D01*
X1864008Y16786D01*
X1863912Y16906D01*
X1863820Y17028D01*
X1863730Y17152D01*
X1863643Y17278D01*
X1863560Y17407D01*
X1863480Y17537D01*
X1863404Y17670D01*
X1863330Y17805D01*
X1863261Y17941D01*
X1863194Y18079D01*
X1863132Y18219D01*
X1863073Y18360D01*
X1863017Y18503D01*
X1862966Y18647D01*
X1862917Y18793D01*
X1862873Y18939D01*
X1862833Y19087D01*
X1862796Y19236D01*
X1862763Y19385D01*
X1862734Y19536D01*
X1862708Y19687D01*
X1862687Y19838D01*
X1862669Y19990D01*
X1862656Y20143D01*
X1862646Y20296D01*
X1862640Y20449D01*
X1862638Y20602D01*
X1883517Y20602D02*
X1883517Y30198D01*
X1883519Y30351D01*
X1883525Y30504D01*
X1883535Y30657D01*
X1883548Y30810D01*
X1883566Y30962D01*
X1883587Y31113D01*
X1883613Y31264D01*
X1883642Y31415D01*
X1883675Y31564D01*
X1883712Y31713D01*
X1883752Y31861D01*
X1883796Y32007D01*
X1883845Y32153D01*
X1883896Y32297D01*
X1883952Y32440D01*
X1884011Y32581D01*
X1884073Y32721D01*
X1884140Y32859D01*
X1884209Y32995D01*
X1884283Y33130D01*
X1884359Y33263D01*
X1884439Y33393D01*
X1884522Y33522D01*
X1884609Y33648D01*
X1884699Y33772D01*
X1884791Y33894D01*
X1884887Y34014D01*
X1884986Y34130D01*
X1885088Y34245D01*
X1885193Y34357D01*
X1885301Y34466D01*
X1885411Y34572D01*
X1885524Y34675D01*
X1885640Y34776D01*
X1885758Y34873D01*
X1885878Y34967D01*
X1886001Y35059D01*
X1886127Y35147D01*
X1886254Y35232D01*
X1886384Y35313D01*
X1886516Y35392D01*
X1886649Y35466D01*
X1886785Y35538D01*
X1886922Y35606D01*
X1887061Y35670D01*
X1887201Y35731D01*
X1887343Y35788D01*
X1887487Y35842D01*
X1887632Y35892D01*
X1887778Y35938D01*
X1887925Y35981D01*
X1888073Y36019D01*
X1888222Y36054D01*
X1888372Y36085D01*
X1888523Y36113D01*
X1888674Y36136D01*
X1888826Y36155D01*
X1888979Y36171D01*
X1889131Y36183D01*
X1889284Y36191D01*
X1889437Y36195D01*
X1889591Y36195D01*
X1889744Y36191D01*
X1889897Y36183D01*
X1890049Y36171D01*
X1890202Y36155D01*
X1890354Y36136D01*
X1890505Y36113D01*
X1890656Y36085D01*
X1890806Y36054D01*
X1890955Y36019D01*
X1891103Y35981D01*
X1891250Y35938D01*
X1891396Y35892D01*
X1891541Y35842D01*
X1891685Y35788D01*
X1891827Y35731D01*
X1891967Y35670D01*
X1892106Y35606D01*
X1892243Y35538D01*
X1892379Y35466D01*
X1892513Y35392D01*
X1892644Y35313D01*
X1892774Y35232D01*
X1892901Y35147D01*
X1893027Y35059D01*
X1893150Y34967D01*
X1893270Y34873D01*
X1893388Y34776D01*
X1893504Y34675D01*
X1893617Y34572D01*
X1893727Y34466D01*
X1893835Y34357D01*
X1893940Y34245D01*
X1894042Y34130D01*
X1894141Y34014D01*
X1894237Y33894D01*
X1894329Y33772D01*
X1894419Y33648D01*
X1894506Y33522D01*
X1894589Y33393D01*
X1894669Y33263D01*
X1894745Y33130D01*
X1894819Y32995D01*
X1894888Y32859D01*
X1894955Y32721D01*
X1895017Y32581D01*
X1895076Y32440D01*
X1895132Y32297D01*
X1895183Y32153D01*
X1895232Y32007D01*
X1895276Y31861D01*
X1895316Y31713D01*
X1895353Y31564D01*
X1895386Y31415D01*
X1895415Y31264D01*
X1895441Y31113D01*
X1895462Y30962D01*
X1895480Y30810D01*
X1895493Y30657D01*
X1895503Y30504D01*
X1895509Y30351D01*
X1895511Y30198D01*
X1895511Y20602D01*
X1895509Y20449D01*
X1895503Y20296D01*
X1895493Y20143D01*
X1895480Y19990D01*
X1895462Y19838D01*
X1895441Y19687D01*
X1895415Y19536D01*
X1895386Y19385D01*
X1895353Y19236D01*
X1895316Y19087D01*
X1895276Y18939D01*
X1895232Y18793D01*
X1895183Y18647D01*
X1895132Y18503D01*
X1895076Y18360D01*
X1895017Y18219D01*
X1894955Y18079D01*
X1894888Y17941D01*
X1894819Y17805D01*
X1894745Y17670D01*
X1894669Y17537D01*
X1894589Y17407D01*
X1894506Y17278D01*
X1894419Y17152D01*
X1894329Y17028D01*
X1894237Y16906D01*
X1894141Y16786D01*
X1894042Y16670D01*
X1893940Y16555D01*
X1893835Y16443D01*
X1893727Y16334D01*
X1893617Y16228D01*
X1893504Y16125D01*
X1893388Y16024D01*
X1893270Y15927D01*
X1893150Y15833D01*
X1893027Y15741D01*
X1892901Y15653D01*
X1892774Y15568D01*
X1892644Y15487D01*
X1892513Y15408D01*
X1892379Y15334D01*
X1892243Y15262D01*
X1892106Y15194D01*
X1891967Y15130D01*
X1891827Y15069D01*
X1891685Y15012D01*
X1891541Y14958D01*
X1891396Y14908D01*
X1891250Y14862D01*
X1891103Y14819D01*
X1890955Y14781D01*
X1890806Y14746D01*
X1890656Y14715D01*
X1890505Y14687D01*
X1890354Y14664D01*
X1890202Y14645D01*
X1890049Y14629D01*
X1889897Y14617D01*
X1889744Y14609D01*
X1889591Y14605D01*
X1889437Y14605D01*
X1889284Y14609D01*
X1889131Y14617D01*
X1888979Y14629D01*
X1888826Y14645D01*
X1888674Y14664D01*
X1888523Y14687D01*
X1888372Y14715D01*
X1888222Y14746D01*
X1888073Y14781D01*
X1887925Y14819D01*
X1887778Y14862D01*
X1887632Y14908D01*
X1887487Y14958D01*
X1887343Y15012D01*
X1887201Y15069D01*
X1887061Y15130D01*
X1886922Y15194D01*
X1886785Y15262D01*
X1886649Y15334D01*
X1886516Y15408D01*
X1886384Y15487D01*
X1886254Y15568D01*
X1886127Y15653D01*
X1886001Y15741D01*
X1885878Y15833D01*
X1885758Y15927D01*
X1885640Y16024D01*
X1885524Y16125D01*
X1885411Y16228D01*
X1885301Y16334D01*
X1885193Y16443D01*
X1885088Y16555D01*
X1884986Y16670D01*
X1884887Y16786D01*
X1884791Y16906D01*
X1884699Y17028D01*
X1884609Y17152D01*
X1884522Y17278D01*
X1884439Y17407D01*
X1884359Y17537D01*
X1884283Y17670D01*
X1884209Y17805D01*
X1884140Y17941D01*
X1884073Y18079D01*
X1884011Y18219D01*
X1883952Y18360D01*
X1883896Y18503D01*
X1883845Y18647D01*
X1883796Y18793D01*
X1883752Y18939D01*
X1883712Y19087D01*
X1883675Y19236D01*
X1883642Y19385D01*
X1883613Y19536D01*
X1883587Y19687D01*
X1883566Y19838D01*
X1883548Y19990D01*
X1883535Y20143D01*
X1883525Y20296D01*
X1883519Y20449D01*
X1883517Y20602D01*
X1905141Y14605D02*
X1905141Y36195D01*
X1905141Y14605D02*
X1914737Y14605D01*
X1923236Y14605D02*
X1932832Y14605D01*
X1923236Y14605D02*
X1923236Y36195D01*
X1932832Y36195D01*
X1930433Y26599D02*
X1923236Y26599D01*
X1947182Y36195D02*
X1947328Y36193D01*
X1947474Y36187D01*
X1947620Y36177D01*
X1947766Y36163D01*
X1947911Y36146D01*
X1948055Y36124D01*
X1948199Y36098D01*
X1948342Y36069D01*
X1948485Y36035D01*
X1948626Y35998D01*
X1948766Y35957D01*
X1948906Y35912D01*
X1949043Y35864D01*
X1949180Y35812D01*
X1949315Y35756D01*
X1949449Y35696D01*
X1949580Y35633D01*
X1949710Y35566D01*
X1949839Y35496D01*
X1949965Y35422D01*
X1950089Y35345D01*
X1950211Y35265D01*
X1950331Y35181D01*
X1950449Y35094D01*
X1950564Y35004D01*
X1950677Y34911D01*
X1950787Y34815D01*
X1950894Y34716D01*
X1950999Y34614D01*
X1951101Y34509D01*
X1951200Y34402D01*
X1951296Y34292D01*
X1951389Y34179D01*
X1951479Y34064D01*
X1951566Y33946D01*
X1951650Y33826D01*
X1951730Y33704D01*
X1951807Y33580D01*
X1951881Y33454D01*
X1951951Y33325D01*
X1952018Y33195D01*
X1952081Y33064D01*
X1952141Y32930D01*
X1952197Y32795D01*
X1952249Y32658D01*
X1952297Y32521D01*
X1952342Y32381D01*
X1952383Y32241D01*
X1952420Y32100D01*
X1952454Y31957D01*
X1952483Y31814D01*
X1952509Y31670D01*
X1952531Y31526D01*
X1952548Y31381D01*
X1952562Y31235D01*
X1952572Y31089D01*
X1952578Y30943D01*
X1952580Y30797D01*
X1947182Y36195D02*
X1947014Y36193D01*
X1946847Y36187D01*
X1946679Y36177D01*
X1946512Y36163D01*
X1946346Y36144D01*
X1946179Y36122D01*
X1946014Y36096D01*
X1945849Y36066D01*
X1945685Y36031D01*
X1945521Y35993D01*
X1945359Y35951D01*
X1945198Y35905D01*
X1945038Y35855D01*
X1944879Y35801D01*
X1944721Y35744D01*
X1944565Y35682D01*
X1944411Y35617D01*
X1944258Y35548D01*
X1944107Y35476D01*
X1943957Y35400D01*
X1943810Y35320D01*
X1943664Y35236D01*
X1943521Y35150D01*
X1943380Y35059D01*
X1943240Y34966D01*
X1943104Y34869D01*
X1942969Y34769D01*
X1942837Y34665D01*
X1942708Y34558D01*
X1942581Y34449D01*
X1942457Y34336D01*
X1942336Y34220D01*
X1942217Y34101D01*
X1942101Y33980D01*
X1941989Y33856D01*
X1941879Y33729D01*
X1941773Y33599D01*
X1941669Y33467D01*
X1941569Y33333D01*
X1941473Y33196D01*
X1941379Y33057D01*
X1941289Y32915D01*
X1941202Y32772D01*
X1941119Y32626D01*
X1941040Y32478D01*
X1940964Y32329D01*
X1940891Y32178D01*
X1940823Y32025D01*
X1940758Y31870D01*
X1940696Y31714D01*
X1940639Y31556D01*
X1940585Y31397D01*
X1950780Y26599D02*
X1950888Y26705D01*
X1950994Y26814D01*
X1951096Y26925D01*
X1951196Y27039D01*
X1951293Y27156D01*
X1951386Y27275D01*
X1951477Y27396D01*
X1951564Y27520D01*
X1951648Y27646D01*
X1951728Y27774D01*
X1951806Y27904D01*
X1951880Y28036D01*
X1951950Y28171D01*
X1952017Y28306D01*
X1952080Y28444D01*
X1952140Y28583D01*
X1952196Y28724D01*
X1952248Y28866D01*
X1952297Y29009D01*
X1952341Y29154D01*
X1952382Y29300D01*
X1952420Y29447D01*
X1952453Y29594D01*
X1952482Y29743D01*
X1952508Y29892D01*
X1952530Y30042D01*
X1952547Y30192D01*
X1952561Y30343D01*
X1952571Y30494D01*
X1952577Y30646D01*
X1952579Y30797D01*
X1950780Y26599D02*
X1940585Y14605D01*
X1952580Y14605D01*
X1961464Y25400D02*
X1961469Y25825D01*
X1961484Y26249D01*
X1961510Y26673D01*
X1961545Y27096D01*
X1961591Y27519D01*
X1961646Y27940D01*
X1961712Y28359D01*
X1961788Y28777D01*
X1961873Y29193D01*
X1961969Y29607D01*
X1962074Y30019D01*
X1962189Y30428D01*
X1962314Y30834D01*
X1962449Y31237D01*
X1962593Y31636D01*
X1962746Y32032D01*
X1962909Y32424D01*
X1963082Y32812D01*
X1963263Y33196D01*
X1963307Y33320D01*
X1963355Y33442D01*
X1963407Y33562D01*
X1963462Y33681D01*
X1963520Y33798D01*
X1963582Y33914D01*
X1963648Y34027D01*
X1963716Y34139D01*
X1963788Y34249D01*
X1963864Y34356D01*
X1963942Y34461D01*
X1964023Y34564D01*
X1964108Y34664D01*
X1964195Y34762D01*
X1964285Y34857D01*
X1964378Y34949D01*
X1964474Y35039D01*
X1964572Y35126D01*
X1964673Y35210D01*
X1964776Y35291D01*
X1964881Y35368D01*
X1964989Y35443D01*
X1965099Y35514D01*
X1965211Y35582D01*
X1965325Y35647D01*
X1965441Y35709D01*
X1965558Y35767D01*
X1965678Y35821D01*
X1965799Y35872D01*
X1965921Y35919D01*
X1966044Y35963D01*
X1966169Y36003D01*
X1966295Y36039D01*
X1966422Y36072D01*
X1966550Y36100D01*
X1966679Y36125D01*
X1966808Y36147D01*
X1966938Y36164D01*
X1967068Y36178D01*
X1967199Y36187D01*
X1967330Y36193D01*
X1967461Y36195D01*
X1967592Y36193D01*
X1967723Y36187D01*
X1967854Y36178D01*
X1967984Y36164D01*
X1968114Y36147D01*
X1968243Y36125D01*
X1968372Y36100D01*
X1968500Y36072D01*
X1968627Y36039D01*
X1968753Y36003D01*
X1968878Y35963D01*
X1969001Y35919D01*
X1969123Y35872D01*
X1969244Y35821D01*
X1969364Y35767D01*
X1969481Y35709D01*
X1969597Y35647D01*
X1969711Y35582D01*
X1969823Y35514D01*
X1969933Y35443D01*
X1970041Y35368D01*
X1970146Y35291D01*
X1970249Y35210D01*
X1970350Y35126D01*
X1970448Y35039D01*
X1970544Y34949D01*
X1970637Y34857D01*
X1970727Y34762D01*
X1970814Y34664D01*
X1970899Y34564D01*
X1970980Y34461D01*
X1971058Y34356D01*
X1971134Y34249D01*
X1971206Y34139D01*
X1971274Y34027D01*
X1971340Y33914D01*
X1971402Y33798D01*
X1971460Y33681D01*
X1971515Y33562D01*
X1971567Y33442D01*
X1971615Y33320D01*
X1971659Y33196D01*
X1971660Y33197D02*
X1971841Y32813D01*
X1972014Y32424D01*
X1972177Y32032D01*
X1972330Y31636D01*
X1972474Y31237D01*
X1972609Y30834D01*
X1972734Y30428D01*
X1972849Y30019D01*
X1972954Y29607D01*
X1973050Y29194D01*
X1973135Y28777D01*
X1973211Y28360D01*
X1973277Y27940D01*
X1973332Y27519D01*
X1973378Y27096D01*
X1973413Y26673D01*
X1973439Y26249D01*
X1973454Y25825D01*
X1973459Y25400D01*
X1961464Y25400D02*
X1961469Y24975D01*
X1961484Y24551D01*
X1961510Y24127D01*
X1961545Y23704D01*
X1961591Y23281D01*
X1961646Y22860D01*
X1961712Y22441D01*
X1961788Y22023D01*
X1961873Y21607D01*
X1961969Y21193D01*
X1962074Y20781D01*
X1962189Y20372D01*
X1962314Y19966D01*
X1962449Y19564D01*
X1962593Y19164D01*
X1962746Y18768D01*
X1962909Y18376D01*
X1963082Y17988D01*
X1963263Y17604D01*
X1963307Y17480D01*
X1963355Y17358D01*
X1963407Y17238D01*
X1963462Y17119D01*
X1963520Y17002D01*
X1963582Y16886D01*
X1963648Y16773D01*
X1963716Y16661D01*
X1963788Y16551D01*
X1963864Y16444D01*
X1963942Y16339D01*
X1964023Y16236D01*
X1964108Y16136D01*
X1964195Y16038D01*
X1964285Y15943D01*
X1964378Y15851D01*
X1964474Y15761D01*
X1964572Y15674D01*
X1964673Y15590D01*
X1964776Y15509D01*
X1964881Y15432D01*
X1964989Y15357D01*
X1965099Y15286D01*
X1965211Y15218D01*
X1965325Y15153D01*
X1965441Y15091D01*
X1965559Y15033D01*
X1965678Y14979D01*
X1965799Y14928D01*
X1965921Y14881D01*
X1966044Y14837D01*
X1966169Y14797D01*
X1966295Y14761D01*
X1966422Y14728D01*
X1966550Y14700D01*
X1966679Y14675D01*
X1966808Y14653D01*
X1966938Y14636D01*
X1967068Y14622D01*
X1967199Y14613D01*
X1967330Y14607D01*
X1967461Y14605D01*
X1971660Y17603D02*
X1971841Y17987D01*
X1972014Y18376D01*
X1972177Y18768D01*
X1972330Y19164D01*
X1972474Y19563D01*
X1972609Y19966D01*
X1972734Y20372D01*
X1972849Y20781D01*
X1972954Y21193D01*
X1973050Y21607D01*
X1973135Y22023D01*
X1973211Y22440D01*
X1973277Y22860D01*
X1973332Y23281D01*
X1973378Y23704D01*
X1973413Y24127D01*
X1973439Y24551D01*
X1973454Y24975D01*
X1973459Y25400D01*
X1971659Y17604D02*
X1971615Y17480D01*
X1971567Y17358D01*
X1971515Y17238D01*
X1971460Y17119D01*
X1971402Y17002D01*
X1971340Y16886D01*
X1971274Y16773D01*
X1971206Y16661D01*
X1971134Y16551D01*
X1971058Y16444D01*
X1970980Y16339D01*
X1970899Y16236D01*
X1970814Y16136D01*
X1970727Y16038D01*
X1970637Y15943D01*
X1970544Y15851D01*
X1970448Y15761D01*
X1970350Y15674D01*
X1970249Y15590D01*
X1970146Y15509D01*
X1970041Y15432D01*
X1969933Y15357D01*
X1969823Y15286D01*
X1969711Y15218D01*
X1969597Y15153D01*
X1969481Y15091D01*
X1969364Y15033D01*
X1969244Y14979D01*
X1969123Y14928D01*
X1969001Y14881D01*
X1968878Y14837D01*
X1968753Y14797D01*
X1968627Y14761D01*
X1968500Y14728D01*
X1968372Y14700D01*
X1968243Y14675D01*
X1968114Y14653D01*
X1967984Y14636D01*
X1967854Y14622D01*
X1967723Y14613D01*
X1967592Y14607D01*
X1967461Y14605D01*
X1962663Y19403D02*
X1972259Y31397D01*
X1988940Y36195D02*
X1989086Y36193D01*
X1989232Y36187D01*
X1989378Y36177D01*
X1989524Y36163D01*
X1989669Y36146D01*
X1989813Y36124D01*
X1989957Y36098D01*
X1990100Y36069D01*
X1990243Y36035D01*
X1990384Y35998D01*
X1990524Y35957D01*
X1990664Y35912D01*
X1990801Y35864D01*
X1990938Y35812D01*
X1991073Y35756D01*
X1991207Y35696D01*
X1991338Y35633D01*
X1991468Y35566D01*
X1991597Y35496D01*
X1991723Y35422D01*
X1991847Y35345D01*
X1991969Y35265D01*
X1992089Y35181D01*
X1992207Y35094D01*
X1992322Y35004D01*
X1992435Y34911D01*
X1992545Y34815D01*
X1992652Y34716D01*
X1992757Y34614D01*
X1992859Y34509D01*
X1992958Y34402D01*
X1993054Y34292D01*
X1993147Y34179D01*
X1993237Y34064D01*
X1993324Y33946D01*
X1993408Y33826D01*
X1993488Y33704D01*
X1993565Y33580D01*
X1993639Y33454D01*
X1993709Y33325D01*
X1993776Y33195D01*
X1993839Y33064D01*
X1993899Y32930D01*
X1993955Y32795D01*
X1994007Y32658D01*
X1994055Y32521D01*
X1994100Y32381D01*
X1994141Y32241D01*
X1994178Y32100D01*
X1994212Y31957D01*
X1994241Y31814D01*
X1994267Y31670D01*
X1994289Y31526D01*
X1994306Y31381D01*
X1994320Y31235D01*
X1994330Y31089D01*
X1994336Y30943D01*
X1994338Y30797D01*
X1988940Y36195D02*
X1988772Y36193D01*
X1988605Y36187D01*
X1988437Y36177D01*
X1988270Y36163D01*
X1988104Y36144D01*
X1987937Y36122D01*
X1987772Y36096D01*
X1987607Y36066D01*
X1987443Y36031D01*
X1987279Y35993D01*
X1987117Y35951D01*
X1986956Y35905D01*
X1986796Y35855D01*
X1986637Y35801D01*
X1986479Y35744D01*
X1986323Y35682D01*
X1986169Y35617D01*
X1986016Y35548D01*
X1985865Y35476D01*
X1985715Y35400D01*
X1985568Y35320D01*
X1985422Y35236D01*
X1985279Y35150D01*
X1985138Y35059D01*
X1984998Y34966D01*
X1984862Y34869D01*
X1984727Y34769D01*
X1984595Y34665D01*
X1984466Y34558D01*
X1984339Y34449D01*
X1984215Y34336D01*
X1984094Y34220D01*
X1983975Y34101D01*
X1983859Y33980D01*
X1983747Y33856D01*
X1983637Y33729D01*
X1983531Y33599D01*
X1983427Y33467D01*
X1983327Y33333D01*
X1983231Y33196D01*
X1983137Y33057D01*
X1983047Y32915D01*
X1982960Y32772D01*
X1982877Y32626D01*
X1982798Y32478D01*
X1982722Y32329D01*
X1982649Y32178D01*
X1982581Y32025D01*
X1982516Y31870D01*
X1982454Y31714D01*
X1982397Y31556D01*
X1982343Y31397D01*
X1992538Y26599D02*
X1992646Y26705D01*
X1992752Y26814D01*
X1992854Y26925D01*
X1992954Y27039D01*
X1993051Y27156D01*
X1993144Y27275D01*
X1993235Y27396D01*
X1993322Y27520D01*
X1993406Y27646D01*
X1993486Y27774D01*
X1993564Y27904D01*
X1993638Y28036D01*
X1993708Y28171D01*
X1993775Y28306D01*
X1993838Y28444D01*
X1993898Y28583D01*
X1993954Y28724D01*
X1994006Y28866D01*
X1994055Y29009D01*
X1994099Y29154D01*
X1994140Y29300D01*
X1994178Y29447D01*
X1994211Y29594D01*
X1994240Y29743D01*
X1994266Y29892D01*
X1994288Y30042D01*
X1994305Y30192D01*
X1994319Y30343D01*
X1994329Y30494D01*
X1994335Y30646D01*
X1994337Y30797D01*
X1992538Y26599D02*
X1982343Y14605D01*
X1994337Y14605D01*
X2015216Y30797D02*
X2015214Y30943D01*
X2015208Y31089D01*
X2015198Y31235D01*
X2015184Y31381D01*
X2015167Y31526D01*
X2015145Y31670D01*
X2015119Y31814D01*
X2015090Y31957D01*
X2015056Y32100D01*
X2015019Y32241D01*
X2014978Y32381D01*
X2014933Y32521D01*
X2014885Y32658D01*
X2014833Y32795D01*
X2014777Y32930D01*
X2014717Y33064D01*
X2014654Y33195D01*
X2014587Y33325D01*
X2014517Y33454D01*
X2014443Y33580D01*
X2014366Y33704D01*
X2014286Y33826D01*
X2014202Y33946D01*
X2014115Y34064D01*
X2014025Y34179D01*
X2013932Y34292D01*
X2013836Y34402D01*
X2013737Y34509D01*
X2013635Y34614D01*
X2013530Y34716D01*
X2013423Y34815D01*
X2013313Y34911D01*
X2013200Y35004D01*
X2013085Y35094D01*
X2012967Y35181D01*
X2012847Y35265D01*
X2012725Y35345D01*
X2012601Y35422D01*
X2012475Y35496D01*
X2012346Y35566D01*
X2012216Y35633D01*
X2012085Y35696D01*
X2011951Y35756D01*
X2011816Y35812D01*
X2011679Y35864D01*
X2011542Y35912D01*
X2011402Y35957D01*
X2011262Y35998D01*
X2011121Y36035D01*
X2010978Y36069D01*
X2010835Y36098D01*
X2010691Y36124D01*
X2010547Y36146D01*
X2010402Y36163D01*
X2010256Y36177D01*
X2010110Y36187D01*
X2009964Y36193D01*
X2009818Y36195D01*
X2009650Y36193D01*
X2009483Y36187D01*
X2009315Y36177D01*
X2009148Y36163D01*
X2008982Y36144D01*
X2008815Y36122D01*
X2008650Y36096D01*
X2008485Y36066D01*
X2008321Y36031D01*
X2008157Y35993D01*
X2007995Y35951D01*
X2007834Y35905D01*
X2007674Y35855D01*
X2007515Y35801D01*
X2007357Y35744D01*
X2007201Y35682D01*
X2007047Y35617D01*
X2006894Y35548D01*
X2006743Y35476D01*
X2006593Y35400D01*
X2006446Y35320D01*
X2006300Y35236D01*
X2006157Y35150D01*
X2006016Y35059D01*
X2005876Y34966D01*
X2005740Y34869D01*
X2005605Y34769D01*
X2005473Y34665D01*
X2005344Y34558D01*
X2005217Y34449D01*
X2005093Y34336D01*
X2004972Y34220D01*
X2004853Y34101D01*
X2004737Y33980D01*
X2004625Y33856D01*
X2004515Y33729D01*
X2004409Y33599D01*
X2004305Y33467D01*
X2004205Y33333D01*
X2004109Y33196D01*
X2004015Y33057D01*
X2003925Y32915D01*
X2003838Y32772D01*
X2003755Y32626D01*
X2003676Y32478D01*
X2003600Y32329D01*
X2003527Y32178D01*
X2003459Y32025D01*
X2003394Y31870D01*
X2003332Y31714D01*
X2003275Y31556D01*
X2003221Y31397D01*
X2013417Y26599D02*
X2013525Y26705D01*
X2013631Y26814D01*
X2013733Y26925D01*
X2013833Y27039D01*
X2013930Y27156D01*
X2014023Y27275D01*
X2014114Y27396D01*
X2014201Y27520D01*
X2014285Y27646D01*
X2014365Y27774D01*
X2014443Y27904D01*
X2014517Y28036D01*
X2014587Y28171D01*
X2014654Y28306D01*
X2014717Y28444D01*
X2014777Y28583D01*
X2014833Y28724D01*
X2014885Y28866D01*
X2014934Y29009D01*
X2014978Y29154D01*
X2015019Y29300D01*
X2015057Y29447D01*
X2015090Y29594D01*
X2015119Y29743D01*
X2015145Y29892D01*
X2015167Y30042D01*
X2015184Y30192D01*
X2015198Y30343D01*
X2015208Y30494D01*
X2015214Y30646D01*
X2015216Y30797D01*
X2013417Y26599D02*
X2003221Y14605D01*
X2015216Y14605D01*
D11*
X466761Y1687442D03*
X488664Y1658107D03*
X489141Y1621502D03*
X468010Y1591607D03*
X433343Y1579841D03*
X398382Y1590700D03*
X376480Y1620034D03*
X376003Y1656640D03*
X397133Y1686535D03*
X720761Y1687442D03*
X742664Y1658107D03*
X743141Y1621502D03*
X722010Y1591607D03*
X687343Y1579841D03*
X652382Y1590700D03*
X630480Y1620034D03*
X630003Y1656640D03*
X651133Y1686535D03*
X974761Y1687442D03*
X996664Y1658107D03*
X997141Y1621502D03*
X976010Y1591607D03*
X941343Y1579841D03*
X906382Y1590700D03*
X884480Y1620034D03*
X884003Y1656640D03*
X905133Y1686535D03*
X1228761Y1687442D03*
X1250664Y1658107D03*
X1251141Y1621502D03*
X1230010Y1591607D03*
X1195343Y1579841D03*
X1160382Y1590700D03*
X1138480Y1620034D03*
X1138003Y1656640D03*
X1159133Y1686535D03*
X1482761Y1687442D03*
X1504664Y1658107D03*
X1505141Y1621502D03*
X1484010Y1591607D03*
X1449343Y1579841D03*
X1414382Y1590700D03*
X1392480Y1620034D03*
X1392003Y1656640D03*
X1413133Y1686535D03*
X1736761Y1687442D03*
X1758664Y1658107D03*
X1759141Y1621502D03*
X1738010Y1591607D03*
X1703343Y1579841D03*
X1668382Y1590700D03*
X1646480Y1620034D03*
X1646003Y1656640D03*
X1667133Y1686535D03*
X466761Y823842D03*
X488664Y794507D03*
X489141Y757902D03*
X468010Y728007D03*
X433343Y716241D03*
X398382Y727100D03*
X376480Y756434D03*
X376003Y793040D03*
X397133Y822935D03*
X720761Y823842D03*
X742664Y794507D03*
X743141Y757902D03*
X722010Y728007D03*
X687343Y716241D03*
X652382Y727100D03*
X630480Y756434D03*
X630003Y793040D03*
X651133Y822935D03*
X974761Y823842D03*
X996664Y794507D03*
X997141Y757902D03*
X976010Y728007D03*
X941343Y716241D03*
X906382Y727100D03*
X884480Y756434D03*
X884003Y793040D03*
X905133Y822935D03*
X1228761Y823842D03*
X1250664Y794507D03*
X1251141Y757902D03*
X1230010Y728007D03*
X1195343Y716241D03*
X1160382Y727100D03*
X1138480Y756434D03*
X1138003Y793040D03*
X1159133Y822935D03*
X1482761Y823842D03*
X1504664Y794507D03*
X1505141Y757902D03*
X1484010Y728007D03*
X1449343Y716241D03*
X1414382Y727100D03*
X1392480Y756434D03*
X1392003Y793040D03*
X1413133Y822935D03*
X1736761Y823842D03*
X1758664Y794507D03*
X1759141Y757902D03*
X1738010Y728007D03*
X1703343Y716241D03*
X1668382Y727100D03*
X1646480Y756434D03*
X1646003Y793040D03*
X1667133Y822935D03*
D12*
X266700Y114300D03*
X292100Y114300D03*
X317500Y114300D03*
X342900Y114300D03*
X368300Y114300D03*
X393700Y114300D03*
X419100Y114300D03*
X444500Y114300D03*
X469900Y114300D03*
X495300Y114300D03*
X520700Y114300D03*
X546100Y114300D03*
X571500Y114300D03*
X596900Y114300D03*
X622300Y114300D03*
X647700Y114300D03*
X673100Y114300D03*
X698500Y114300D03*
X723900Y114300D03*
X749300Y114300D03*
X774700Y114300D03*
X800100Y114300D03*
X825500Y114300D03*
X850900Y114300D03*
X876300Y114300D03*
X901700Y114300D03*
X927100Y114300D03*
X952500Y114300D03*
X977900Y114300D03*
X1003300Y114300D03*
X1028700Y114300D03*
X1054100Y114300D03*
X1079500Y114300D03*
X1104900Y114300D03*
X1130300Y114300D03*
X1155700Y114300D03*
X1181100Y114300D03*
X1206500Y114300D03*
X1231900Y114300D03*
X1257300Y114300D03*
X1282700Y114300D03*
X1308100Y114300D03*
X1333500Y114300D03*
X1358900Y114300D03*
X1384300Y114300D03*
X1409700Y114300D03*
X1435100Y114300D03*
X1460500Y114300D03*
X1485900Y114300D03*
X1511300Y114300D03*
X1536700Y114300D03*
X1562100Y114300D03*
X1587500Y114300D03*
X1612900Y114300D03*
X1638300Y114300D03*
X1663700Y114300D03*
X1689100Y114300D03*
X1714500Y114300D03*
X1739900Y114300D03*
X1765300Y114300D03*
X1790700Y114300D03*
X1816100Y114300D03*
X1841500Y114300D03*
X1866900Y114300D03*
X266700Y139700D03*
X292100Y139700D03*
X317500Y139700D03*
X342900Y139700D03*
X368300Y139700D03*
X393700Y139700D03*
X419100Y139700D03*
X444500Y139700D03*
X469900Y139700D03*
X495300Y139700D03*
X520700Y139700D03*
X546100Y139700D03*
X571500Y139700D03*
X596900Y139700D03*
X622300Y139700D03*
X647700Y139700D03*
X673100Y139700D03*
X698500Y139700D03*
X723900Y139700D03*
X749300Y139700D03*
X774700Y139700D03*
X800100Y139700D03*
X825500Y139700D03*
X850900Y139700D03*
X876300Y139700D03*
X901700Y139700D03*
X927100Y139700D03*
X952500Y139700D03*
X977900Y139700D03*
X1003300Y139700D03*
X1028700Y139700D03*
X1054100Y139700D03*
X1079500Y139700D03*
X1104900Y139700D03*
X1130300Y139700D03*
X1155700Y139700D03*
X1181100Y139700D03*
X1206500Y139700D03*
X1231900Y139700D03*
X1257300Y139700D03*
X1282700Y139700D03*
X1308100Y139700D03*
X1333500Y139700D03*
X1358900Y139700D03*
X1384300Y139700D03*
X1409700Y139700D03*
X1435100Y139700D03*
X1460500Y139700D03*
X1485900Y139700D03*
X1511300Y139700D03*
X1536700Y139700D03*
X1562100Y139700D03*
X1587500Y139700D03*
X1612900Y139700D03*
X1638300Y139700D03*
X1663700Y139700D03*
X1689100Y139700D03*
X1714500Y139700D03*
X1739900Y139700D03*
X1765300Y139700D03*
X1790700Y139700D03*
X1816100Y139700D03*
X1841500Y139700D03*
X1866900Y139700D03*
X266700Y1003300D03*
X292100Y1003300D03*
X317500Y1003300D03*
X342900Y1003300D03*
X368300Y1003300D03*
X393700Y1003300D03*
X419100Y1003300D03*
X444500Y1003300D03*
X469900Y1003300D03*
X495300Y1003300D03*
X520700Y1003300D03*
X546100Y1003300D03*
X571500Y1003300D03*
X596900Y1003300D03*
X622300Y1003300D03*
X647700Y1003300D03*
X673100Y1003300D03*
X698500Y1003300D03*
X723900Y1003300D03*
X749300Y1003300D03*
X774700Y1003300D03*
X800100Y1003300D03*
X825500Y1003300D03*
X850900Y1003300D03*
X876300Y1003300D03*
X901700Y1003300D03*
X927100Y1003300D03*
X952500Y1003300D03*
X977900Y1003300D03*
X1003300Y1003300D03*
X1028700Y1003300D03*
X1054100Y1003300D03*
X1079500Y1003300D03*
X1104900Y1003300D03*
X1130300Y1003300D03*
X1155700Y1003300D03*
X1181100Y1003300D03*
X1206500Y1003300D03*
X1231900Y1003300D03*
X1257300Y1003300D03*
X1282700Y1003300D03*
X1308100Y1003300D03*
X1333500Y1003300D03*
X1358900Y1003300D03*
X1384300Y1003300D03*
X1409700Y1003300D03*
X1435100Y1003300D03*
X1460500Y1003300D03*
X1485900Y1003300D03*
X1511300Y1003300D03*
X1536700Y1003300D03*
X1562100Y1003300D03*
X1587500Y1003300D03*
X1612900Y1003300D03*
X1638300Y1003300D03*
X1663700Y1003300D03*
X1689100Y1003300D03*
X1714500Y1003300D03*
X1739900Y1003300D03*
X1765300Y1003300D03*
X1790700Y1003300D03*
X1816100Y1003300D03*
X1841500Y1003300D03*
X1866900Y1003300D03*
X266700Y977900D03*
X292100Y977900D03*
X317500Y977900D03*
X342900Y977900D03*
X368300Y977900D03*
X393700Y977900D03*
X419100Y977900D03*
X444500Y977900D03*
X469900Y977900D03*
X495300Y977900D03*
X520700Y977900D03*
X546100Y977900D03*
X571500Y977900D03*
X596900Y977900D03*
X622300Y977900D03*
X647700Y977900D03*
X673100Y977900D03*
X698500Y977900D03*
X723900Y977900D03*
X749300Y977900D03*
X774700Y977900D03*
X800100Y977900D03*
X825500Y977900D03*
X850900Y977900D03*
X876300Y977900D03*
X901700Y977900D03*
X927100Y977900D03*
X952500Y977900D03*
X977900Y977900D03*
X1003300Y977900D03*
X1028700Y977900D03*
X1054100Y977900D03*
X1079500Y977900D03*
X1104900Y977900D03*
X1130300Y977900D03*
X1155700Y977900D03*
X1181100Y977900D03*
X1206500Y977900D03*
X1231900Y977900D03*
X1257300Y977900D03*
X1282700Y977900D03*
X1308100Y977900D03*
X1333500Y977900D03*
X1358900Y977900D03*
X1384300Y977900D03*
X1409700Y977900D03*
X1435100Y977900D03*
X1460500Y977900D03*
X1485900Y977900D03*
X1511300Y977900D03*
X1536700Y977900D03*
X1562100Y977900D03*
X1587500Y977900D03*
X1612900Y977900D03*
X1638300Y977900D03*
X1663700Y977900D03*
X1689100Y977900D03*
X1714500Y977900D03*
X1739900Y977900D03*
X1765300Y977900D03*
X1790700Y977900D03*
X1816100Y977900D03*
X1841500Y977900D03*
X1866900Y977900D03*
X266700Y952500D03*
X292100Y952500D03*
X317500Y952500D03*
X342900Y952500D03*
X368300Y952500D03*
X393700Y952500D03*
X419100Y952500D03*
X444500Y952500D03*
X469900Y952500D03*
X495300Y952500D03*
X520700Y952500D03*
X546100Y952500D03*
X571500Y952500D03*
X596900Y952500D03*
X622300Y952500D03*
X647700Y952500D03*
X673100Y952500D03*
X698500Y952500D03*
X723900Y952500D03*
X749300Y952500D03*
X774700Y952500D03*
X800100Y952500D03*
X825500Y952500D03*
X850900Y952500D03*
X876300Y952500D03*
X901700Y952500D03*
X927100Y952500D03*
X952500Y952500D03*
X977900Y952500D03*
X1003300Y952500D03*
X1028700Y952500D03*
X1054100Y952500D03*
X1079500Y952500D03*
X1104900Y952500D03*
X1130300Y952500D03*
X1155700Y952500D03*
X1181100Y952500D03*
X1206500Y952500D03*
X1231900Y952500D03*
X1257300Y952500D03*
X1282700Y952500D03*
X1308100Y952500D03*
X1333500Y952500D03*
X1358900Y952500D03*
X1384300Y952500D03*
X1409700Y952500D03*
X1435100Y952500D03*
X1460500Y952500D03*
X1485900Y952500D03*
X1511300Y952500D03*
X1536700Y952500D03*
X1562100Y952500D03*
X1587500Y952500D03*
X1612900Y952500D03*
X1638300Y952500D03*
X1663700Y952500D03*
X1689100Y952500D03*
X1714500Y952500D03*
X1739900Y952500D03*
X1765300Y952500D03*
X1790700Y952500D03*
X1816100Y952500D03*
X1841500Y952500D03*
X1866900Y952500D03*
X266700Y88900D03*
X292100Y88900D03*
X317500Y88900D03*
X342900Y88900D03*
X368300Y88900D03*
X393700Y88900D03*
X419100Y88900D03*
X444500Y88900D03*
X469900Y88900D03*
X495300Y88900D03*
X520700Y88900D03*
X546100Y88900D03*
X571500Y88900D03*
X596900Y88900D03*
X622300Y88900D03*
X647700Y88900D03*
X673100Y88900D03*
X698500Y88900D03*
X723900Y88900D03*
X749300Y88900D03*
X774700Y88900D03*
X800100Y88900D03*
X825500Y88900D03*
X850900Y88900D03*
X876300Y88900D03*
X901700Y88900D03*
X927100Y88900D03*
X952500Y88900D03*
X977900Y88900D03*
X1003300Y88900D03*
X1028700Y88900D03*
X1054100Y88900D03*
X1079500Y88900D03*
X1104900Y88900D03*
X1130300Y88900D03*
X1155700Y88900D03*
X1181100Y88900D03*
X1206500Y88900D03*
X1231900Y88900D03*
X1257300Y88900D03*
X1282700Y88900D03*
X1308100Y88900D03*
X1333500Y88900D03*
X1358900Y88900D03*
X1384300Y88900D03*
X1409700Y88900D03*
X1435100Y88900D03*
X1460500Y88900D03*
X1485900Y88900D03*
X1511300Y88900D03*
X1536700Y88900D03*
X1562100Y88900D03*
X1587500Y88900D03*
X1612900Y88900D03*
X1638300Y88900D03*
X1663700Y88900D03*
X1689100Y88900D03*
X1714500Y88900D03*
X1739900Y88900D03*
X1765300Y88900D03*
X1790700Y88900D03*
X1816100Y88900D03*
X1841500Y88900D03*
X1866900Y88900D03*
X520700Y1422400D03*
X495300Y1422400D03*
X469900Y1422400D03*
X444500Y1422400D03*
X419100Y1422400D03*
X393700Y1422400D03*
X368300Y1422400D03*
X342900Y1422400D03*
X317500Y1422400D03*
X774700Y1422400D03*
X749300Y1422400D03*
X723900Y1422400D03*
X698500Y1422400D03*
X673100Y1422400D03*
X647700Y1422400D03*
X622300Y1422400D03*
X596900Y1422400D03*
X571500Y1422400D03*
X1028700Y1422400D03*
X1003300Y1422400D03*
X977900Y1422400D03*
X952500Y1422400D03*
X927100Y1422400D03*
X901700Y1422400D03*
X876300Y1422400D03*
X850900Y1422400D03*
X825500Y1422400D03*
X1308100Y1422400D03*
X1282700Y1422400D03*
X1257300Y1422400D03*
X1231900Y1422400D03*
X1206500Y1422400D03*
X1181100Y1422400D03*
X1155700Y1422400D03*
X1130300Y1422400D03*
X1104900Y1422400D03*
X1562100Y1422400D03*
X1536700Y1422400D03*
X1511300Y1422400D03*
X1485900Y1422400D03*
X1460500Y1422400D03*
X1435100Y1422400D03*
X1409700Y1422400D03*
X1384300Y1422400D03*
X1358900Y1422400D03*
X1816100Y1422400D03*
X1790700Y1422400D03*
X1765300Y1422400D03*
X1739900Y1422400D03*
X1714500Y1422400D03*
X1689100Y1422400D03*
X1663700Y1422400D03*
X1638300Y1422400D03*
X1612900Y1422400D03*
X520700Y558800D03*
X495300Y558800D03*
X469900Y558800D03*
X444500Y558800D03*
X419100Y558800D03*
X393700Y558800D03*
X368300Y558800D03*
X342900Y558800D03*
X317500Y558800D03*
X774700Y558800D03*
X749300Y558800D03*
X723900Y558800D03*
X698500Y558800D03*
X673100Y558800D03*
X647700Y558800D03*
X622300Y558800D03*
X596900Y558800D03*
X571500Y558800D03*
X1028700Y558800D03*
X1003300Y558800D03*
X977900Y558800D03*
X952500Y558800D03*
X927100Y558800D03*
X901700Y558800D03*
X876300Y558800D03*
X850900Y558800D03*
X825500Y558800D03*
X1308100Y558800D03*
X1282700Y558800D03*
X1257300Y558800D03*
X1231900Y558800D03*
X1206500Y558800D03*
X1181100Y558800D03*
X1155700Y558800D03*
X1130300Y558800D03*
X1104900Y558800D03*
X1562100Y558800D03*
X1536700Y558800D03*
X1511300Y558800D03*
X1485900Y558800D03*
X1460500Y558800D03*
X1435100Y558800D03*
X1409700Y558800D03*
X1384300Y558800D03*
X1358900Y558800D03*
X1816100Y558800D03*
X1790700Y558800D03*
X1765300Y558800D03*
X1739900Y558800D03*
X1714500Y558800D03*
X1689100Y558800D03*
X1663700Y558800D03*
X1638300Y558800D03*
X1612900Y558800D03*
D13*
X127000Y1219200D03*
X127000Y355600D03*
X127000Y1358900D03*
X127000Y1079500D03*
X127000Y495300D03*
X127000Y215900D03*
D14*
X327635Y1686535D02*
X397133Y1686535D01*
X327635Y1686535D02*
X317500Y1676400D01*
X317500Y1422400D01*
X348540Y1656640D02*
X376003Y1656640D01*
X348540Y1656640D02*
X342900Y1651000D01*
X342900Y1422400D01*
X368300Y1611854D02*
X376480Y1620034D01*
X368300Y1611854D02*
X368300Y1422400D01*
X393700Y1586018D02*
X398382Y1590700D01*
X393700Y1586018D02*
X393700Y1422400D01*
X419100Y1565598D02*
X433343Y1579841D01*
X419100Y1565598D02*
X419100Y1422400D01*
X468010Y1560210D02*
X468010Y1591607D01*
X468010Y1560210D02*
X444500Y1536700D01*
X444500Y1422400D01*
X495300Y1615342D02*
X489141Y1621502D01*
X495300Y1615342D02*
X495300Y1549400D01*
X469900Y1524000D01*
X469900Y1422400D01*
X488664Y1658107D02*
X513593Y1658107D01*
X520700Y1651000D01*
X520700Y1536700D01*
X495300Y1511300D01*
X495300Y1422400D01*
X466761Y1687442D02*
X535058Y1687442D01*
X546100Y1676400D01*
X546100Y1524000D01*
X520700Y1498600D01*
X520700Y1422400D01*
X581635Y1686535D02*
X651133Y1686535D01*
X581635Y1686535D02*
X571500Y1676400D01*
X571500Y1422400D01*
X602540Y1656640D02*
X630003Y1656640D01*
X602540Y1656640D02*
X596900Y1651000D01*
X596900Y1422400D01*
X622300Y1611854D02*
X630480Y1620034D01*
X622300Y1611854D02*
X622300Y1422400D01*
X647700Y1586018D02*
X652382Y1590700D01*
X647700Y1586018D02*
X647700Y1422400D01*
X673100Y1565598D02*
X687343Y1579841D01*
X673100Y1565598D02*
X673100Y1422400D01*
X722010Y1560210D02*
X722010Y1591607D01*
X722010Y1560210D02*
X698500Y1536700D01*
X698500Y1422400D01*
X749300Y1615342D02*
X743141Y1621502D01*
X749300Y1615342D02*
X749300Y1549400D01*
X723900Y1524000D01*
X723900Y1422400D01*
X742664Y1658107D02*
X767593Y1658107D01*
X774700Y1651000D01*
X774700Y1536700D01*
X749300Y1511300D01*
X749300Y1422400D01*
X720761Y1687442D02*
X789058Y1687442D01*
X800100Y1676400D01*
X800100Y1524000D01*
X774700Y1498600D01*
X774700Y1422400D01*
X835635Y1686535D02*
X905133Y1686535D01*
X835635Y1686535D02*
X825500Y1676400D01*
X825500Y1422400D01*
X856540Y1656640D02*
X884003Y1656640D01*
X856540Y1656640D02*
X850900Y1651000D01*
X850900Y1422400D01*
X876300Y1611854D02*
X884480Y1620034D01*
X876300Y1611854D02*
X876300Y1422400D01*
X901700Y1586018D02*
X906382Y1590700D01*
X901700Y1586018D02*
X901700Y1422400D01*
X927100Y1565598D02*
X941343Y1579841D01*
X927100Y1565598D02*
X927100Y1422400D01*
X976010Y1560210D02*
X976010Y1591607D01*
X976010Y1560210D02*
X952500Y1536700D01*
X952500Y1422400D01*
X1003300Y1615342D02*
X997141Y1621502D01*
X1003300Y1549400D02*
X977900Y1524000D01*
X977900Y1422400D01*
X1003300Y1549400D02*
X1003300Y1615342D01*
X996664Y1658107D02*
X1021593Y1658107D01*
X1028700Y1651000D01*
X1028700Y1536700D01*
X1003300Y1511300D01*
X1003300Y1422400D01*
X974761Y1687442D02*
X1043058Y1687442D01*
X1054100Y1676400D01*
X1054100Y1524000D01*
X1028700Y1498600D01*
X1028700Y1422400D01*
X1089635Y1686535D02*
X1159133Y1686535D01*
X1089635Y1686535D02*
X1079500Y1676400D01*
X1079500Y1524000D01*
X1104900Y1498600D01*
X1104900Y1422400D01*
X1110540Y1656640D02*
X1138003Y1656640D01*
X1110540Y1656640D02*
X1104900Y1651000D01*
X1104900Y1536700D01*
X1130300Y1511300D01*
X1130300Y1422400D01*
X1130300Y1611854D02*
X1138480Y1620034D01*
X1130300Y1549400D02*
X1155700Y1524000D01*
X1155700Y1422400D01*
X1130300Y1549400D02*
X1130300Y1611854D01*
X1160382Y1590700D02*
X1160382Y1557418D01*
X1181100Y1536700D01*
X1181100Y1422400D01*
X1206500Y1568685D02*
X1195343Y1579841D01*
X1206500Y1568685D02*
X1206500Y1422400D01*
X1231900Y1589717D02*
X1230010Y1591607D01*
X1231900Y1589717D02*
X1231900Y1422400D01*
X1257300Y1615342D02*
X1251141Y1621502D01*
X1257300Y1615342D02*
X1257300Y1422400D01*
X1250664Y1658107D02*
X1275593Y1658107D01*
X1282700Y1651000D01*
X1282700Y1422400D01*
X1297058Y1687442D02*
X1228761Y1687442D01*
X1297058Y1687442D02*
X1308100Y1676400D01*
X1308100Y1422400D01*
X1343635Y1686535D02*
X1413133Y1686535D01*
X1343635Y1686535D02*
X1333500Y1676400D01*
X1333500Y1524000D01*
X1358900Y1498600D01*
X1358900Y1422400D01*
X1364540Y1656640D02*
X1392003Y1656640D01*
X1364540Y1656640D02*
X1358900Y1651000D01*
X1358900Y1536700D01*
X1384300Y1511300D01*
X1384300Y1422400D01*
X1384300Y1611854D02*
X1392480Y1620034D01*
X1384300Y1549400D02*
X1409700Y1524000D01*
X1409700Y1422400D01*
X1384300Y1549400D02*
X1384300Y1611854D01*
X1414382Y1590700D02*
X1414382Y1557418D01*
X1435100Y1536700D01*
X1435100Y1422400D01*
X1460500Y1568685D02*
X1449343Y1579841D01*
X1460500Y1568685D02*
X1460500Y1422400D01*
X1485900Y1589717D02*
X1484010Y1591607D01*
X1485900Y1589717D02*
X1485900Y1422400D01*
X1511300Y1615342D02*
X1505141Y1621502D01*
X1511300Y1615342D02*
X1511300Y1422400D01*
X1504664Y1658107D02*
X1529593Y1658107D01*
X1536700Y1651000D01*
X1536700Y1422400D01*
X1551058Y1687442D02*
X1482761Y1687442D01*
X1551058Y1687442D02*
X1562100Y1676400D01*
X1562100Y1422400D01*
X1597635Y1686535D02*
X1667133Y1686535D01*
X1597635Y1686535D02*
X1587500Y1676400D01*
X1587500Y1524000D01*
X1612900Y1498600D01*
X1612900Y1422400D01*
X1618540Y1656640D02*
X1646003Y1656640D01*
X1618540Y1656640D02*
X1612900Y1651000D01*
X1612900Y1536700D01*
X1638300Y1511300D01*
X1638300Y1422400D01*
X1646480Y1541220D02*
X1646480Y1620034D01*
X1646480Y1541220D02*
X1663700Y1524000D01*
X1663700Y1422400D01*
X1668382Y1557418D02*
X1668382Y1590700D01*
X1668382Y1557418D02*
X1689100Y1536700D01*
X1689100Y1422400D01*
X1714500Y1568685D02*
X1703343Y1579841D01*
X1714500Y1568685D02*
X1714500Y1422400D01*
D15*
X1739900Y1589717D02*
X1738010Y1591607D01*
D14*
X1739900Y1589717D02*
X1739900Y1422400D01*
X1765300Y1615342D02*
X1759141Y1621502D01*
X1765300Y1615342D02*
X1765300Y1422400D01*
X1758664Y1658107D02*
X1783593Y1658107D01*
X1790700Y1651000D01*
X1790700Y1422400D01*
X1805058Y1687442D02*
X1736761Y1687442D01*
X1805058Y1687442D02*
X1816100Y1676400D01*
X1816100Y1422400D01*
X397133Y822935D02*
X327635Y822935D01*
X317500Y812800D01*
X317500Y558800D01*
X348540Y793040D02*
X376003Y793040D01*
X348540Y793040D02*
X342900Y787400D01*
X342900Y558800D01*
X368300Y748254D02*
X376480Y756434D01*
X368300Y748254D02*
X368300Y558800D01*
X393700Y722418D02*
X398382Y727100D01*
X393700Y722418D02*
X393700Y558800D01*
X419100Y701998D02*
X433343Y716241D01*
X419100Y701998D02*
X419100Y558800D01*
X468010Y696610D02*
X468010Y728007D01*
X468010Y696610D02*
X444500Y673100D01*
X444500Y558800D01*
X495300Y751742D02*
X489141Y757902D01*
X495300Y685800D02*
X469900Y660400D01*
X469900Y558800D01*
X495300Y685800D02*
X495300Y751742D01*
X488664Y794507D02*
X513593Y794507D01*
X520700Y787400D01*
X520700Y673100D01*
X495300Y647700D01*
X495300Y558800D01*
X466761Y823842D02*
X535058Y823842D01*
X546100Y812800D01*
X546100Y660400D01*
X520700Y635000D01*
X520700Y558800D01*
X581635Y822935D02*
X651133Y822935D01*
X581635Y822935D02*
X571500Y812800D01*
X571500Y558800D01*
X602540Y793040D02*
X630003Y793040D01*
X602540Y793040D02*
X596900Y787400D01*
X596900Y558800D01*
X622300Y748254D02*
X630480Y756434D01*
X622300Y748254D02*
X622300Y558800D01*
X647700Y722418D02*
X652382Y727100D01*
X647700Y722418D02*
X647700Y558800D01*
X673100Y701998D02*
X687343Y716241D01*
X673100Y701998D02*
X673100Y558800D01*
X722010Y696610D02*
X722010Y728007D01*
X722010Y696610D02*
X698500Y673100D01*
X698500Y558800D01*
X749300Y751742D02*
X743141Y757902D01*
X749300Y751742D02*
X749300Y685800D01*
X723900Y660400D01*
X723900Y558800D01*
X742664Y794507D02*
X767593Y794507D01*
X774700Y787400D01*
X774700Y673100D01*
X749300Y647700D01*
X749300Y558800D01*
X720761Y823842D02*
X789058Y823842D01*
X800100Y812800D01*
X800100Y647700D01*
X774700Y622300D01*
X774700Y558800D01*
X835635Y822935D02*
X905133Y822935D01*
X835635Y822935D02*
X825500Y812800D01*
X825500Y558800D01*
X856540Y793040D02*
X884003Y793040D01*
X856540Y793040D02*
X850900Y787400D01*
X850900Y558800D01*
X876300Y748254D02*
X884480Y756434D01*
X876300Y748254D02*
X876300Y558800D01*
X901700Y722418D02*
X906382Y727100D01*
X901700Y722418D02*
X901700Y558800D01*
X927100Y701998D02*
X941343Y716241D01*
X927100Y701998D02*
X927100Y558800D01*
X976010Y696610D02*
X976010Y728007D01*
X976010Y696610D02*
X952500Y673100D01*
X952500Y558800D01*
X1003300Y751742D02*
X997141Y757902D01*
X1003300Y685800D02*
X977900Y660400D01*
X977900Y558800D01*
X1003300Y685800D02*
X1003300Y751742D01*
X996664Y794507D02*
X1021593Y794507D01*
X1028700Y787400D01*
X1028700Y673100D01*
X1003300Y647700D01*
X1003300Y558800D01*
X974761Y823842D02*
X1043058Y823842D01*
X1054100Y812800D01*
X1054100Y660400D01*
X1028700Y635000D01*
X1028700Y558800D01*
X1089635Y822935D02*
X1159133Y822935D01*
X1089635Y822935D02*
X1079500Y812800D01*
X1079500Y660400D01*
X1104900Y635000D01*
X1104900Y558800D01*
X1110540Y793040D02*
X1138003Y793040D01*
X1110540Y793040D02*
X1104900Y787400D01*
X1104900Y673100D01*
X1130300Y647700D01*
X1130300Y558800D01*
X1130300Y748254D02*
X1138480Y756434D01*
X1130300Y685800D02*
X1155700Y660400D01*
X1155700Y558800D01*
X1130300Y685800D02*
X1130300Y748254D01*
X1160382Y727100D02*
X1160382Y693818D01*
X1181100Y673100D01*
X1181100Y558800D01*
X1206500Y705085D02*
X1195343Y716241D01*
X1206500Y705085D02*
X1206500Y558800D01*
D15*
X1231900Y726117D02*
X1230010Y728007D01*
D14*
X1231900Y726117D02*
X1231900Y558800D01*
X1257300Y751742D02*
X1251141Y757902D01*
X1257300Y751742D02*
X1257300Y558800D01*
X1250664Y794507D02*
X1275593Y794507D01*
X1282700Y787400D01*
X1282700Y558800D01*
X1297058Y823842D02*
X1228761Y823842D01*
X1297058Y823842D02*
X1308100Y812800D01*
X1308100Y558800D01*
X1343635Y822935D02*
X1413133Y822935D01*
X1343635Y822935D02*
X1333500Y812800D01*
X1333500Y660400D01*
X1358900Y635000D01*
X1358900Y558800D01*
X1364540Y793040D02*
X1392003Y793040D01*
X1364540Y793040D02*
X1358900Y787400D01*
X1358900Y673100D01*
X1384300Y647700D01*
X1384300Y558800D01*
X1384300Y748254D02*
X1392480Y756434D01*
X1384300Y685800D02*
X1409700Y660400D01*
X1409700Y558800D01*
X1384300Y685800D02*
X1384300Y748254D01*
X1414382Y727100D02*
X1414382Y693818D01*
X1435100Y673100D01*
X1435100Y558800D01*
X1460500Y705085D02*
X1449343Y716241D01*
X1460500Y705085D02*
X1460500Y558800D01*
X1485900Y726117D02*
X1484010Y728007D01*
X1485900Y726117D02*
X1485900Y558800D01*
X1511300Y751742D02*
X1505141Y757902D01*
X1511300Y751742D02*
X1511300Y558800D01*
X1504664Y794507D02*
X1529593Y794507D01*
X1536700Y787400D01*
X1536700Y558800D01*
X1551058Y823842D02*
X1482761Y823842D01*
X1551058Y823842D02*
X1562100Y812800D01*
X1562100Y558800D01*
X1597635Y822935D02*
X1667133Y822935D01*
X1597635Y822935D02*
X1587500Y812800D01*
X1587500Y660400D01*
X1612900Y635000D01*
X1612900Y558800D01*
X1618540Y793040D02*
X1646003Y793040D01*
X1618540Y793040D02*
X1612900Y787400D01*
X1612900Y673100D01*
X1638300Y647700D01*
X1638300Y558800D01*
X1638300Y748254D02*
X1646480Y756434D01*
X1638300Y748254D02*
X1638300Y685800D01*
X1663700Y660400D01*
X1663700Y558800D01*
X1668382Y693818D02*
X1668382Y727100D01*
X1668382Y693818D02*
X1689100Y673100D01*
X1689100Y558800D01*
X1714500Y705085D02*
X1703343Y716241D01*
X1714500Y705085D02*
X1714500Y558800D01*
X1739900Y726117D02*
X1738010Y728007D01*
X1739900Y726117D02*
X1739900Y558800D01*
X1765300Y751742D02*
X1759141Y757902D01*
X1765300Y751742D02*
X1765300Y558800D01*
X1758664Y794507D02*
X1783593Y794507D01*
X1790700Y787400D01*
X1790700Y558800D01*
X1805058Y823842D02*
X1736761Y823842D01*
X1805058Y823842D02*
X1816100Y812800D01*
X1816100Y558800D01*
X190500Y1155700D02*
X127000Y1219200D01*
X190500Y1155700D02*
X190500Y1016000D01*
X228600Y977900D01*
X266700Y977900D01*
X1866900Y977900D01*
X190500Y292100D02*
X127000Y355600D01*
X190500Y292100D02*
X190500Y152400D01*
X228600Y114300D01*
X266700Y114300D01*
X1866900Y114300D01*
X177800Y1358900D02*
X127000Y1358900D01*
X177800Y1358900D02*
X215900Y1320800D01*
X215900Y1028700D01*
X241300Y1003300D01*
X1866900Y1003300D01*
X127000Y1041400D02*
X127000Y1079500D01*
X127000Y1041400D02*
X215900Y952500D01*
X266700Y952500D01*
X1866900Y952500D01*
X127000Y215900D02*
X127000Y177800D01*
X215900Y88900D01*
X266700Y88900D01*
X1866900Y88900D01*
X215900Y406400D02*
X127000Y495300D01*
X215900Y406400D02*
X215900Y165100D01*
X241300Y139700D01*
X266700Y139700D01*
X1866900Y139700D01*
M02*
