<?xml version="1.0" encoding="UTF-8" standalone="no"?>
<svg
   xmlns:dc="http://purl.org/dc/elements/1.1/"
   xmlns:cc="http://creativecommons.org/ns#"
   xmlns:rdf="http://www.w3.org/1999/02/22-rdf-syntax-ns#"
   xmlns:svg="http://www.w3.org/2000/svg"
   xmlns="http://www.w3.org/2000/svg"
   viewBox="0 0 310.44312 76.800774"
   height="0.80000806in"
   width="3.2337825in"
   xml:space="preserve"
   id="svg815"
   version="1.1"><metadata
     id="metadata821"><rdf:RDF><cc:Work
         rdf:about=""><dc:format>image/svg+xml</dc:format><dc:type
           rdf:resource="http://purl.org/dc/dcmitype/StillImage" /><dc:title></dc:title></cc:Work></rdf:RDF></metadata><defs
     id="defs819" /><g
     transform="matrix(1.3333333,0,0,1.3333333,0,1.9200194e-6)"
     id="g823"><g
       id="g825"><path
         id="path827"
         style="fill:#000000;fill-opacity:1;fill-rule:nonzero;stroke:none"
         d="M 23.617,0 V 5.398 C 17.43,5.547 11.828,6.832 7.605,8.941 3.121,11.184 0,14.469 0,18.43 c 0.004,2.961 1.961,5.613 4.949,7.75 v 18.133 c 0,3.773 3.082,6.855 6.856,6.855 h 24.281 v 6.434 h 2.519 v -6.489 c 3.383,-0.418 6.02,-3.308 6.02,-6.8 V 26.164 c 2.984,-2.133 4.938,-4.773 4.949,-7.726 0,-0.004 0,-0.004 0,-0.008 0,-3.961 -3.121,-7.246 -7.609,-9.489 C 37.785,6.852 32.254,5.57 26.137,5.402 V 0 Z m 0,8.074 v 6.797 H 12.414 v 2.524 h 24.93 V 14.871 H 26.137 V 8.078 c 5.75,0.172 10.918,1.406 14.629,3.262 4,1.996 6.129,4.578 6.129,7.09 -0.012,2.008 -1.372,4.152 -4.332,6.05 -0.383,0.247 -0.618,0.672 -0.618,1.133 v 18.7 c 0,2.05 -1.414,3.714 -3.34,4.093 V 39.734 H 11.152 v 6.325 h 2.524 v -3.801 h 22.41 v 6.23 H 11.805 c -2.336,0 -4.18,-1.84 -4.18,-4.175 V 25.625 C 7.621,25.168 7.391,24.746 7.008,24.5 4.043,22.594 2.684,20.441 2.68,18.43 c 0,-2.512 2.129,-5.094 6.129,-7.09 3.746,-1.875 8.984,-3.117 14.808,-3.266 z" /><path
         id="path829"
         style="fill:#000000;fill-opacity:1;fill-rule:nonzero;stroke:none"
         d="m 12.785,23.32 h 4.672 v -2.336 h -4.672 z m 9.344,0 h 4.672 v -2.336 h -4.672 z m 9.344,0 h 4.675 v -2.336 h -4.675 z" /><path
         id="path831"
         style="fill:#000000;fill-opacity:1;fill-rule:nonzero;stroke:none"
         d="m 58.477,16.488 h 3.972 V 28.441 H 62.5 c 1.797,-1.304 3.816,-1.961 6.055,-1.961 3.07,0 5.679,1.297 7.828,3.891 1.363,1.84 2.047,3.809 2.047,5.899 v 0.394 c 0,3.024 -1.309,5.609 -3.922,7.758 -1.844,1.344 -3.828,2.012 -5.953,2.012 h -0.117 c -2.172,0 -4.153,-0.653 -5.938,-1.961 h -0.051 v 1.961 h -3.972 z m 3.972,19.989 c 0,2.148 1.035,3.898 3.106,5.25 0.965,0.492 1.937,0.734 2.914,0.734 1.945,0 3.558,-0.828 4.844,-2.488 0.761,-1.094 1.144,-2.196 1.144,-3.309 V 36.27 c 0,-1.68 -0.758,-3.184 -2.269,-4.5 -1.102,-0.875 -2.372,-1.313 -3.805,-1.313 -2,0 -3.688,0.961 -5.063,2.879 -0.582,1.082 -0.871,2.129 -0.871,3.141 z" /><path
         id="path833"
         style="fill:#000000;fill-opacity:1;fill-rule:nonzero;stroke:none"
         d="m 80.168,26.48 h 3.973 v 2.27 h 0.05 c 2.118,-1.512 4.762,-2.27 7.934,-2.27 v 3.977 c -3.844,0 -6.348,1.34 -7.504,4.023 -0.32,0.786 -0.48,1.512 -0.48,2.184 v 9.77 h -3.973 z" /><path
         id="path835"
         style="fill:#000000;fill-opacity:1;fill-rule:nonzero;stroke:none"
         d="m 102.32,26.48 c 2.934,0 5.465,1.18 7.59,3.532 1.57,1.98 2.352,4.121 2.352,6.429 -0.02,0.75 -0.09,1.414 -0.203,1.997 H 96.641 c 0.492,1.464 1.468,2.589 2.933,3.375 0.867,0.433 1.762,0.648 2.696,0.648 1.57,0 2.984,-0.578 4.246,-1.738 l 2.781,2.777 v 0.051 c -2.012,1.922 -4.34,2.883 -6.977,2.883 h -0.086 c -2.964,0 -5.5,-1.176 -7.605,-3.528 -1.566,-1.968 -2.352,-4.113 -2.352,-6.429 0,-2.957 1.176,-5.504 3.532,-7.641 1.906,-1.57 4.078,-2.356 6.511,-2.356 z m -5.679,8 h 11.257 c -0.445,-1.332 -1.343,-2.421 -2.695,-3.273 -1.012,-0.5 -2,-0.75 -2.969,-0.75 -2.113,0 -3.847,1.016 -5.199,3.051 z" /><path
         id="path837"
         style="fill:#000000;fill-opacity:1;fill-rule:nonzero;stroke:none"
         d="m 123.996,26.48 c 2.137,0 4.117,0.657 5.934,1.961 h 0.05 V 26.48 h 3.977 v 19.954 h -3.977 v -1.961 c -1.851,1.308 -3.746,1.961 -5.675,1.961 h -0.532 c -2.988,0 -5.574,-1.305 -7.757,-3.922 -1.344,-1.887 -2.012,-3.899 -2.012,-6.035 0,-3.309 1.426,-6.043 4.281,-8.204 1.762,-1.195 3.664,-1.793 5.711,-1.793 z m -6.019,9.961 c 0,2.227 1.062,4 3.187,5.321 0.899,0.465 1.816,0.699 2.746,0.699 h 0.258 c 1.805,0 3.383,-0.84 4.723,-2.523 0.726,-1.102 1.089,-2.196 1.089,-3.274 v -0.273 c 0,-2.082 -0.988,-3.782 -2.964,-5.098 -1.012,-0.559 -2.032,-0.836 -3.055,-0.836 -1.91,0 -3.523,0.84 -4.844,2.523 -0.762,1.125 -1.14,2.278 -1.14,3.461 z" /><path
         id="path839"
         style="fill:#000000;fill-opacity:1;fill-rule:nonzero;stroke:none"
         d="m 151.676,16.488 h 3.972 v 29.946 h -3.972 v -1.961 c -1.856,1.308 -3.821,1.961 -5.903,1.961 h -0.203 c -3.218,0 -5.929,-1.426 -8.136,-4.278 -1.161,-1.797 -1.739,-3.703 -1.739,-5.715 0,-3.273 1.426,-6.007 4.282,-8.203 1.773,-1.172 3.707,-1.758 5.796,-1.758 2.094,0 4.043,0.657 5.852,1.961 h 0.051 z m -12.008,19.989 c 0,2.113 0.988,3.832 2.969,5.148 0.929,0.559 1.976,0.836 3.136,0.836 1.981,0 3.629,-0.914 4.946,-2.746 0.636,-1.035 0.957,-2.07 0.957,-3.102 v -0.308 c 0,-1.864 -0.875,-3.461 -2.629,-4.793 -1.043,-0.703 -2.192,-1.055 -3.445,-1.055 -1.942,0 -3.586,0.902 -4.926,2.711 -0.672,1.055 -1.008,2.16 -1.008,3.309 z" /><path
         id="path841"
         style="fill:#000000;fill-opacity:1;fill-rule:nonzero;stroke:none"
         d="m 160.629,16.402 h 3.973 V 26.48 h 3.41 v 3.977 h -3.41 v 15.977 h -3.973 V 30.457 h -3.43 V 26.48 h 3.43 z" /><path
         id="path843"
         style="fill:#000000;fill-opacity:1;fill-rule:nonzero;stroke:none"
         d="m 169.461,26.48 h 3.973 v 6.993 c 0.023,4.32 1.218,7.156 3.582,8.511 0.761,0.317 1.472,0.477 2.132,0.477 h 0.274 c 1.398,0 2.75,-0.598 4.058,-1.789 0.875,-0.981 1.442,-2.117 1.704,-3.41 0.207,-0.742 0.308,-2.106 0.308,-4.094 V 26.48 h 3.957 v 6.415 c 0,3.343 -0.301,5.691 -0.906,7.043 -0.363,0.933 -0.875,1.847 -1.535,2.746 -1.25,1.636 -3.039,2.785 -5.371,3.445 -0.692,0.203 -1.364,0.305 -2.012,0.305 h -0.684 c -1.91,0 -3.726,-0.68 -5.457,-2.047 -2.679,-2.352 -4.023,-6.063 -4.023,-11.133 z" /><path
         id="path845"
         style="fill:#000000;fill-opacity:1;fill-rule:nonzero;stroke:none"
         d="m 191.152,16.488 h 3.973 v 11.953 h 0.055 c 1.793,-1.304 3.812,-1.961 6.05,-1.961 3.071,0 5.68,1.297 7.829,3.891 1.363,1.84 2.046,3.809 2.046,5.899 v 0.394 c 0,3.024 -1.308,5.609 -3.921,7.758 -1.84,1.344 -3.825,2.012 -5.954,2.012 h -0.117 c -2.172,0 -4.152,-0.653 -5.933,-1.961 h -0.055 v 1.961 h -3.973 z m 3.973,19.989 c 0,2.148 1.035,3.898 3.105,5.25 0.965,0.492 1.938,0.734 2.918,0.734 1.942,0 3.559,-0.828 4.84,-2.488 0.762,-1.094 1.145,-2.196 1.145,-3.309 V 36.27 c 0,-1.68 -0.758,-3.184 -2.27,-4.5 -1.101,-0.875 -2.371,-1.313 -3.8,-1.313 -2,0 -3.692,0.961 -5.067,2.879 -0.578,1.082 -0.871,2.129 -0.871,3.141 z" /><path
         id="path847"
         style="fill:#000000;fill-opacity:1;fill-rule:nonzero;stroke:none"
         d="m 222.891,26.48 c 2.933,0 5.461,1.18 7.589,3.532 1.567,1.98 2.352,4.121 2.352,6.429 -0.023,0.75 -0.09,1.414 -0.203,1.997 h -15.418 c 0.488,1.464 1.469,2.589 2.934,3.375 0.863,0.433 1.761,0.648 2.695,0.648 1.566,0 2.984,-0.578 4.246,-1.738 l 2.777,2.777 v 0.051 c -2.011,1.922 -4.336,2.883 -6.972,2.883 h -0.086 c -2.969,0 -5.504,-1.176 -7.606,-3.528 -1.57,-1.968 -2.355,-4.113 -2.355,-6.429 0,-2.957 1.179,-5.504 3.531,-7.641 1.91,-1.57 4.082,-2.356 6.516,-2.356 z m -5.68,8 h 11.254 c -0.442,-1.332 -1.34,-2.421 -2.692,-3.273 -1.011,-0.5 -2.003,-0.75 -2.968,-0.75 -2.114,0 -3.848,1.016 -5.203,3.051 z" /><path
         id="path849"
         style="fill:#000000;fill-opacity:1;fill-rule:nonzero;stroke:none"
         d="m 12.785,29.625 h 4.672 v -2.336 h -4.672 z m 9.344,0 h 4.672 v -2.336 h -4.672 z m 9.344,0 h 4.675 v -2.336 h -4.675 z" /><path
         id="path851"
         style="fill:#000000;fill-opacity:1;fill-rule:nonzero;stroke:none"
         d="m 12.785,35.793 h 4.672 v -2.336 h -4.672 z m 9.344,0 h 4.672 v -2.336 h -4.672 z m 9.344,0 h 4.675 v -2.336 h -4.675 z" /></g></g></svg>